<?xml version="1.0" encoding="UTF-8" standalone="no"?>
<!DOCTYPE svg PUBLIC "-//W3C//DTD SVG 1.1//EN" "http://www.w3.org/Graphics/SVG/1.1/DTD/svg11.dtd">
<svg width="100%" height="100%" viewBox="0 0 90 104" version="1.1" xmlns="http://www.w3.org/2000/svg" xmlns:xlink="http://www.w3.org/1999/xlink" xml:space="preserve" xmlns:serif="http://www.serif.com/" style="fill-rule:evenodd;clip-rule:evenodd;stroke-linejoin:round;stroke-miterlimit:2;">
    <g transform="matrix(1,0,0,1,-545.028777,-172.575467)">
        <g>
            <g transform="matrix(0.465407,-0.885097,0.885097,0.465407,118.570627,645.51591)">
                <path d="M568.3,204.7L567.8,218.1L567.2,235.7C567.2,236.1 567.2,236.5 566.7,236.7L547.5,246.5C547.2,246.6 547.1,246.7 546.9,246.6C546.7,246.5 546.4,246.2 546.5,245.9L547.7,221.2L548.8,196.2C548.8,194.5 550.2,192.6 551.7,191.8L591.3,170.9C593,170 594.9,169.9 596.6,170.9L609.2,178.7L636.4,195.5C638,196.4 638.6,198 638.5,199.9L637.8,214.4L636.4,245.7C636.3,247.8 635.3,249.3 633.4,250.3L586.6,275C585.5,275.6 583.7,275.4 582.7,274.8L566.8,265.1C566.5,264.7 566.4,264.3 566.8,264L617,237.5L618.2,207.6L592.7,191.7L568.3,204.6L568.3,204.7Z" style="fill:rgb(179,34,23);fill-rule:nonzero;"/>
            </g>
            <g transform="matrix(0.465407,-0.885097,0.885097,0.465407,118.570627,645.51591)">
                <path d="M592.7,191.8L591.9,170.6C591.9,170.6 593.6,169.7 595.7,170.6C597.1,170.9 620.2,185.6 636.4,195.6C636.4,195.6 637.4,196.2 637.9,197.2C638.4,198.2 638.6,199.2 638.5,199.8C638.5,200.5 636.5,245.4 636.5,245.4C636.5,245.4 636.7,248 634.8,249.5L617,237.5L618.2,207.6" style="fill:white;fill-rule:nonzero;"/>
            </g>
        </g>
    </g>
</svg>
