<?xml version="1.0" encoding="UTF-8" standalone="no"?>
<!DOCTYPE svg PUBLIC "-//W3C//DTD SVG 1.1//EN" "http://www.w3.org/Graphics/SVG/1.1/DTD/svg11.dtd">
<svg width="100%" height="100%" viewBox="0 0 82 99" version="1.1" xmlns="http://www.w3.org/2000/svg" xmlns:xlink="http://www.w3.org/1999/xlink" xml:space="preserve" xmlns:serif="http://www.serif.com/" style="fill-rule:evenodd;clip-rule:evenodd;stroke-linejoin:round;stroke-miterlimit:2;">
    <g transform="matrix(1,0,0,1,-76.72681,-172.583688)">
        <g>
            <g transform="matrix(0.541973,0.840396,-0.840396,0.541973,233.388982,-2.184921)">
                <path d="M69.6,231.3C69.6,231.3 71.6,191.1 113.2,162.8L154.4,189.3C154.4,189.3 162.4,195.8 165,203C167.6,210.2 168.8,229.8 166.4,245.3L135,261.4C135,261.4 124,266.3 112.1,258.6C100.1,250.9 69.7,231.3 69.7,231.3L69.6,231.3Z" style="fill:rgb(234,234,234);fill-rule:nonzero;"/>
            </g>
            <g transform="matrix(0.541973,0.840396,-0.840396,0.541973,233.388982,-2.184921)">
                <path d="M72.3,230.2C72.3,230.2 71.5,193.9 113.1,165.5L154.6,191.8C154.6,191.8 162.7,198.3 164.1,205C165.7,212.5 165.8,227.6 163.4,243.1L140.5,256.5C140.5,256.5 126.8,265.2 114.8,257.4C102.8,249.7 72.4,230.1 72.4,230.1L72.3,230.2Z" style="fill:rgb(33,42,65);fill-rule:nonzero;"/>
            </g>
            <g transform="matrix(0.541973,0.840396,-0.840396,0.541973,233.388982,-2.184921)">
                <path d="M88,239C88,239 79.2,203.7 112.2,166.8L153.7,193.1C153.7,193.1 161.8,199.6 163.2,206.3C164.6,213 163.9,226.3 162,242.4L142.6,254.2C142.6,254.2 127.8,263.5 115.7,256.8C103.6,250.1 88,239 88,239Z" style="fill:rgb(234,234,234);fill-rule:nonzero;"/>
            </g>
            <g transform="matrix(0.541973,0.840396,-0.840396,0.541973,233.388982,-2.184921)">
                <path d="M89.8,238.3C89.8,238.3 80.8,208.7 112.2,168.3L152.7,194.4C152.7,194.4 161.2,201.8 162.4,212C163.3,219.6 161.8,224.9 159.9,241L142.3,252.4C142.3,252.4 127.9,261.7 115.8,255C103.7,248.3 89.8,238.4 89.8,238.4L89.8,238.3Z" style="fill:rgb(192,14,26);fill-rule:nonzero;"/>
            </g>
            <g transform="matrix(0.541973,0.840396,-0.840396,0.541973,233.388982,-2.184921)">
                <path d="M104.7,227.4L103.9,228.6L116.4,249.9L119.2,245.6L111.6,232.8L126.2,234.7L128.9,230.5L104.7,227.4Z" style="fill:rgb(244,244,244);fill-rule:nonzero;"/>
            </g>
            <g transform="matrix(0.541973,0.840396,-0.840396,0.541973,233.388982,-2.184921)">
                <path d="M134.1,192.8L132.2,188.9C132.2,188.9 126.6,190.4 125.4,195.1C124.2,199.8 125.8,202.2 129.8,203.6C130.8,204 133.4,203.9 136.3,201.1C139.2,198.3 143.1,199.8 142.3,202.1C141.2,205.4 136.6,206.4 136.6,206.4L137.4,210.7C137.4,210.7 141.5,210 144.2,207C146.9,204 146.7,201 146.7,201C146.7,201 145.8,193 138,195.2C138,195.2 135.6,196.2 132.6,198.7C132.6,198.7 129.5,200.9 129.1,197.2C128.7,193.5 133.9,192.8 133.9,192.8L134.1,192.8Z" style="fill:rgb(244,244,244);fill-rule:nonzero;"/>
            </g>
            <g transform="matrix(1,-0.000315,0.000315,1,2.014195,0.312678)">
                <rect x="110.5" y="208.8" width="14.6" height="4.3" style="fill:rgb(244,244,244);"/>
            </g>
            <g transform="matrix(1,-0.000315,0.000315,1,-12.893057,8.379513)">
                <rect x="125.4" y="218.4" width="14.6" height="4.3" style="fill:rgb(244,244,244);"/>
            </g>
            <g transform="matrix(1,-0.000315,0.000315,1,-5.684522,3.135752)">
                <rect x="118.2" y="214.5" width="12.1" height="4.3" style="fill:rgb(244,244,244);"/>
            </g>
        </g>
    </g>
</svg>
