<?xml version="1.0" encoding="UTF-8" standalone="no"?>
<!DOCTYPE svg PUBLIC "-//W3C//DTD SVG 1.1//EN" "http://www.w3.org/Graphics/SVG/1.1/DTD/svg11.dtd">
<svg width="100%" height="100%" viewBox="0 0 89 103" version="1.1" xmlns="http://www.w3.org/2000/svg" xmlns:xlink="http://www.w3.org/1999/xlink" xml:space="preserve" xmlns:serif="http://www.serif.com/" style="fill-rule:evenodd;clip-rule:evenodd;stroke-linejoin:round;stroke-miterlimit:2;">
    <g transform="matrix(1,0,0,1,-310.3,-30.8)">
        <g>
            <path d="M383.6,60.1C383.6,76.2 370.7,89.3 354.8,89.3C338.9,89.3 353.5,89.3 352.8,89.3C359.3,88.8 365.2,85.9 369.5,81.5C376.3,76.4 380.8,68.2 380.8,58.8C380.8,43.6 369,31.2 354.2,30.9L354.8,30.9C370.7,30.9 383.6,44 383.6,60.1Z" style="fill:rgb(103,165,220);fill-rule:nonzero;"/>
            <path d="M380.8,58.7C380.8,68 376.3,76.3 369.5,81.4C374.3,76.5 377.3,69.7 377.3,62.2C377.3,47.2 365.5,35 350.9,35C336.3,35 334.1,39.5 329.3,46.5C329.5,46 329.8,45.5 330.1,45C335,36.7 344,31 354.2,30.8C368.9,31.1 380.8,43.5 380.8,58.7Z" style="fill:rgb(33,42,65);fill-rule:nonzero;"/>
            <rect x="348.7" y="100.1" width="21.4" height="6.3" style="fill:rgb(33,42,65);"/>
            <g>
                <path d="M328.7,100.1L326.7,100.1L310.3,132.4L317.8,132.4L327.5,113L336.8,132.4L344.1,132.4L328.7,100.1Z" style="fill:rgb(33,42,65);fill-rule:nonzero;"/>
                <path d="M394.7,108.9L398,103.5C398,103.5 391.7,97.8 384.9,100.1C378.2,102.4 376.5,106.2 378,112.3C378.3,113.8 380.5,117.1 386.2,118.4C391.9,119.7 393.3,125.8 389.8,126.6C384.8,127.8 379.9,123 379.9,123L375.3,127.4C375.3,127.4 379.5,131.9 385.3,132.9C391.1,133.9 394.7,131.2 394.7,131.2C394.7,131.2 403.8,123.7 394.9,115.9C394.9,115.9 391.7,113.7 386.3,112C386.3,112 381.1,110 385.4,106.4C389.7,102.8 394.7,108.9 394.7,108.9Z" style="fill:rgb(33,42,65);fill-rule:nonzero;"/>
                <rect x="348.7" y="126.2" width="21.2" height="6.3" style="fill:rgb(35,43,67);"/>
                <rect x="348.7" y="112.6" width="17.8" height="6.3" style="fill:rgb(33,42,65);"/>
            </g>
            <path d="M326.3,75.6C326.3,75.6 330.3,87.8 326.7,95.7C326.7,95.7 333,89.6 346,89.3C343.7,88.5 338.3,85.6 331.1,88.5C331.1,87 331.1,78.9 326.2,75.6L326.3,75.6Z" style="fill:rgb(103,165,220);fill-rule:nonzero;"/>
            <path d="M328.5,94.3C328.5,94.3 334.5,89.6 346.2,89.2C346.2,89.2 338.5,85.2 331.3,88.4C331.3,88.4 331.3,82.5 329,78.5C329,78.5 330.9,87.1 328.5,94.2L328.5,94.3Z" style="fill:rgb(35,42,67);fill-rule:nonzero;"/>
            <path d="M344.7,41.4C344.7,41.4 344.7,51.3 334.7,53.3C334.7,53.3 345.1,55.2 344.7,64.6C344.7,64.6 346.3,52.7 355.6,53.5C355.6,53.5 345.9,52 344.7,41.4Z" style="fill:rgb(33,42,65);fill-rule:nonzero;"/>
            <path d="M361.8,59.5C361.8,59.5 361.8,65.6 355.6,66.9C355.6,66.9 362.1,68.1 361.8,73.9C361.8,73.9 362.8,66.5 368.6,67C368.6,67 362.6,66.1 361.8,59.5Z" style="fill:rgb(113,113,119);fill-rule:nonzero;"/>
            <path d="M348.2,72.5C348.2,72.5 348.2,76.5 344.2,77.3C344.2,77.3 348.4,78.1 348.2,81.9C348.2,81.9 348.8,77.1 352.6,77.4C352.6,77.4 348.7,76.8 348.2,72.5Z" style="fill:rgb(103,165,220);fill-rule:nonzero;"/>
        </g>
    </g>
</svg>
