<?xml version="1.0" encoding="UTF-8" standalone="no"?>
<!DOCTYPE svg PUBLIC "-//W3C//DTD SVG 1.1//EN" "http://www.w3.org/Graphics/SVG/1.1/DTD/svg11.dtd">
<svg width="100%" height="100%" viewBox="0 0 668 237" version="1.1" xmlns="http://www.w3.org/2000/svg" xmlns:xlink="http://www.w3.org/1999/xlink" xml:space="preserve" xmlns:serif="http://www.serif.com/" style="fill-rule:evenodd;clip-rule:evenodd;stroke-linejoin:round;stroke-miterlimit:2;">
    <g transform="matrix(1,0,0,1,0,-256.2)">
        <path d="M44.8,354.7L44.8,373.5L44.3,374C39.4,378.6 33,381.2 26.3,381.2C11.8,381.2 -0,369.4 -0,354.8C-0,340.2 11.8,328.4 26.3,328.4C40.8,328.4 38.1,330.5 42.7,334.2L43.8,335.1L40.7,339L39.6,338.1C35.8,335.1 31.1,333.4 26.3,333.4C14.5,333.4 5,343 5,354.8C5,366.6 14.6,376.2 26.3,376.2C38,376.2 36.1,374.5 39.9,371.3L39.9,359.7L25.1,359.7L25.1,354.7L44.9,354.7L44.8,354.7Z" style="fill:rgb(242,242,242);fill-rule:nonzero;"/>
        <path d="M96.6,380L82.2,360.7L70.8,360.7L70.8,380L65.8,380L65.8,329.7L86.6,329.7C94.9,329.7 101.6,336.4 101.6,344.6L101.6,345.7C101.6,353.3 95.8,359.7 88.3,360.5L102.7,379.9L96.4,379.9L96.6,379.9L96.6,380ZM70.9,355.8L86.7,355.8C92.2,355.8 96.8,351.3 96.8,345.8L96.8,344.7C96.8,339.2 92.3,334.7 86.7,334.7L70.9,334.7L70.9,355.8Z" style="fill:rgb(242,242,242);fill-rule:nonzero;"/>
        <path d="M159.7,329.7L159.7,363.4C159.7,373.3 154.1,380.1 145,381.2L137.7,381.2C128.6,380.2 123,373.4 123,363.4L123,329.7L128,329.7L128,363.4C128,370.8 131.7,375.4 138.2,376.2L144.6,376.2C151.1,375.3 154.8,370.7 154.8,363.4L154.8,329.7L159.8,329.7L159.7,329.7Z" style="fill:rgb(242,242,242);fill-rule:nonzero;"/>
        <path d="M216.6,344.6L216.6,345.8C216.6,354 209.9,360.7 201.6,360.7L186.8,360.7L186.8,380L181.8,380L181.8,329.7L201.6,329.7C209.9,329.7 216.6,336.4 216.6,344.6ZM211.7,345.8L211.7,344.7C211.7,339.2 207.2,334.7 201.6,334.7L186.8,334.7L186.8,355.8L201.6,355.8C207.1,355.8 211.7,351.3 211.7,345.8Z" style="fill:rgb(242,242,242);fill-rule:nonzero;"/>
        <path d="M286.8,354.8C286.8,369.4 274.9,381.2 260.4,381.2C245.9,381.2 234,369.3 234,354.8C234,340.3 245.9,328.4 260.4,328.4C274.9,328.4 286.8,340.3 286.8,354.8ZM281.9,354.8C281.9,343 272.3,333.3 260.4,333.3C248.5,333.3 238.9,342.9 238.9,354.8C238.9,366.7 248.5,376.3 260.4,376.3C272.3,376.3 281.9,366.7 281.9,354.8Z" style="fill:rgb(242,242,242);fill-rule:nonzero;"/>
        <rect x="305.5" y="256.2" width="5.9" height="199.9" style="fill:rgb(185,53,41);"/>
        <path d="M398.9,293.5L391.2,293.5L328.3,417.3L357.2,417.3L394.2,342.7L429.9,417.3L458.1,417.3L398.9,293.5Z" style="fill:rgb(242,242,242);fill-rule:nonzero;"/>
        <path d="M26.9,492L22.4,492L20.7,487.5L12.7,487.5L11.1,492L6.8,492L14.6,472.1L18.9,472.1L26.9,492ZM19.4,484.2L16.7,476.8L14,484.2L19.4,484.2Z" style="fill:rgb(242,242,242);fill-rule:nonzero;"/>
        <path d="M29,472.1L36.4,472.1C38.1,472.1 39.3,472.2 40.2,472.5C41.4,472.8 42.4,473.5 43.2,474.3C44,475.2 44.7,476.3 45.1,477.5C45.5,478.8 45.8,480.3 45.8,482.2C45.8,484.1 45.6,485.3 45.2,486.4C44.7,487.9 44,489 43.1,489.9C42.4,490.6 41.5,491.1 40.3,491.5C39.4,491.8 38.2,491.9 36.7,491.9L29.1,491.9L29.1,472L29,472L29,472.1ZM33,475.5L33,488.7L36,488.7C37.1,488.7 37.9,488.7 38.4,488.5C39.1,488.3 39.6,488.1 40,487.7C40.4,487.3 40.8,486.7 41.1,485.8C41.4,484.9 41.5,483.7 41.5,482.1C41.5,480.5 41.5,479.4 41.1,478.6C40.8,477.8 40.4,477.1 40,476.7C39.5,476.2 38.9,475.9 38.1,475.8C37.5,475.7 36.4,475.6 34.8,475.6L33,475.6L33,475.5Z" style="fill:rgb(242,242,242);fill-rule:nonzero;"/>
        <path d="M49,492L49,472.1L55,472.1L58.6,485.7L62.2,472.1L68.2,472.1L68.2,492L64.5,492L64.5,476.3L60.5,492L56.6,492L52.7,476.3L52.7,492L49,492Z" style="fill:rgb(242,242,242);fill-rule:nonzero;"/>
        <rect x="72.2" y="472.1" width="4" height="19.9" style="fill:rgb(242,242,242);fill-rule:nonzero;"/>
        <path d="M80.1,492L80.1,472.1L84,472.1L92.2,485.4L92.2,472.1L95.9,472.1L95.9,492L91.9,492L83.9,479L83.9,492L80.1,492Z" style="fill:rgb(242,242,242);fill-rule:nonzero;"/>
        <rect x="100" y="472.1" width="4" height="19.9" style="fill:rgb(242,242,242);fill-rule:nonzero;"/>
        <path d="M106.9,485.6L110.8,485.2C111,486.5 111.5,487.5 112.2,488.1C112.9,488.7 113.9,489 115.1,489C116.3,489 117.4,488.7 118,488.2C118.7,487.7 119,487 119,486.3C119,485.6 119,485.4 118.6,485.1C118.2,484.8 117.8,484.5 117.2,484.2C116.7,484 115.7,483.7 114,483.3C111.8,482.8 110.3,482.1 109.5,481.3C108.3,480.2 107.7,478.9 107.7,477.3C107.7,475.7 108,475.3 108.6,474.5C109.2,473.6 110,472.9 111.1,472.5C112.2,472 113.5,471.8 115,471.8C117.5,471.8 119.4,472.3 120.7,473.4C122,474.5 122.6,476 122.7,477.8L118.7,478C118.5,477 118.2,476.2 117.6,475.8C117,475.4 116.2,475.1 115.1,475.1C114,475.1 113,475.3 112.4,475.8C112,476.1 111.8,476.5 111.8,477C111.8,477.5 112,477.9 112.4,478.2C112.9,478.6 114.1,479.1 116.1,479.5C118.1,480 119.5,480.4 120.4,480.9C121.3,481.4 122.1,482.1 122.6,482.9C123.1,483.8 123.4,484.8 123.4,486.1C123.4,487.4 123.1,488.3 122.4,489.3C121.8,490.3 120.9,491 119.7,491.5C118.5,492 117.1,492.2 115.4,492.2C112.9,492.2 110.9,491.6 109.6,490.5C108.2,489.3 107.4,487.6 107.2,485.4L106.9,485.6Z" style="fill:rgb(242,242,242);fill-rule:nonzero;"/>
        <path d="M130.9,492L130.9,475.4L125,475.4L125,472L140.8,472L140.8,475.4L134.9,475.4L134.9,492L130.9,492Z" style="fill:rgb(242,242,242);fill-rule:nonzero;"/>
        <path d="M143.5,492L143.5,472.1L152,472.1C154.1,472.1 155.7,472.3 156.6,472.6C157.6,473 158.3,473.6 158.9,474.5C159.5,475.4 159.8,476.5 159.8,477.6C159.8,478.7 159.4,480.3 158.5,481.3C157.6,482.3 156.3,482.9 154.6,483.1C155.5,483.6 156.2,484.2 156.8,484.8C157.4,485.4 158.1,486.5 159.1,488L161.5,491.9L156.7,491.9L153.8,487.6C152.8,486 152.1,485.1 151.7,484.7C151.3,484.3 150.9,484 150.5,483.9C150.1,483.8 149.4,483.7 148.5,483.7L147.7,483.7L147.7,492L143.5,492ZM147.5,480.5L150.5,480.5C152.4,480.5 153.6,480.5 154.1,480.3C154.6,480.1 155,479.9 155.2,479.5C155.5,479.1 155.6,478.6 155.6,478C155.6,477.4 155.4,476.8 155.1,476.4C154.7,476 154.2,475.7 153.6,475.6L147.6,475.6L147.6,480.7L147.6,480.5L147.5,480.5Z" style="fill:rgb(242,242,242);fill-rule:nonzero;"/>
        <path d="M181.7,492L177.2,492L175.5,487.5L167.5,487.5L165.9,492L161.6,492L169.4,472.1L173.7,472.1L181.7,492ZM174.1,484.2L171.4,476.8L168.7,484.2L174.1,484.2Z" style="fill:rgb(242,242,242);fill-rule:nonzero;"/>
        <path d="M196.5,484.7L200.4,485.9C199.8,488.1 198.8,489.7 197.4,490.7C196,491.8 194.2,492.3 192.1,492.3C190,492.3 187.3,491.4 185.6,489.6C183.9,487.8 183,485.3 183,482.2C183,479.1 183.9,476.3 185.6,474.5C187.3,472.7 189.6,471.7 192.4,471.7C195.2,471.7 196.8,472.4 198.3,473.9C199.8,475.4 199.9,476 200.3,477.6L196.3,478.6C196.1,477.6 195.6,476.8 194.8,476.2C194.1,475.6 193.1,475.3 192.1,475.3C191.1,475.3 189.4,475.8 188.5,476.9C187.6,478 187.1,479.7 187.1,482.1C187.1,484.5 187.6,486.4 188.5,487.5C189.4,488.6 190.6,489.1 192,489.1C193.4,489.1 194,488.8 194.8,488.1C195.6,487.4 196.1,486.4 196.5,484.9L196.5,484.7Z" style="fill:rgb(242,242,242);fill-rule:nonzero;"/>
        <rect x="203.7" y="472.1" width="4" height="19.9" style="fill:rgb(242,242,242);fill-rule:nonzero;"/>
        <path d="M210.7,482.2C210.7,480.2 211,478.5 211.6,477.1C212.1,476.1 212.7,475.2 213.5,474.4C214.3,473.6 215.1,473 216.1,472.6C217.3,472.1 218.8,471.8 220.4,471.8C223.3,471.8 225.7,472.7 227.5,474.5C229.3,476.3 230.1,478.9 230.1,482.1C230.1,485.3 229.2,487.8 227.5,489.7C225.8,491.5 223.4,492.4 220.5,492.4C217.6,492.4 215.2,491.5 213.4,489.7C211.7,487.9 210.8,485.4 210.8,482.2L210.7,482.2ZM214.9,482.1C214.9,484.4 215.4,486.1 216.5,487.2C217.5,488.4 218.9,488.9 220.5,488.9C222.1,488.9 223.4,488.3 224.5,487.2C225.5,486 226,484.3 226,482C226,479.7 225.5,478 224.5,476.9C223.5,475.8 222.2,475.2 220.5,475.2C218.8,475.2 217.5,475.8 216.5,476.9C215.5,478 215,479.8 215,482L214.9,482L214.9,482.1ZM217.9,471L219.8,466.9L224.1,466.9L220.4,471L217.9,471Z" style="fill:rgb(242,242,242);fill-rule:nonzero;"/>
        <path d="M233.3,492L233.3,472.1L237.2,472.1L245.4,485.4L245.4,472.1L249.1,472.1L249.1,492L245.1,492L237.1,479L237.1,492L233.3,492Z" style="fill:rgb(242,242,242);fill-rule:nonzero;"/>
        <path d="M261.1,492.1L261.1,472.1L275.9,472.1L275.9,475.5L265.1,475.5L265.1,479.9L275.1,479.9L275.1,483.3L265.1,483.3L265.1,488.7L276.2,488.7L276.2,492.1L261,492.1L261.1,492.1Z" style="fill:rgb(242,242,242);fill-rule:nonzero;"/>
        <path d="M278.6,485.6L282.5,485.2C282.7,486.5 283.2,487.5 283.9,488.1C284.6,488.7 285.6,489 286.8,489C288,489 289.1,488.7 289.7,488.2C290.4,487.7 290.7,487 290.7,486.3C290.7,485.6 290.6,485.4 290.3,485.1C290,484.8 289.5,484.5 288.9,484.2C288.4,484 287.4,483.7 285.7,483.3C283.5,482.8 282,482.1 281.2,481.3C280,480.2 279.4,478.9 279.4,477.3C279.4,475.7 279.7,475.3 280.3,474.5C280.9,473.6 281.7,472.9 282.8,472.5C283.9,472 285.2,471.8 286.7,471.8C289.2,471.8 291.1,472.3 292.4,473.4C293.7,474.5 294.3,476 294.4,477.8L290.4,478C290.2,477 289.9,476.2 289.3,475.8C288.7,475.4 287.9,475.1 286.8,475.1C285.7,475.1 284.7,475.3 284.1,475.8C283.7,476.1 283.5,476.5 283.5,477C283.5,477.5 283.7,477.9 284.1,478.2C284.6,478.6 285.8,479.1 287.8,479.5C289.8,480 291.2,480.4 292.1,480.9C293,481.4 293.8,482.1 294.3,482.9C294.8,483.8 295.1,484.8 295.1,486.1C295.1,487.4 294.8,488.3 294.1,489.3C293.5,490.3 292.6,491 291.4,491.5C290.2,492 288.8,492.2 287.1,492.2C284.6,492.2 282.6,491.6 281.3,490.5C279.9,489.3 279.1,487.6 278.9,485.4L278.6,485.6Z" style="fill:rgb(242,242,242);fill-rule:nonzero;"/>
        <path d="M302.7,492L302.7,475.4L296.8,475.4L296.8,472L312.6,472L312.6,475.4L306.7,475.4L306.7,492L302.7,492Z" style="fill:rgb(242,242,242);fill-rule:nonzero;"/>
        <path d="M315.2,492L315.2,472.1L323.7,472.1C325.8,472.1 327.4,472.3 328.3,472.6C329.3,473 330,473.6 330.6,474.5C331.2,475.4 331.5,476.5 331.5,477.6C331.5,478.7 331.1,480.3 330.2,481.3C329.3,482.3 328,482.9 326.3,483.1C327.2,483.6 327.9,484.2 328.5,484.8C329.1,485.4 329.8,486.5 330.8,488L333.2,491.9L328.4,491.9L325.5,487.6C324.5,486 323.8,485.1 323.4,484.7C323,484.3 322.6,484 322.2,483.9C321.8,483.8 321.1,483.7 320.2,483.7L319.4,483.7L319.4,492L315.2,492ZM319.3,480.5L322.3,480.5C324.2,480.5 325.4,480.5 325.9,480.3C326.4,480.1 326.8,479.9 327,479.5C327.3,479.1 327.4,478.6 327.4,478C327.4,477.4 327.2,476.8 326.9,476.4C326.5,476 326,475.7 325.4,475.6L319.4,475.6L319.4,480.7L319.4,480.5L319.3,480.5Z" style="fill:rgb(242,242,242);fill-rule:nonzero;"/>
        <path d="M353.4,492L348.9,492L347.2,487.5L339.2,487.5L337.6,492L333.3,492L341.1,472.1L345.4,472.1L353.4,492ZM345.9,484.2L343.2,476.8L340.5,484.2L345.9,484.2Z" style="fill:rgb(242,242,242);fill-rule:nonzero;"/>
        <path d="M357.9,492L357.9,475.4L352,475.4L352,472L367.8,472L367.8,475.4L361.9,475.4L361.9,492L357.9,492Z" style="fill:rgb(242,242,242);fill-rule:nonzero;"/>
        <path d="M370.4,492.1L370.4,472.1L385.2,472.1L385.2,475.5L374.4,475.5L374.4,479.9L384.4,479.9L384.4,483.3L374.4,483.3L374.4,488.7L385.5,488.7L385.5,492.1L370.3,492.1L370.4,492.1ZM375.5,471L377.4,466.9L381.7,466.9L378,471L375.5,471Z" style="fill:rgb(242,242,242);fill-rule:nonzero;"/>
        <path d="M398.3,484.7L398.3,481.3L407,481.3L407,489.2C406.2,490 404.9,490.7 403.3,491.4C401.7,492 400.1,492.3 398.4,492.3C396.7,492.3 394.5,491.9 392.9,491C391.4,490.1 390.2,488.9 389.4,487.2C388.6,485.6 388.2,483.8 388.2,481.9C388.2,480 388.6,478 389.5,476.4C390.4,474.8 391.6,473.5 393.3,472.7C394.6,472 396.2,471.7 398.1,471.7C400,471.7 402.5,472.2 403.9,473.3C405.3,474.3 406.2,475.8 406.6,477.6L402.6,478.3C402.3,477.3 401.8,476.5 401,476C400.2,475.5 399.3,475.1 398.1,475.1C396.3,475.1 394.9,475.7 393.9,476.8C392.9,477.9 392.3,479.6 392.3,481.8C392.3,484 392.8,485.9 393.9,487.1C395,488.3 396.3,488.9 398,488.9C399.7,488.9 399.7,488.7 400.5,488.4C401.3,488.1 402.1,487.7 402.7,487.2L402.7,484.7L398.1,484.7L398.3,484.7Z" style="fill:rgb(242,242,242);fill-rule:nonzero;"/>
        <rect x="410.5" y="472.1" width="4" height="19.9" style="fill:rgb(242,242,242);fill-rule:nonzero;"/>
        <path d="M431.2,484.7L435.1,485.9C434.5,488.1 433.5,489.7 432.1,490.7C430.7,491.8 428.9,492.3 426.8,492.3C424.7,492.3 422,491.4 420.3,489.6C418.6,487.8 417.7,485.3 417.7,482.2C417.7,479.1 418.6,476.3 420.3,474.5C422,472.7 424.3,471.7 427.1,471.7C429.9,471.7 431.5,472.4 433,473.9C434.5,475.4 434.6,476 435,477.6L431,478.6C430.8,477.6 430.3,476.8 429.5,476.2C428.8,475.6 427.8,475.3 426.8,475.3C425.8,475.3 424.1,475.8 423.2,476.9C422.3,478 421.8,479.7 421.8,482.1C421.8,484.5 422.3,486.4 423.2,487.5C424.1,488.6 425.3,489.1 426.7,489.1C428.1,489.1 428.7,488.8 429.5,488.1C430.3,487.4 430.8,486.4 431.2,484.9L431.2,484.7Z" style="fill:rgb(242,242,242);fill-rule:nonzero;"/>
        <path d="M456.6,492L452.1,492L450.4,487.5L442.4,487.5L440.8,492L436.5,492L444.3,472.1L448.6,472.1L456.6,492ZM449.1,484.2L446.4,476.8L443.7,484.2L449.1,484.2Z" style="fill:rgb(242,242,242);fill-rule:nonzero;"/>
        <path d="M465.3,472.1L472.7,472.1C474.4,472.1 475.6,472.2 476.5,472.5C477.7,472.8 478.7,473.5 479.5,474.3C480.3,475.2 481,476.3 481.4,477.5C481.8,478.8 482.1,480.3 482.1,482.2C482.1,484.1 481.9,485.3 481.5,486.4C481,487.9 480.3,489 479.4,489.9C478.7,490.6 477.8,491.1 476.6,491.5C475.7,491.8 474.5,491.9 473,491.9L465.4,491.9L465.4,472L465.3,472.1ZM469.3,475.5L469.3,488.7L472.3,488.7C473.4,488.7 474.2,488.7 474.7,488.5C475.4,488.3 475.9,488.1 476.3,487.7C476.7,487.3 477.1,486.7 477.4,485.8C477.7,484.9 477.8,483.7 477.8,482.1C477.8,480.5 477.7,479.4 477.4,478.6C477.1,477.8 476.7,477.1 476.3,476.7C475.9,476.3 475.2,475.9 474.4,475.8C473.8,475.7 472.7,475.6 471.1,475.6L469.3,475.6L469.3,475.5Z" style="fill:rgb(242,242,242);fill-rule:nonzero;"/>
        <path d="M485.4,492.1L485.4,472.1L500.2,472.1L500.2,475.5L489.4,475.5L489.4,479.9L499.4,479.9L499.4,483.3L489.4,483.3L489.4,488.7L500.5,488.7L500.5,492.1L485.3,492.1L485.4,492.1Z" style="fill:rgb(242,242,242);fill-rule:nonzero;"/>
        <path d="M510.7,485.6L514.6,485.2C514.8,486.5 515.3,487.5 516,488.1C516.7,488.7 517.7,489 518.9,489C520.1,489 521.2,488.7 521.8,488.2C522.4,487.7 522.8,487 522.8,486.3C522.8,485.6 522.8,485.4 522.4,485.1C522.1,484.8 521.6,484.5 521,484.2C520.5,484 519.5,483.7 517.8,483.3C515.6,482.8 514.1,482.1 513.3,481.3C512.1,480.2 511.5,478.9 511.5,477.3C511.5,475.7 511.8,475.3 512.4,474.5C513,473.6 513.8,472.9 514.9,472.5C516,472 517.3,471.8 518.8,471.8C521.3,471.8 523.2,472.3 524.5,473.4C525.8,474.5 526.4,476 526.5,477.8L522.5,478C522.3,477 522,476.2 521.4,475.8C520.8,475.4 520,475.1 518.8,475.1C517.6,475.1 516.7,475.3 516.1,475.8C515.7,476.1 515.5,476.5 515.5,477C515.5,477.5 515.7,477.9 516.1,478.2C516.6,478.6 517.8,479.1 519.8,479.5C521.8,480 523.2,480.4 524.1,480.9C525,481.4 525.8,482.1 526.3,482.9C526.8,483.8 527.1,484.8 527.1,486.1C527.1,487.4 526.8,488.3 526.1,489.3C525.5,490.3 524.6,491 523.4,491.5C522.2,492 520.8,492.2 519.1,492.2C516.6,492.2 514.6,491.6 513.3,490.5C511.9,489.3 511.1,487.6 510.9,485.4L510.7,485.6Z" style="fill:rgb(242,242,242);fill-rule:nonzero;"/>
        <path d="M530.3,492.1L530.3,472.1L545.1,472.1L545.1,475.5L534.3,475.5L534.3,479.9L544.3,479.9L544.3,483.3L534.3,483.3L534.3,488.7L545.4,488.7L545.4,492.1L530.2,492.1L530.3,492.1Z" style="fill:rgb(242,242,242);fill-rule:nonzero;"/>
        <path d="M548.9,492L548.9,472.1L557.4,472.1C559.5,472.1 561.1,472.3 562,472.6C563,473 563.7,473.6 564.3,474.5C564.9,475.4 565.2,476.5 565.2,477.6C565.2,478.7 564.8,480.3 563.9,481.3C563,482.3 561.7,482.9 560,483.1C560.9,483.6 561.6,484.2 562.2,484.8C562.8,485.4 563.5,486.5 564.5,488L566.9,491.9L562.1,491.9L559.2,487.6C558.2,486 557.5,485.1 557.1,484.7C556.7,484.3 556.3,484 555.9,483.9C555.5,483.8 554.8,483.7 553.9,483.7L553.1,483.7L553.1,492L548.9,492ZM553,480.5L556,480.5C557.9,480.5 559.1,480.5 559.6,480.3C560.1,480.1 560.5,479.9 560.7,479.5C561,479.1 561.1,478.6 561.1,478C561.1,477.4 560.9,476.8 560.6,476.4C560.2,476 559.7,475.7 559.1,475.6L553.1,475.6L553.1,480.7L553.1,480.5L553,480.5Z" style="fill:rgb(242,242,242);fill-rule:nonzero;"/>
        <path d="M573.6,492L566.5,472.1L570.9,472.1L575.9,486.9L580.8,472.1L585.1,472.1L578,492L573.6,492Z" style="fill:rgb(242,242,242);fill-rule:nonzero;"/>
        <rect x="587" y="472.1" width="4" height="19.9" style="fill:rgb(242,242,242);fill-rule:nonzero;"/>
        <path d="M607.6,484.7L611.5,485.9C610.9,488.1 609.9,489.7 608.5,490.7C607.1,491.8 605.3,492.3 603.2,492.3C601.1,492.3 598.4,491.4 596.7,489.6C595,487.8 594.1,485.3 594.1,482.2C594.1,479.1 595,476.3 596.7,474.5C598.4,472.7 600.7,471.7 603.5,471.7C606.3,471.7 607.9,472.4 609.4,473.9C610.3,474.8 611,476 611.4,477.6L607.4,478.6C607.2,477.6 606.7,476.8 605.9,476.2C605.2,475.6 604.2,475.3 603.2,475.3C602.2,475.3 600.5,475.8 599.6,476.9C598.7,478 598.2,479.7 598.2,482.1C598.2,484.5 598.7,486.4 599.6,487.5C600.5,488.6 601.7,489.1 603.1,489.1C604.5,489.1 605.1,488.8 605.9,488.1C606.7,487.4 607.2,486.4 607.6,484.9L607.6,484.7Z" style="fill:rgb(242,242,242);fill-rule:nonzero;"/>
        <rect x="614.8" y="472.1" width="4" height="19.9" style="fill:rgb(242,242,242);fill-rule:nonzero;"/>
        <path d="M621.9,482.2C621.9,480.2 622.2,478.5 622.8,477.1C623.3,476.1 623.9,475.2 624.7,474.4C625.5,473.6 626.3,473 627.3,472.6C628.5,472.1 630,471.8 631.6,471.8C634.5,471.8 636.9,472.7 638.7,474.5C640.5,476.3 641.3,478.9 641.3,482.1C641.3,485.3 640.4,487.8 638.7,489.7C636.9,491.5 634.6,492.4 631.7,492.4C628.8,492.4 626.4,491.5 624.6,489.7C622.8,487.9 622,485.4 622,482.2L621.9,482.2ZM626,482.1C626,484.4 626.5,486.1 627.6,487.2C628.6,488.4 630,488.9 631.6,488.9C633.2,488.9 634.5,488.3 635.6,487.2C636.6,486 637.1,484.3 637.1,482C637.1,479.7 636.6,478 635.6,476.9C634.6,475.8 633.3,475.2 631.6,475.2C629.9,475.2 628.6,475.8 627.6,476.9C626.6,478 626.1,479.8 626.1,482L626,482.1Z" style="fill:rgb(242,242,242);fill-rule:nonzero;"/>
        <path d="M643.3,485.6L647.2,485.2C647.4,486.5 647.9,487.5 648.6,488.1C649.3,488.7 650.3,489 651.5,489C652.7,489 653.8,488.7 654.4,488.2C655,487.7 655.4,487 655.4,486.3C655.4,485.6 655.4,485.4 655,485.1C654.7,484.8 654.2,484.5 653.6,484.2C653.1,484 652.1,483.7 650.4,483.3C648.2,482.8 646.7,482.1 645.9,481.3C644.7,480.2 644.1,478.9 644.1,477.3C644.1,475.7 644.4,475.3 645,474.5C645.6,473.6 646.4,472.9 647.5,472.5C648.6,472 649.9,471.8 651.4,471.8C653.9,471.8 655.8,472.3 657.1,473.4C658.4,474.5 659,476 659.1,477.8L655.1,478C654.9,477 654.6,476.2 654,475.8C653.4,475.4 652.6,475.1 651.4,475.1C650.2,475.1 649.3,475.3 648.7,475.8C648.3,476.1 648.1,476.5 648.1,477C648.1,477.5 648.3,477.9 648.7,478.2C649.2,478.6 650.4,479.1 652.4,479.5C654.4,480 655.8,480.4 656.7,480.9C657.6,481.4 658.4,482.1 658.9,482.9C659.4,483.8 659.7,484.8 659.7,486.1C659.7,487.4 659.4,488.3 658.7,489.3C658.1,490.3 657.2,491 656,491.5C654.8,492 653.4,492.2 651.7,492.2C649.2,492.2 647.2,491.6 645.9,490.5C644.5,489.3 643.7,487.6 643.5,485.4L643.3,485.6Z" style="fill:rgb(242,242,242);fill-rule:nonzero;"/>
        <path d="M651.9,327.2L664.6,306.5C664.6,306.5 640.3,284.7 614.6,293.5C588.9,302.3 582.3,317 588.1,340.2C589.2,346 597.6,358.5 619.5,363.4C648.9,370 646.6,391.6 633.2,394.9C613.9,399.7 595.3,381.2 595.3,381.2L577.6,398C577.6,398 593.6,415.1 615.7,419C637.8,422.9 651.9,412.6 651.9,412.6C651.9,412.6 686.7,383.9 652.7,354C652.7,354 640.4,345.7 619.8,339.1C619.8,339.1 599.8,331.5 616.2,317.8C627.8,308.1 651.9,327.2 651.9,327.2" style="fill:rgb(242,242,242);fill-rule:nonzero;"/>
        <rect x="475.6" y="293.5" width="82.1" height="24" style="fill:rgb(242,242,242);"/>
        <rect x="475.6" y="393.3" width="81.2" height="24" style="fill:rgb(242,242,242);"/>
        <rect x="475.6" y="341.2" width="68.1" height="24" style="fill:rgb(242,242,242);"/>
    </g>
</svg>
