<?xml version="1.0" encoding="UTF-8" standalone="no"?>
<!DOCTYPE svg PUBLIC "-//W3C//DTD SVG 1.1//EN" "http://www.w3.org/Graphics/SVG/1.1/DTD/svg11.dtd">
<svg width="100%" height="100%" viewBox="0 0 668 237" version="1.1" xmlns="http://www.w3.org/2000/svg" xmlns:xlink="http://www.w3.org/1999/xlink" xml:space="preserve" xmlns:serif="http://www.serif.com/" style="fill-rule:evenodd;clip-rule:evenodd;stroke-linejoin:round;stroke-miterlimit:2;">
    <path d="M44.8,98.5L44.8,117.3L44.3,117.8C39.4,122.4 33,125 26.3,125C11.8,125 -0,113.2 -0,98.6C-0,84 11.8,72.2 26.3,72.2C40.8,72.2 38.1,74.3 42.7,78L43.8,78.9L40.7,82.8L39.6,81.9C35.8,78.9 31.1,77.2 26.3,77.2C14.5,77.2 5,86.8 5,98.6C5,110.4 14.6,120 26.3,120C38,120 36.1,118.3 39.9,115.1L39.9,103.5L25.1,103.5L25.1,98.5L44.9,98.5L44.8,98.5Z" style="fill:rgb(31,41,64);fill-rule:nonzero;"/>
    <path d="M96.6,123.8L82.2,104.5L70.8,104.5L70.8,123.8L65.8,123.8L65.8,73.5L86.6,73.5C94.9,73.5 101.6,80.2 101.6,88.4L101.6,89.5C101.6,97.1 95.8,103.5 88.3,104.3L102.7,123.7L96.4,123.7L96.6,123.7L96.6,123.8ZM70.9,99.6L86.7,99.6C92.2,99.6 96.8,95.1 96.8,89.6L96.8,88.5C96.8,83 92.3,78.5 86.7,78.5L70.9,78.5L70.9,99.6Z" style="fill:rgb(31,41,64);fill-rule:nonzero;"/>
    <path d="M159.7,73.5L159.7,107.2C159.7,117.1 154.1,123.9 145,125L137.7,125C128.6,124 123,117.2 123,107.2L123,73.5L128,73.5L128,107.2C128,114.6 131.7,119.2 138.2,120L144.6,120C151.1,119.1 154.8,114.5 154.8,107.2L154.8,73.5L159.8,73.5L159.7,73.5Z" style="fill:rgb(31,41,64);fill-rule:nonzero;"/>
    <path d="M216.6,88.4L216.6,89.6C216.6,97.8 209.9,104.5 201.6,104.5L186.8,104.5L186.8,123.8L181.8,123.8L181.8,73.5L201.6,73.5C209.9,73.5 216.6,80.2 216.6,88.4ZM211.7,89.6L211.7,88.5C211.7,83 207.2,78.5 201.6,78.5L186.8,78.5L186.8,99.6L201.6,99.6C207.1,99.6 211.7,95.1 211.7,89.6Z" style="fill:rgb(31,41,64);fill-rule:nonzero;"/>
    <path d="M286.8,98.6C286.8,113.2 274.9,125 260.4,125C245.9,125 234,113.1 234,98.6C234,84.1 245.9,72.2 260.4,72.2C274.9,72.2 286.8,84.1 286.8,98.6ZM281.9,98.6C281.9,86.8 272.3,77.1 260.4,77.1C248.5,77.1 238.9,86.7 238.9,98.6C238.9,110.5 248.5,120.1 260.4,120.1C272.3,120.1 281.9,110.5 281.9,98.6Z" style="fill:rgb(31,41,64);fill-rule:nonzero;"/>
    <rect x="305.5" y="0" width="5.9" height="199.9" style="fill:rgb(185,53,41);"/>
    <path d="M398.9,37.3L391.2,37.3L328.3,161.1L357.2,161.1L394.2,86.5L429.9,161.1L458.1,161.1L398.9,37.3Z" style="fill:rgb(31,41,64);fill-rule:nonzero;"/>
    <path d="M26.9,235.8L22.4,235.8L20.7,231.3L12.7,231.3L11.1,235.8L6.8,235.8L14.6,215.9L18.9,215.9L26.9,235.8ZM19.4,228L16.7,220.6L14,228L19.4,228Z" style="fill:rgb(31,41,64);fill-rule:nonzero;"/>
    <path d="M29,215.9L36.4,215.9C38.1,215.9 39.3,216 40.2,216.3C41.4,216.6 42.4,217.3 43.2,218.1C44,219 44.7,220.1 45.1,221.3C45.5,222.6 45.8,224.1 45.8,226C45.8,227.9 45.6,229.1 45.2,230.2C44.7,231.7 44,232.8 43.1,233.7C42.4,234.4 41.5,234.9 40.3,235.3C39.4,235.6 38.2,235.7 36.7,235.7L29.1,235.7L29.1,215.8L29,215.8L29,215.9ZM33,219.3L33,232.5L36,232.5C37.1,232.5 37.9,232.5 38.4,232.3C39.1,232.1 39.6,231.9 40,231.5C40.4,231.1 40.8,230.5 41.1,229.6C41.4,228.7 41.5,227.5 41.5,225.9C41.5,224.3 41.5,223.2 41.1,222.4C40.8,221.6 40.4,220.9 40,220.5C39.5,220 38.9,219.7 38.1,219.6C37.5,219.5 36.4,219.4 34.8,219.4L33,219.4L33,219.3Z" style="fill:rgb(31,41,64);fill-rule:nonzero;"/>
    <path d="M49,235.8L49,215.9L55,215.9L58.6,229.5L62.2,215.9L68.2,215.9L68.2,235.8L64.5,235.8L64.5,220.1L60.5,235.8L56.6,235.8L52.7,220.1L52.7,235.8L49,235.8Z" style="fill:rgb(31,41,64);fill-rule:nonzero;"/>
    <rect x="72.2" y="215.9" width="4" height="19.9" style="fill:rgb(31,41,64);fill-rule:nonzero;"/>
    <path d="M80.1,235.8L80.1,215.9L84,215.9L92.2,229.2L92.2,215.9L95.9,215.9L95.9,235.8L91.9,235.8L83.9,222.8L83.9,235.8L80.1,235.8Z" style="fill:rgb(31,41,64);fill-rule:nonzero;"/>
    <rect x="100" y="215.9" width="4" height="19.9" style="fill:rgb(31,41,64);fill-rule:nonzero;"/>
    <path d="M106.9,229.4L110.8,229C111,230.3 111.5,231.3 112.2,231.9C112.9,232.5 113.9,232.8 115.1,232.8C116.3,232.8 117.4,232.5 118,232C118.7,231.5 119,230.8 119,230.1C119,229.4 119,229.2 118.6,228.9C118.2,228.6 117.8,228.3 117.2,228C116.7,227.8 115.7,227.5 114,227.1C111.8,226.6 110.3,225.9 109.5,225.1C108.3,224 107.7,222.7 107.7,221.1C107.7,219.5 108,219.1 108.6,218.3C109.2,217.4 110,216.7 111.1,216.3C112.2,215.8 113.5,215.6 115,215.6C117.5,215.6 119.4,216.1 120.7,217.2C122,218.3 122.6,219.8 122.7,221.6L118.7,221.8C118.5,220.8 118.2,220 117.6,219.6C117,219.2 116.2,218.9 115.1,218.9C114,218.9 113,219.1 112.4,219.6C112,219.9 111.8,220.3 111.8,220.8C111.8,221.3 112,221.7 112.4,222C112.9,222.4 114.1,222.9 116.1,223.3C118.1,223.8 119.5,224.2 120.4,224.7C121.3,225.2 122.1,225.9 122.6,226.7C123.1,227.6 123.4,228.6 123.4,229.9C123.4,231.2 123.1,232.1 122.4,233.1C121.8,234.1 120.9,234.8 119.7,235.3C118.5,235.8 117.1,236 115.4,236C112.9,236 110.9,235.4 109.6,234.3C108.2,233.1 107.4,231.4 107.2,229.2L106.9,229.4Z" style="fill:rgb(31,41,64);fill-rule:nonzero;"/>
    <path d="M130.9,235.8L130.9,219.2L125,219.2L125,215.8L140.8,215.8L140.8,219.2L134.9,219.2L134.9,235.8L130.9,235.8Z" style="fill:rgb(31,41,64);fill-rule:nonzero;"/>
    <path d="M143.5,235.8L143.5,215.9L152,215.9C154.1,215.9 155.7,216.1 156.6,216.4C157.6,216.8 158.3,217.4 158.9,218.3C159.5,219.2 159.8,220.3 159.8,221.4C159.8,222.5 159.4,224.1 158.5,225.1C157.6,226.1 156.3,226.7 154.6,226.9C155.5,227.4 156.2,228 156.8,228.6C157.4,229.2 158.1,230.3 159.1,231.8L161.5,235.7L156.7,235.7L153.8,231.4C152.8,229.8 152.1,228.9 151.7,228.5C151.3,228.1 150.9,227.8 150.5,227.7C150.1,227.6 149.4,227.5 148.5,227.5L147.7,227.5L147.7,235.8L143.5,235.8ZM147.5,224.3L150.5,224.3C152.4,224.3 153.6,224.3 154.1,224.1C154.6,223.9 155,223.7 155.2,223.3C155.5,222.9 155.6,222.4 155.6,221.8C155.6,221.2 155.4,220.6 155.1,220.2C154.7,219.8 154.2,219.5 153.6,219.4L147.6,219.4L147.6,224.5L147.6,224.3L147.5,224.3Z" style="fill:rgb(31,41,64);fill-rule:nonzero;"/>
    <path d="M181.7,235.8L177.2,235.8L175.5,231.3L167.5,231.3L165.9,235.8L161.6,235.8L169.4,215.9L173.7,215.9L181.7,235.8ZM174.1,228L171.4,220.6L168.7,228L174.1,228Z" style="fill:rgb(31,41,64);fill-rule:nonzero;"/>
    <path d="M196.5,228.5L200.4,229.7C199.8,231.9 198.8,233.5 197.4,234.5C196,235.6 194.2,236.1 192.1,236.1C190,236.1 187.3,235.2 185.6,233.4C183.9,231.6 183,229.1 183,226C183,222.9 183.9,220.1 185.6,218.3C187.3,216.5 189.6,215.5 192.4,215.5C195.2,215.5 196.8,216.2 198.3,217.7C199.8,219.2 199.9,219.8 200.3,221.4L196.3,222.4C196.1,221.4 195.6,220.6 194.8,220C194.1,219.4 193.1,219.1 192.1,219.1C191.1,219.1 189.4,219.6 188.5,220.7C187.6,221.8 187.1,223.5 187.1,225.9C187.1,228.3 187.6,230.2 188.5,231.3C189.4,232.4 190.6,232.9 192,232.9C193.4,232.9 194,232.6 194.8,231.9C195.6,231.2 196.1,230.2 196.5,228.7L196.5,228.5Z" style="fill:rgb(31,41,64);fill-rule:nonzero;"/>
    <rect x="203.7" y="215.9" width="4" height="19.9" style="fill:rgb(31,41,64);fill-rule:nonzero;"/>
    <path d="M210.7,226C210.7,224 211,222.3 211.6,220.9C212.1,219.9 212.7,219 213.5,218.2C214.3,217.4 215.1,216.8 216.1,216.4C217.3,215.9 218.8,215.6 220.4,215.6C223.3,215.6 225.7,216.5 227.5,218.3C229.3,220.1 230.1,222.7 230.1,225.9C230.1,229.1 229.2,231.6 227.5,233.5C225.8,235.3 223.4,236.2 220.5,236.2C217.6,236.2 215.2,235.3 213.4,233.5C211.7,231.7 210.8,229.2 210.8,226L210.7,226ZM214.9,225.9C214.9,228.2 215.4,229.9 216.5,231C217.5,232.2 218.9,232.7 220.5,232.7C222.1,232.7 223.4,232.1 224.5,231C225.5,229.8 226,228.1 226,225.8C226,223.5 225.5,221.8 224.5,220.7C223.5,219.6 222.2,219 220.5,219C218.8,219 217.5,219.6 216.5,220.7C215.5,221.8 215,223.6 215,225.8L214.9,225.8L214.9,225.9ZM217.9,214.8L219.8,210.7L224.1,210.7L220.4,214.8L217.9,214.8Z" style="fill:rgb(31,41,64);fill-rule:nonzero;"/>
    <path d="M233.3,235.8L233.3,215.9L237.2,215.9L245.4,229.2L245.4,215.9L249.1,215.9L249.1,235.8L245.1,235.8L237.1,222.8L237.1,235.8L233.3,235.8Z" style="fill:rgb(31,41,64);fill-rule:nonzero;"/>
    <path d="M261.1,235.9L261.1,215.9L275.9,215.9L275.9,219.3L265.1,219.3L265.1,223.7L275.1,223.7L275.1,227.1L265.1,227.1L265.1,232.5L276.2,232.5L276.2,235.9L261,235.9L261.1,235.9Z" style="fill:rgb(31,41,64);fill-rule:nonzero;"/>
    <path d="M278.6,229.4L282.5,229C282.7,230.3 283.2,231.3 283.9,231.9C284.6,232.5 285.6,232.8 286.8,232.8C288,232.8 289.1,232.5 289.7,232C290.4,231.5 290.7,230.8 290.7,230.1C290.7,229.4 290.6,229.2 290.3,228.9C290,228.6 289.5,228.3 288.9,228C288.4,227.8 287.4,227.5 285.7,227.1C283.5,226.6 282,225.9 281.2,225.1C280,224 279.4,222.7 279.4,221.1C279.4,219.5 279.7,219.1 280.3,218.3C280.9,217.4 281.7,216.7 282.8,216.3C283.9,215.8 285.2,215.6 286.7,215.6C289.2,215.6 291.1,216.1 292.4,217.2C293.7,218.3 294.3,219.8 294.4,221.6L290.4,221.8C290.2,220.8 289.9,220 289.3,219.6C288.7,219.2 287.9,218.9 286.8,218.9C285.7,218.9 284.7,219.1 284.1,219.6C283.7,219.9 283.5,220.3 283.5,220.8C283.5,221.3 283.7,221.7 284.1,222C284.6,222.4 285.8,222.9 287.8,223.3C289.8,223.8 291.2,224.2 292.1,224.7C293,225.2 293.8,225.9 294.3,226.7C294.8,227.6 295.1,228.6 295.1,229.9C295.1,231.2 294.8,232.1 294.1,233.1C293.5,234.1 292.6,234.8 291.4,235.3C290.2,235.8 288.8,236 287.1,236C284.6,236 282.6,235.4 281.3,234.3C279.9,233.1 279.1,231.4 278.9,229.2L278.6,229.4Z" style="fill:rgb(31,41,64);fill-rule:nonzero;"/>
    <path d="M302.7,235.8L302.7,219.2L296.8,219.2L296.8,215.8L312.6,215.8L312.6,219.2L306.7,219.2L306.7,235.8L302.7,235.8Z" style="fill:rgb(31,41,64);fill-rule:nonzero;"/>
    <path d="M315.2,235.8L315.2,215.9L323.7,215.9C325.8,215.9 327.4,216.1 328.3,216.4C329.3,216.8 330,217.4 330.6,218.3C331.2,219.2 331.5,220.3 331.5,221.4C331.5,222.5 331.1,224.1 330.2,225.1C329.3,226.1 328,226.7 326.3,226.9C327.2,227.4 327.9,228 328.5,228.6C329.1,229.2 329.8,230.3 330.8,231.8L333.2,235.7L328.4,235.7L325.5,231.4C324.5,229.8 323.8,228.9 323.4,228.5C323,228.1 322.6,227.8 322.2,227.7C321.8,227.6 321.1,227.5 320.2,227.5L319.4,227.5L319.4,235.8L315.2,235.8ZM319.3,224.3L322.3,224.3C324.2,224.3 325.4,224.3 325.9,224.1C326.4,223.9 326.8,223.7 327,223.3C327.3,222.9 327.4,222.4 327.4,221.8C327.4,221.2 327.2,220.6 326.9,220.2C326.5,219.8 326,219.5 325.4,219.4L319.4,219.4L319.4,224.5L319.4,224.3L319.3,224.3Z" style="fill:rgb(31,41,64);fill-rule:nonzero;"/>
    <path d="M353.4,235.8L348.9,235.8L347.2,231.3L339.2,231.3L337.6,235.8L333.3,235.8L341.1,215.9L345.4,215.9L353.4,235.8ZM345.9,228L343.2,220.6L340.5,228L345.9,228Z" style="fill:rgb(31,41,64);fill-rule:nonzero;"/>
    <path d="M357.9,235.8L357.9,219.2L352,219.2L352,215.8L367.8,215.8L367.8,219.2L361.9,219.2L361.9,235.8L357.9,235.8Z" style="fill:rgb(31,41,64);fill-rule:nonzero;"/>
    <path d="M370.4,235.9L370.4,215.9L385.2,215.9L385.2,219.3L374.4,219.3L374.4,223.7L384.4,223.7L384.4,227.1L374.4,227.1L374.4,232.5L385.5,232.5L385.5,235.9L370.3,235.9L370.4,235.9ZM375.5,214.8L377.4,210.7L381.7,210.7L378,214.8L375.5,214.8Z" style="fill:rgb(31,41,64);fill-rule:nonzero;"/>
    <path d="M398.3,228.5L398.3,225.1L407,225.1L407,233C406.2,233.8 404.9,234.5 403.3,235.2C401.7,235.8 400.1,236.1 398.4,236.1C396.7,236.1 394.5,235.7 392.9,234.8C391.4,233.9 390.2,232.7 389.4,231C388.6,229.4 388.2,227.6 388.2,225.7C388.2,223.8 388.6,221.8 389.5,220.2C390.4,218.6 391.6,217.3 393.3,216.5C394.6,215.8 396.2,215.5 398.1,215.5C400,215.5 402.5,216 403.9,217.1C405.3,218.1 406.2,219.6 406.6,221.4L402.6,222.1C402.3,221.1 401.8,220.3 401,219.8C400.2,219.3 399.3,218.9 398.1,218.9C396.3,218.9 394.9,219.5 393.9,220.6C392.9,221.7 392.3,223.4 392.3,225.6C392.3,227.8 392.8,229.7 393.9,230.9C395,232.1 396.3,232.7 398,232.7C399.7,232.7 399.7,232.5 400.5,232.2C401.3,231.9 402.1,231.5 402.7,231L402.7,228.5L398.1,228.5L398.3,228.5Z" style="fill:rgb(31,41,64);fill-rule:nonzero;"/>
    <rect x="410.5" y="215.9" width="4" height="19.9" style="fill:rgb(31,41,64);fill-rule:nonzero;"/>
    <path d="M431.2,228.5L435.1,229.7C434.5,231.9 433.5,233.5 432.1,234.5C430.7,235.6 428.9,236.1 426.8,236.1C424.7,236.1 422,235.2 420.3,233.4C418.6,231.6 417.7,229.1 417.7,226C417.7,222.9 418.6,220.1 420.3,218.3C422,216.5 424.3,215.5 427.1,215.5C429.9,215.5 431.5,216.2 433,217.7C434.5,219.2 434.6,219.8 435,221.4L431,222.4C430.8,221.4 430.3,220.6 429.5,220C428.8,219.4 427.8,219.1 426.8,219.1C425.8,219.1 424.1,219.6 423.2,220.7C422.3,221.8 421.8,223.5 421.8,225.9C421.8,228.3 422.3,230.2 423.2,231.3C424.1,232.4 425.3,232.9 426.7,232.9C428.1,232.9 428.7,232.6 429.5,231.9C430.3,231.2 430.8,230.2 431.2,228.7L431.2,228.5Z" style="fill:rgb(31,41,64);fill-rule:nonzero;"/>
    <path d="M456.6,235.8L452.1,235.8L450.4,231.3L442.4,231.3L440.8,235.8L436.5,235.8L444.3,215.9L448.6,215.9L456.6,235.8ZM449.1,228L446.4,220.6L443.7,228L449.1,228Z" style="fill:rgb(31,41,64);fill-rule:nonzero;"/>
    <path d="M465.3,215.9L472.7,215.9C474.4,215.9 475.6,216 476.5,216.3C477.7,216.6 478.7,217.3 479.5,218.1C480.3,219 481,220.1 481.4,221.3C481.8,222.6 482.1,224.1 482.1,226C482.1,227.9 481.9,229.1 481.5,230.2C481,231.7 480.3,232.8 479.4,233.7C478.7,234.4 477.8,234.9 476.6,235.3C475.7,235.6 474.5,235.7 473,235.7L465.4,235.7L465.4,215.8L465.3,215.9ZM469.3,219.3L469.3,232.5L472.3,232.5C473.4,232.5 474.2,232.5 474.7,232.3C475.4,232.1 475.9,231.9 476.3,231.5C476.7,231.1 477.1,230.5 477.4,229.6C477.7,228.7 477.8,227.5 477.8,225.9C477.8,224.3 477.7,223.2 477.4,222.4C477.1,221.6 476.7,220.9 476.3,220.5C475.9,220.1 475.2,219.7 474.4,219.6C473.8,219.5 472.7,219.4 471.1,219.4L469.3,219.4L469.3,219.3Z" style="fill:rgb(31,41,64);fill-rule:nonzero;"/>
    <path d="M485.4,235.9L485.4,215.9L500.2,215.9L500.2,219.3L489.4,219.3L489.4,223.7L499.4,223.7L499.4,227.1L489.4,227.1L489.4,232.5L500.5,232.5L500.5,235.9L485.3,235.9L485.4,235.9Z" style="fill:rgb(31,41,64);fill-rule:nonzero;"/>
    <path d="M510.7,229.4L514.6,229C514.8,230.3 515.3,231.3 516,231.9C516.7,232.5 517.7,232.8 518.9,232.8C520.1,232.8 521.2,232.5 521.8,232C522.4,231.5 522.8,230.8 522.8,230.1C522.8,229.4 522.8,229.2 522.4,228.9C522.1,228.6 521.6,228.3 521,228C520.5,227.8 519.5,227.5 517.8,227.1C515.6,226.6 514.1,225.9 513.3,225.1C512.1,224 511.5,222.7 511.5,221.1C511.5,219.5 511.8,219.1 512.4,218.3C513,217.4 513.8,216.7 514.9,216.3C516,215.8 517.3,215.6 518.8,215.6C521.3,215.6 523.2,216.1 524.5,217.2C525.8,218.3 526.4,219.8 526.5,221.6L522.5,221.8C522.3,220.8 522,220 521.4,219.6C520.8,219.2 520,218.9 518.8,218.9C517.6,218.9 516.7,219.1 516.1,219.6C515.7,219.9 515.5,220.3 515.5,220.8C515.5,221.3 515.7,221.7 516.1,222C516.6,222.4 517.8,222.9 519.8,223.3C521.8,223.8 523.2,224.2 524.1,224.7C525,225.2 525.8,225.9 526.3,226.7C526.8,227.6 527.1,228.6 527.1,229.9C527.1,231.2 526.8,232.1 526.1,233.1C525.5,234.1 524.6,234.8 523.4,235.3C522.2,235.8 520.8,236 519.1,236C516.6,236 514.6,235.4 513.3,234.3C511.9,233.1 511.1,231.4 510.9,229.2L510.7,229.4Z" style="fill:rgb(31,41,64);fill-rule:nonzero;"/>
    <path d="M530.3,235.9L530.3,215.9L545.1,215.9L545.1,219.3L534.3,219.3L534.3,223.7L544.3,223.7L544.3,227.1L534.3,227.1L534.3,232.5L545.4,232.5L545.4,235.9L530.2,235.9L530.3,235.9Z" style="fill:rgb(31,41,64);fill-rule:nonzero;"/>
    <path d="M548.9,235.8L548.9,215.9L557.4,215.9C559.5,215.9 561.1,216.1 562,216.4C563,216.8 563.7,217.4 564.3,218.3C564.9,219.2 565.2,220.3 565.2,221.4C565.2,222.5 564.8,224.1 563.9,225.1C563,226.1 561.7,226.7 560,226.9C560.9,227.4 561.6,228 562.2,228.6C562.8,229.2 563.5,230.3 564.5,231.8L566.9,235.7L562.1,235.7L559.2,231.4C558.2,229.8 557.5,228.9 557.1,228.5C556.7,228.1 556.3,227.8 555.9,227.7C555.5,227.6 554.8,227.5 553.9,227.5L553.1,227.5L553.1,235.8L548.9,235.8ZM553,224.3L556,224.3C557.9,224.3 559.1,224.3 559.6,224.1C560.1,223.9 560.5,223.7 560.7,223.3C561,222.9 561.1,222.4 561.1,221.8C561.1,221.2 560.9,220.6 560.6,220.2C560.2,219.8 559.7,219.5 559.1,219.4L553.1,219.4L553.1,224.5L553.1,224.3L553,224.3Z" style="fill:rgb(31,41,64);fill-rule:nonzero;"/>
    <path d="M573.6,235.8L566.5,215.9L570.9,215.9L575.9,230.7L580.8,215.9L585.1,215.9L578,235.8L573.6,235.8Z" style="fill:rgb(31,41,64);fill-rule:nonzero;"/>
    <rect x="587" y="215.9" width="4" height="19.9" style="fill:rgb(31,41,64);fill-rule:nonzero;"/>
    <path d="M607.6,228.5L611.5,229.7C610.9,231.9 609.9,233.5 608.5,234.5C607.1,235.6 605.3,236.1 603.2,236.1C601.1,236.1 598.4,235.2 596.7,233.4C595,231.6 594.1,229.1 594.1,226C594.1,222.9 595,220.1 596.7,218.3C598.4,216.5 600.7,215.5 603.5,215.5C606.3,215.5 607.9,216.2 609.4,217.7C610.3,218.6 611,219.8 611.4,221.4L607.4,222.4C607.2,221.4 606.7,220.6 605.9,220C605.2,219.4 604.2,219.1 603.2,219.1C602.2,219.1 600.5,219.6 599.6,220.7C598.7,221.8 598.2,223.5 598.2,225.9C598.2,228.3 598.7,230.2 599.6,231.3C600.5,232.4 601.7,232.9 603.1,232.9C604.5,232.9 605.1,232.6 605.9,231.9C606.7,231.2 607.2,230.2 607.6,228.7L607.6,228.5Z" style="fill:rgb(31,41,64);fill-rule:nonzero;"/>
    <rect x="614.8" y="215.9" width="4" height="19.9" style="fill:rgb(31,41,64);fill-rule:nonzero;"/>
    <path d="M621.9,226C621.9,224 622.2,222.3 622.8,220.9C623.3,219.9 623.9,219 624.7,218.2C625.5,217.4 626.3,216.8 627.3,216.4C628.5,215.9 630,215.6 631.6,215.6C634.5,215.6 636.9,216.5 638.7,218.3C640.5,220.1 641.3,222.7 641.3,225.9C641.3,229.1 640.4,231.6 638.7,233.5C636.9,235.3 634.6,236.2 631.7,236.2C628.8,236.2 626.4,235.3 624.6,233.5C622.8,231.7 622,229.2 622,226L621.9,226ZM626,225.9C626,228.2 626.5,229.9 627.6,231C628.6,232.2 630,232.7 631.6,232.7C633.2,232.7 634.5,232.1 635.6,231C636.6,229.8 637.1,228.1 637.1,225.8C637.1,223.5 636.6,221.8 635.6,220.7C634.6,219.6 633.3,219 631.6,219C629.9,219 628.6,219.6 627.6,220.7C626.6,221.8 626.1,223.6 626.1,225.8L626,225.9Z" style="fill:rgb(31,41,64);fill-rule:nonzero;"/>
    <path d="M643.3,229.4L647.2,229C647.4,230.3 647.9,231.3 648.6,231.9C649.3,232.5 650.3,232.8 651.5,232.8C652.7,232.8 653.8,232.5 654.4,232C655,231.5 655.4,230.8 655.4,230.1C655.4,229.4 655.4,229.2 655,228.9C654.7,228.6 654.2,228.3 653.6,228C653.1,227.8 652.1,227.5 650.4,227.1C648.2,226.6 646.7,225.9 645.9,225.1C644.7,224 644.1,222.7 644.1,221.1C644.1,219.5 644.4,219.1 645,218.3C645.6,217.4 646.4,216.7 647.5,216.3C648.6,215.8 649.9,215.6 651.4,215.6C653.9,215.6 655.8,216.1 657.1,217.2C658.4,218.3 659,219.8 659.1,221.6L655.1,221.8C654.9,220.8 654.6,220 654,219.6C653.4,219.2 652.6,218.9 651.4,218.9C650.2,218.9 649.3,219.1 648.7,219.6C648.3,219.9 648.1,220.3 648.1,220.8C648.1,221.3 648.3,221.7 648.7,222C649.2,222.4 650.4,222.9 652.4,223.3C654.4,223.8 655.8,224.2 656.7,224.7C657.6,225.2 658.4,225.9 658.9,226.7C659.4,227.6 659.7,228.6 659.7,229.9C659.7,231.2 659.4,232.1 658.7,233.1C658.1,234.1 657.2,234.8 656,235.3C654.8,235.8 653.4,236 651.7,236C649.2,236 647.2,235.4 645.9,234.3C644.5,233.1 643.7,231.4 643.5,229.2L643.3,229.4Z" style="fill:rgb(31,41,64);fill-rule:nonzero;"/>
    <path d="M651.9,71L664.6,50.3C664.6,50.3 640.3,28.5 614.6,37.3C588.9,46.1 582.3,60.8 588.1,84C589.2,89.8 597.6,102.3 619.5,107.2C648.9,113.8 646.6,135.4 633.2,138.7C613.9,143.5 595.3,125 595.3,125L577.6,141.8C577.6,141.8 593.6,158.9 615.7,162.8C637.8,166.7 651.9,156.4 651.9,156.4C651.9,156.4 686.7,127.7 652.7,97.8C652.7,97.8 640.4,89.5 619.8,82.9C619.8,82.9 599.8,75.3 616.2,61.6C627.8,51.9 651.9,71 651.9,71" style="fill:rgb(31,41,64);fill-rule:nonzero;"/>
    <rect x="475.6" y="37.3" width="82.1" height="24" style="fill:rgb(31,41,64);"/>
    <rect x="475.6" y="137.1" width="81.2" height="24" style="fill:rgb(33,42,66);"/>
    <rect x="475.6" y="85" width="68.1" height="24" style="fill:rgb(31,41,64);"/>
</svg>
