<?xml version="1.0" encoding="UTF-8" standalone="no"?>
<!DOCTYPE svg PUBLIC "-//W3C//DTD SVG 1.1//EN" "http://www.w3.org/Graphics/SVG/1.1/DTD/svg11.dtd">
<svg width="100%" height="100%" viewBox="0 0 432 72" version="1.1" xmlns="http://www.w3.org/2000/svg" xmlns:xlink="http://www.w3.org/1999/xlink" xml:space="preserve" xmlns:serif="http://www.serif.com/" style="fill-rule:evenodd;clip-rule:evenodd;stroke-linejoin:round;stroke-miterlimit:2;">
    <g transform="matrix(1,0,0,1,-115.9,-100.556103)">
        <path d="M232.6,107.4L228.9,107.4L199.1,164.9L212.8,164.9L230.4,130.3L247.3,164.9L260.6,164.9L232.6,107.4Z" style="fill:rgb(178,178,178);fill-rule:nonzero;"/>
        <path d="M352.7,123.1L358.7,113.5C358.7,113.5 347.2,103.4 335,107.5C322.8,111.6 319.7,118.4 322.4,129.2C322.9,131.9 326.9,137.7 337.3,140C351.2,143.1 350.2,153.1 343.8,154.6C334.7,156.8 325.9,148.2 325.9,148.2L317.5,156C317.5,156 325.1,163.9 335.6,165.7C346.1,167.5 352.8,162.8 352.8,162.8C352.8,162.8 369.3,149.5 353.2,135.6C353.2,135.6 347.4,131.8 337.6,128.7C337.6,128.7 328.1,125.2 335.9,118.8C341.4,114.3 352.8,123.2 352.8,123.2" style="fill:rgb(178,178,178);fill-rule:nonzero;"/>
        <rect x="269.2" y="107.4" width="38.9" height="11.1" style="fill:rgb(178,178,178);"/>
        <rect x="269.2" y="153.7" width="38.4" height="11.1" style="fill:rgb(178,178,178);"/>
        <rect x="269.2" y="129.6" width="36.5" height="11.1" style="fill:rgb(178,178,178);"/>
        <rect x="373.9" y="101.3" width="1.5" height="69.9" style="fill:rgb(179,34,23);"/>
        <path d="M386.8,152.8C386.4,152.8 386,152.8 385.6,152.6C385.2,152.5 384.9,152.3 384.7,152.1L384.9,151.6C385.1,151.8 385.4,152 385.7,152.1C386,152.2 386.4,152.3 386.8,152.3C387.2,152.3 387.5,152.3 387.7,152.2C387.9,152.2 388.1,152 388.2,151.8C388.3,151.6 388.4,151.5 388.4,151.3C388.4,151.1 388.4,150.9 388.2,150.8C388.1,150.7 387.9,150.6 387.7,150.5C387.5,150.5 387.3,150.4 387,150.3C386.7,150.3 386.5,150.2 386.2,150.1C385.9,150.1 385.7,149.9 385.5,149.8C385.3,149.7 385.1,149.5 385,149.4C384.9,149.2 384.8,149 384.8,148.7C384.8,148.4 384.8,148.2 385,147.9C385.2,147.7 385.4,147.5 385.7,147.3C386,147.1 386.4,147.1 386.9,147.1C387.4,147.1 387.6,147.1 387.9,147.2C388.2,147.2 388.5,147.4 388.7,147.6L388.5,148.1C388.2,147.9 388,147.8 387.7,147.7C387.4,147.7 387.1,147.6 386.9,147.6C386.7,147.6 386.3,147.6 386,147.7C385.8,147.7 385.6,147.9 385.5,148.1C385.4,148.3 385.3,148.4 385.3,148.6C385.3,148.8 385.3,149 385.5,149.1C385.6,149.2 385.8,149.3 386,149.4C386.2,149.4 386.4,149.5 386.7,149.6C387,149.7 387.2,149.7 387.5,149.8C387.8,149.8 388,150 388.2,150.1C388.4,150.2 388.6,150.4 388.7,150.5C388.8,150.7 388.9,150.9 388.9,151.2C388.9,151.5 388.9,151.7 388.7,152C388.5,152.2 388.3,152.4 388,152.6C387.7,152.7 387.3,152.8 386.8,152.8" style="fill:rgb(178,178,178);fill-rule:nonzero;"/>
        <g>
            <path d="M394.7,152.8C394,152.8 393.4,152.6 392.9,152.2C392.5,151.8 392.3,151.2 392.3,150.4L392.3,147.2L392.9,147.2L392.9,150.4C392.9,151.1 393.1,151.6 393.4,151.9C393.7,152.2 394.2,152.4 394.7,152.4C395.2,152.4 395.7,152.2 396,151.9C396.3,151.6 396.5,151.1 396.5,150.4L396.5,147.2L397.1,147.2L397.1,150.4C397.1,151.2 396.9,151.8 396.5,152.2C396.1,152.6 395.5,152.8 394.7,152.8" style="fill:rgb(178,178,178);fill-rule:nonzero;"/>
            <path d="M401.1,152.7L401.1,147.1L401.6,147.1L404.3,151.5L404,151.5L406.6,147.1L407.2,147.1L407.2,152.7L406.6,152.7L406.6,148L406.7,148L404.3,152L404,152L401.5,148L401.7,148L401.7,152.7L401.1,152.7Z" style="fill:rgb(178,178,178);fill-rule:nonzero;"/>
            <rect x="411.1" y="147.1" width="0.6" height="5.6" style="fill:rgb(178,178,178);"/>
            <path d="M415.7,152.7L415.7,147.1L416.3,147.1L420.3,152L420,152L420,147.1L420.6,147.1L420.6,152.7L420.1,152.7L416.1,147.8L416.4,147.8L416.4,152.7L415.7,152.7Z" style="fill:rgb(178,178,178);fill-rule:nonzero;"/>
            <rect x="424.6" y="147.1" width="0.6" height="5.6" style="fill:rgb(178,178,178);"/>
            <path d="M430.8,152.8C430.4,152.8 430,152.8 429.6,152.6C429.2,152.5 428.9,152.3 428.7,152.1L428.9,151.6C429.1,151.8 429.4,152 429.7,152.1C430,152.2 430.4,152.3 430.8,152.3C431.2,152.3 431.5,152.3 431.7,152.2C431.9,152.2 432.1,152 432.2,151.8C432.3,151.6 432.4,151.5 432.4,151.3C432.4,151.1 432.4,150.9 432.2,150.8C432.1,150.7 431.9,150.6 431.7,150.5C431.5,150.5 431.3,150.4 431,150.3C430.7,150.3 430.5,150.2 430.2,150.1C429.9,150.1 429.7,149.9 429.5,149.8C429.3,149.7 429.1,149.5 429,149.4C428.9,149.2 428.8,149 428.8,148.7C428.8,148.4 428.8,148.2 429,147.9C429.2,147.7 429.4,147.5 429.7,147.3C430,147.1 430.4,147.1 430.9,147.1C431.4,147.1 431.6,147.1 431.9,147.2C432.2,147.2 432.5,147.4 432.7,147.6L432.5,148.1C432.2,147.9 432,147.8 431.7,147.7C431.4,147.7 431.1,147.6 430.9,147.6C430.7,147.6 430.3,147.6 430,147.7C429.8,147.7 429.6,147.9 429.5,148.1C429.4,148.3 429.3,148.4 429.3,148.6C429.3,148.8 429.3,149 429.5,149.1C429.6,149.2 429.8,149.3 430,149.4C430.2,149.4 430.4,149.5 430.7,149.6C431,149.7 431.2,149.7 431.5,149.8C431.8,149.8 432,150 432.2,150.1C432.4,150.2 432.6,150.4 432.7,150.5C432.8,150.7 432.9,150.9 432.9,151.2C432.9,151.5 432.9,151.7 432.7,152C432.5,152.2 432.3,152.4 432,152.6C431.7,152.7 431.3,152.8 430.8,152.8" style="fill:rgb(178,178,178);fill-rule:nonzero;"/>
            <path d="M437.5,152.7L437.5,147.6L435.4,147.6L435.4,147.1L440.2,147.1L440.2,147.6L438.1,147.6L438.1,152.7L437.5,152.7Z" style="fill:rgb(178,178,178);fill-rule:nonzero;"/>
            <path d="M443.2,152.7L443.2,147.1L445.4,147.1C446.1,147.1 446.7,147.3 447.1,147.6C447.5,147.9 447.7,148.4 447.7,149C447.7,149.6 447.7,149.7 447.4,150C447.2,150.3 446.9,150.5 446.6,150.7C446.2,150.9 445.8,150.9 445.3,150.9L443.5,150.9L443.8,150.6L443.8,152.7L443.2,152.7ZM443.8,150.7L443.5,150.4L445.3,150.4C445.9,150.4 446.3,150.3 446.6,150C446.9,149.8 447.1,149.4 447.1,149C447.1,148.6 446.9,148.2 446.6,148C446.3,147.8 445.9,147.6 445.3,147.6L443.5,147.6L443.8,147.3L443.8,150.7ZM447.2,152.7L445.7,150.7L446.4,150.7L447.9,152.7L447.2,152.7Z" style="fill:rgb(178,178,178);fill-rule:nonzero;"/>
            <path d="M453.9,152.8C453.5,152.8 453.1,152.8 452.7,152.6C452.3,152.5 452,152.3 451.7,152C451.4,151.7 451.2,151.4 451.1,151.1C450.9,150.8 450.9,150.4 450.9,150C450.9,149.6 450.9,149.2 451.1,148.9C451.3,148.6 451.5,148.3 451.7,148C451.9,147.7 452.3,147.5 452.7,147.4C453.1,147.3 453.5,147.2 453.9,147.2C454.3,147.2 454.7,147.2 455.1,147.4C455.5,147.5 455.8,147.7 456.1,148C456.4,148.3 456.6,148.6 456.7,148.9C456.9,149.2 456.9,149.6 456.9,150C456.9,150.4 456.9,150.8 456.7,151.1C456.5,151.4 456.3,151.8 456.1,152C455.8,152.3 455.5,152.5 455.1,152.6C454.7,152.7 454.3,152.8 453.9,152.8M453.9,152.2C454.3,152.2 454.6,152.2 454.9,152C455.2,151.9 455.5,151.7 455.7,151.5C455.9,151.3 456.1,151 456.2,150.8C456.3,150.5 456.4,150.2 456.4,149.9C456.4,149.6 456.4,149.3 456.2,149C456.1,148.7 455.9,148.5 455.7,148.3C455.5,148.1 455.2,147.9 454.9,147.8C454.6,147.7 454.3,147.6 453.9,147.6C453.5,147.6 453.2,147.6 452.9,147.8C452.6,147.9 452.3,148.1 452.1,148.3C451.9,148.5 451.7,148.8 451.6,149C451.5,149.3 451.4,149.6 451.4,149.9C451.4,150.2 451.4,150.5 451.6,150.8C451.7,151.1 451.9,151.3 452.1,151.5C452.3,151.7 452.6,151.9 452.9,152C453.2,152.1 453.5,152.2 453.9,152.2" style="fill:rgb(178,178,178);fill-rule:nonzero;"/>
            <path d="M462,152.8C461.6,152.8 461.2,152.8 460.8,152.6C460.4,152.5 460.1,152.3 459.9,152.1L460.1,151.6C460.3,151.8 460.6,152 460.9,152.1C461.2,152.2 461.6,152.3 462,152.3C462.4,152.3 462.7,152.3 462.9,152.2C463.1,152.2 463.3,152 463.4,151.8C463.5,151.6 463.6,151.5 463.6,151.3C463.6,151.1 463.6,150.9 463.4,150.8C463.3,150.7 463.1,150.6 462.9,150.5C462.7,150.5 462.5,150.4 462.2,150.3C461.9,150.3 461.7,150.2 461.4,150.1C461.1,150.1 460.9,149.9 460.7,149.8C460.5,149.7 460.3,149.5 460.2,149.4C460.1,149.2 460,149 460,148.7C460,148.4 460,148.2 460.2,147.9C460.4,147.6 460.6,147.5 460.9,147.3C461.2,147.2 461.6,147.1 462.1,147.1C462.6,147.1 462.8,147.1 463.1,147.2C463.4,147.2 463.7,147.4 463.9,147.6L463.7,148.1C463.4,147.9 463.2,147.8 462.9,147.7C462.6,147.7 462.3,147.6 462.1,147.6C461.9,147.6 461.5,147.6 461.2,147.7C461,147.7 460.8,147.9 460.7,148.1C460.6,148.3 460.5,148.4 460.5,148.6C460.5,148.8 460.5,149 460.7,149.1C460.8,149.2 461,149.3 461.2,149.4C461.4,149.4 461.6,149.5 461.9,149.6C462.2,149.6 462.4,149.7 462.7,149.8C463,149.8 463.2,150 463.4,150.1C463.6,150.2 463.8,150.4 463.9,150.5C464,150.7 464.1,150.9 464.1,151.2C464.1,151.5 464.1,151.7 463.9,152C463.7,152.2 463.5,152.4 463.2,152.6C462.9,152.7 462.5,152.8 462,152.8" style="fill:rgb(178,178,178);fill-rule:nonzero;"/>
            <path d="M471.9,152.9L471.9,147.1L474.3,147.1C474.9,147.1 475.5,147.2 475.9,147.5C476.4,147.7 476.7,148.1 477,148.5C477.3,148.9 477.4,149.4 477.4,150C477.4,150.6 477.3,151 477,151.5C476.7,151.9 476.4,152.3 475.9,152.5C475.4,152.7 474.9,152.9 474.3,152.9L471.9,152.9ZM472.5,152.2L474.2,152.2C474.7,152.2 475.2,152.2 475.5,151.9C475.9,151.7 476.2,151.4 476.4,151.1C476.6,150.8 476.7,150.4 476.7,149.9C476.7,149.4 476.6,149 476.4,148.7C476.2,148.4 475.9,148.1 475.5,147.9C475.1,147.7 474.7,147.6 474.2,147.6L472.5,147.6L472.5,152.2Z" style="fill:rgb(178,178,178);fill-rule:nonzero;"/>
            <path d="M480.9,152.7L480.9,147.1L484.9,147.1L484.9,147.6L481.5,147.6L481.5,152.2L485,152.2L485,152.7L480.9,152.7ZM481.5,149.6L484.6,149.6L484.6,150.1L481.5,150.1L481.5,149.6Z" style="fill:rgb(178,178,178);fill-rule:nonzero;"/>
            <path d="M492.8,152.7L492.8,147.1L493.5,147.1L493.5,152.2L496.7,152.2L496.7,152.7L492.8,152.7Z" style="fill:rgb(178,178,178);fill-rule:nonzero;"/>
            <rect x="499.8" y="147.1" width="0.6" height="5.6" style="fill:rgb(178,178,178);"/>
            <path d="M504.4,152.7L504.4,147.1L505,147.1L507.6,151.5L507.4,151.5L510,147.1L510.5,147.1L510.5,152.7L509.9,152.7L509.9,148L510.1,148L507.6,152L507.3,152L504.9,148L505,148L505,152.7L504.4,152.7Z" style="fill:rgb(178,178,178);fill-rule:nonzero;"/>
            <path d="M514.5,152.7L514.5,147.1L516.7,147.1C517.2,147.1 517.6,147.1 518,147.3C518.4,147.5 518.6,147.7 518.8,148C519,148.3 519.1,148.6 519.1,149C519.1,149.4 519.1,149.7 518.8,150C518.6,150.3 518.3,150.5 518,150.7C517.6,150.9 517.2,150.9 516.7,150.9L514.9,150.9L515.2,150.6L515.2,152.7L514.5,152.7ZM515.1,150.7L514.8,150.4L516.6,150.4C517.2,150.4 517.6,150.3 517.9,150C518.2,149.8 518.4,149.4 518.4,149C518.4,148.6 518.2,148.2 517.9,148C517.6,147.8 517.2,147.6 516.6,147.6L514.8,147.6L515.1,147.3L515.1,150.7Z" style="fill:rgb(178,178,178);fill-rule:nonzero;"/>
            <rect x="522.5" y="147.1" width="0.6" height="5.6" style="fill:rgb(178,178,178);"/>
            <path d="M527.1,152.7L527.1,147.1L531.1,147.1L531.1,147.6L527.7,147.6L527.7,152.2L531.2,152.2L531.2,152.7L527.1,152.7ZM527.7,149.6L530.8,149.6L530.8,150.1L527.7,150.1L527.7,149.6Z" style="fill:rgb(178,178,178);fill-rule:nonzero;"/>
            <path d="M534.2,152.7L534.2,152.3L538.2,147.4L538.3,147.6L534.3,147.6L534.3,147.1L538.9,147.1L538.9,147.5L534.8,152.4L534.8,152.2L539,152.2L539,152.7L534.2,152.7Z" style="fill:rgb(178,178,178);fill-rule:nonzero;"/>
            <path d="M541.4,152.7L544.1,147.1L544.7,147.1L547.4,152.7L546.7,152.7L544.2,147.4L544.5,147.4L542,152.7L541.4,152.7ZM542.4,151.2L542.6,150.7L546,150.7L546.2,151.2L542.4,151.2Z" style="fill:rgb(178,178,178);fill-rule:nonzero;"/>
        </g>
        <path d="M393.4,141.4C392.1,141.4 391,141.2 389.9,140.8C388.8,140.4 387.9,139.8 387.1,139C386.3,138.2 385.7,137.4 385.3,136.4C384.9,135.4 384.6,134.3 384.6,133.1C384.6,131.9 384.8,130.8 385.3,129.8C385.7,128.8 386.3,127.9 387.1,127.2C387.9,126.4 388.8,125.9 389.9,125.4C391,125 392.1,124.8 393.4,124.8C394.7,124.8 395.9,125 397,125.5C398.1,126 399,126.6 399.8,127.5L397.8,129.3C397.2,128.7 396.5,128.2 395.8,127.9C395.1,127.6 394.3,127.4 393.5,127.4C392.7,127.4 391.9,127.5 391.2,127.8C390.5,128.1 389.9,128.5 389.4,129C388.9,129.5 388.5,130.1 388.2,130.8C387.9,131.5 387.8,132.3 387.8,133.1C387.8,133.9 387.9,134.7 388.2,135.4C388.5,136.1 388.9,136.7 389.4,137.2C389.9,137.7 390.5,138.1 391.2,138.4C391.9,138.7 392.7,138.8 393.5,138.8C394.3,138.8 395.1,138.6 395.8,138.3C396.5,138 397.2,137.5 397.8,136.8L399.8,138.6C399,139.5 398.1,140.2 397,140.6C395.9,141.1 394.7,141.3 393.3,141.3" style="fill:rgb(178,178,178);fill-rule:nonzero;"/>
        <path d="M411.7,141.4C410.4,141.4 409.3,141.2 408.2,140.8C407.1,140.4 406.2,139.8 405.4,139C404.6,138.2 404,137.4 403.6,136.3C403.2,135.3 402.9,134.2 402.9,133C402.9,131.8 403.1,130.7 403.6,129.7C404,128.7 404.6,127.8 405.4,127.1C406.2,126.3 407.1,125.8 408.2,125.3C409.3,124.9 410.4,124.7 411.7,124.7C413,124.7 414.1,124.9 415.2,125.3C416.3,125.7 417.2,126.3 418,127C418.8,127.8 419.4,128.6 419.8,129.7C420.2,130.7 420.5,131.8 420.5,133C420.5,134.2 420.3,135.3 419.8,136.3C419.4,137.3 418.8,138.2 418,139C417.2,139.8 416.3,140.3 415.2,140.8C414.1,141.2 413,141.4 411.7,141.4M411.7,138.8C412.5,138.8 413.3,138.7 414,138.4C414.7,138.1 415.3,137.7 415.8,137.2C416.3,136.7 416.7,136.1 417,135.4C417.3,134.7 417.4,133.9 417.4,133.1C417.4,132.3 417.3,131.5 417,130.8C416.7,130.1 416.3,129.5 415.8,129C415.3,128.5 414.7,128.1 414,127.8C413.3,127.5 412.6,127.4 411.7,127.4C410.8,127.4 410.1,127.5 409.4,127.8C408.7,128.1 408.1,128.5 407.6,129C407.1,129.5 406.7,130.1 406.4,130.8C406.1,131.5 406,132.3 406,133.1C406,133.9 406.1,134.7 406.4,135.4C406.7,136.1 407.1,136.7 407.6,137.2C408.1,137.7 408.7,138.1 409.4,138.4C410.1,138.7 410.9,138.8 411.7,138.8" style="fill:rgb(178,178,178);fill-rule:nonzero;"/>
        <path d="M426,141.2L426,124.9L428.5,124.9L435.6,136.8L434.3,136.8L441.3,124.9L443.7,124.9L443.8,141.2L440.9,141.2L440.9,129.4L441.5,129.4L435.6,139.3L434.2,139.3L428.2,129.4L428.9,129.4L428.9,141.2L426,141.2Z" style="fill:rgb(178,178,178);fill-rule:nonzero;"/>
        <path d="M450.5,141.2L450.5,124.9L462.4,124.9L462.4,127.5L453.6,127.5L453.6,138.6L462.8,138.6L462.8,141.2L450.5,141.2ZM453.3,131.7L461.4,131.7L461.4,134.2L453.3,134.2L453.3,131.7Z" style="fill:rgb(178,178,178);fill-rule:nonzero;"/>
        <path d="M468.4,141.2L468.4,124.9L475.1,124.9C477.3,124.9 479,125.4 480.2,126.4C481.4,127.4 482,128.8 482,130.6C482,132.4 481.7,132.8 481.2,133.7C480.6,134.6 479.8,135.2 478.8,135.7C477.8,136.2 476.5,136.4 475.1,136.4L470.1,136.4L471.4,135.1L471.4,141.2L468.4,141.2ZM471.4,135.4L470.1,133.9L475,133.9C476.3,133.9 477.3,133.6 478,133C478.7,132.4 479,131.6 479,130.6C479,129.6 478.7,128.8 478,128.2C477.3,127.6 476.3,127.4 475,127.4L470.1,127.4L471.4,125.9L471.4,135.4ZM479,141.2L474.9,135.3L478.1,135.3L482.2,141.2L478.9,141.2L479,141.2Z" style="fill:rgb(178,178,178);fill-rule:nonzero;"/>
        <path d="M495.2,141.4C493.9,141.4 492.8,141.2 491.7,140.8C490.6,140.4 489.7,139.8 488.9,139C488.1,138.2 487.5,137.4 487.1,136.4C486.7,135.4 486.4,134.3 486.4,133.1C486.4,131.9 486.6,130.8 487.1,129.8C487.5,128.8 488.1,127.9 488.9,127.2C489.7,126.4 490.6,125.9 491.7,125.4C492.8,125 493.9,124.8 495.2,124.8C496.5,124.8 497.7,125 498.8,125.5C499.9,126 500.8,126.6 501.6,127.5L499.6,129.3C499,128.7 498.3,128.2 497.6,127.9C496.9,127.6 496.1,127.4 495.3,127.4C494.5,127.4 493.7,127.5 493,127.8C492.3,128.1 491.7,128.5 491.2,129C490.7,129.5 490.3,130.1 490,130.8C489.7,131.5 489.6,132.3 489.6,133.1C489.6,133.9 489.7,134.7 490,135.4C490.3,136.1 490.7,136.7 491.2,137.2C491.7,137.7 492.3,138.1 493,138.4C493.7,138.7 494.5,138.8 495.3,138.8C496.1,138.8 496.9,138.6 497.6,138.3C498.3,138 499,137.5 499.6,136.8L501.6,138.6C500.8,139.5 499.9,140.2 498.8,140.6C497.7,141.1 496.5,141.3 495.1,141.3" style="fill:rgb(178,178,178);fill-rule:nonzero;"/>
        <rect x="506.7" y="124.9" width="3" height="16.3" style="fill:rgb(178,178,178);"/>
        <path d="M514.1,141.2L521.4,124.9L524.4,124.9L531.7,141.2L528.5,141.2L522.2,126.5L523.4,126.5L517.1,141.2L514,141.2L514.1,141.2ZM517.5,137.4L518.3,135L527.1,135L527.9,137.4L517.5,137.4Z" style="fill:rgb(178,178,178);fill-rule:nonzero;"/>
        <path d="M536.1,141.2L536.1,124.9L539.1,124.9L539.1,138.6L547.6,138.6L547.6,141.2L536.1,141.2Z" style="fill:rgb(178,178,178);fill-rule:nonzero;"/>
        <path d="M129,145.3L137,149.9L147.5,155.9C147.8,156 148,156.2 147.9,156.5L147.7,171.3C147.7,171.5 147.7,171.7 147.5,171.7C147.5,171.7 147.1,171.8 147,171.7L132.4,163L117.6,154.3C116.6,153.7 115.9,152.3 115.9,151.2L115.9,120.5C115.9,119.2 116.5,118 117.6,117.3L126.4,112.1L145.4,101C146.5,100.3 147.7,100.5 148.8,101.1L157.4,106.2L176,117.1C177.2,117.8 177.8,118.9 177.8,120.4L177.8,156.7C177.8,157.6 177.1,158.6 176.4,159.1L165.4,165.6C165.1,165.6 164.8,165.6 164.7,165.2L164.7,126.2L146.9,115.9L129,126.3L129,145.3Z" style="fill:rgb(179,34,23);fill-rule:nonzero;"/>
        <path d="M129,126.4L115.9,120.1C115.9,120.1 115.9,118.8 117.1,117.8C117.7,117.1 134.1,107.7 145.4,101.1C145.4,101.1 146.1,100.7 146.8,100.7C147.5,100.7 148.2,100.9 148.6,101.2C149,101.5 175.7,117.1 175.7,117.1C175.7,117.1 177.3,117.8 177.6,119.4L164.6,126.4L146.8,116.1" style="fill:rgb(178,178,178);fill-rule:nonzero;"/>
    </g>
</svg>
