<svg xmlns="http://www.w3.org/2000/svg" viewBox="0 0 500 500" width="100%" height="100%">
  <defs>
    <!-- Sombra proyectada del conjunto completo -->
    <filter id="global-shadow" x="-20%" y="-20%" width="140%" height="140%">
      <feDropShadow dx="0" dy="12" stdDeviation="10" flood-color="#162640" flood-opacity="0.16"/>
    </filter>
    
    <!-- Filtro de sombra individual para dar volumen entre los sectores -->
    <filter id="sector-shadow" x="-30%" y="-30%" width="160%" height="160%">
      <feDropShadow dx="-2" dy="5" stdDeviation="5" flood-color="#0b1220" flood-opacity="0.35"/>
    </filter>

    <!-- Filtro de sombra exclusivo para el centro-hub -->
    <filter id="hub-shadow" x="-20%" y="-20%" width="140%" height="140%">
      <feDropShadow dx="0" dy="6" stdDeviation="5" flood-color="#162640" flood-opacity="0.2"/>
    </filter>

    <!-- Filtro mágico para convertir los logos vectoriales externos a blanco puro -->
    <filter id="white-filter">
      <feColorMatrix type="matrix" values="1 0 0 0 1
                                           0 1 0 0 1
                                           0 0 1 0 1
                                           0 0 0 1 0"/>
    </filter>
  </defs>

  <!-- Grupo contenedor con la sombra global de la estructura circular completa -->
  <g class="espiral-container" filter="url(#global-shadow)">
    
    <!-- BASE INFERIOR (Gris Claro / Blanco 3D) - Radio exterior: 165 (el más corto de todos) -->
    <path class="espiral-base" 
          d="M 85 250 A 165 165 0 0 0 415 250 L 335 250 A 85 85 0 0 1 165 250 Z" 
          fill="#f8fafc" 
          stroke="#e2e8f0" 
          stroke-width="1.5"/>

    <!-- 1. SECTOR AES COMERCIAL (Rojo, R=185) -->
    <g class="sector-group sector-comercial" style="cursor: pointer;">
      <path d="M 380.81 119.19 A 185 185 0 0 1 435 250 L 335 250 A 85 85 0 0 0 310.1 189.9 Z" 
            fill="#e63946" 
            stroke="#cc2a36" 
            stroke-width="1"/>
      <image href="assets/logos/aes-comercial.svg" 
             x="330" y="168" 
             width="90" height="60"
             filter="url(#white-filter)"/>
    </g>

    <!-- 2. SECTOR AES LIMPIEZA (Turquesa, R=205) - Con sombra proyectada sobre Comercial -->
    <g class="sector-group sector-limpieza" filter="url(#sector-shadow)" style="cursor: pointer;">
      <path d="M 196.95 52.0 A 205 205 0 0 1 394.95 105.04 L 310.1 189.9 A 85 85 0 0 0 228 167.9 Z" 
            fill="#00a896" 
            stroke="#008f80" 
            stroke-width="1"/>
      <image href="assets/logos/aes-limpieza.svg" 
             x="240" y="77" 
             width="95" height="65"
             filter="url(#white-filter)"/>
    </g>

    <!-- 3. SECTOR AES SEGURIDAD (Azul Marino, R=225) - Con sombra proyectada sobre Limpieza -->
    <g class="sector-group sector-seguridad" filter="url(#sector-shadow)" style="cursor: pointer;">
      <path d="M 25 250 A 225 225 0 0 1 191.77 32.67 L 228 167.9 A 85 85 0 0 0 165 250 Z" 
            fill="#162640" 
            stroke="#111f35" 
            stroke-width="1"/>
      <image href="assets/logos/aes-seguridad.svg" 
             x="77" y="120" 
             width="100" height="70"
             filter="url(#white-filter)"/>
    </g>

    <!-- 4. ANILLO/CENTRO BLANCO (Grupo AES) - Con sombra sobre todo el centro -->
    <g class="centro-hub" filter="url(#hub-shadow)">
      <circle cx="250" cy="250" r="85" fill="#ffffff" stroke="#e2e8f0" stroke-width="1.2"/>
      <image href="assets/logos/aes-claro-central.svg" 
             x="185" y="215" 
             width="130" height="70"/>
    </g>
    
  </g>
</svg>
