<?xml version="1.0" encoding="UTF-8"?>
<svg id="Capa_1" xmlns="http://www.w3.org/2000/svg" version="1.1" viewBox="0 0 1189.9 570.9">
  <!-- Generator: Adobe Illustrator 30.6.0, SVG Export Plug-In . SVG Version: 2.1.4 Build 109)  -->
  <defs>
    <style>
      .st0 {
        fill: #e52d22;
      }

      .st1 {
        fill: #182742;
      }

      .st2 {
        fill: #162640;
      }

      .st3 {
        fill: #192642;
      }

      .st4 {
        fill: #727278;
      }

      .st5 {
        fill: #81868e;
      }

      .st6 {
        fill: #35a8e0;
      }
    </style>
  </defs>
  <path class="st6" d="M1110,153.6c0,84.8-67.8,153.6-151.3,153.6s-7.1-.1-10.5-.4c34.2-2.5,64.9-17.7,87.8-41.2,36-26.6,59.4-70,59.4-119.1C1095.3,66.6,1033,1.5,955.7,0c1,0,2,0,3,0,83.6,0,151.3,68.8,151.3,153.6Z"/>
  <path class="st2" d="M1095.3,146.6c0,49-23.4,92.5-59.4,119.1,25.2-25.8,40.8-61.6,40.8-101.1,0-78.8-62-142.7-138.5-142.7s-88.1,23.9-113.2,60.5c1.3-2.6,2.6-5.2,4-7.8C854.9,30.6,901.9,1.1,955.7,0c77.3,1.5,139.6,66.5,139.6,146.5Z"/>
  <rect class="st2" x="926.7" y="364" width="112.5" height="32.9"/>
  <g>
    <polygon class="st2" points="821.7 364 811 364 724.8 533.8 764.4 533.8 815.2 431.5 864.1 533.8 902.7 533.8 821.7 364"/>
    <path class="st2" d="M1168.3,410.2l17.4-28.4s-33.3-29.9-68.6-17.8c-35.2,12.1-44.3,32.2-36.4,64,1.5,8,13,25.1,43,31.8,40.4,9.1,37.2,38.6,18.8,43.2-26.4,6.5-51.9-18.8-51.9-18.8l-24.2,23s22,23.5,52.3,28.8c30.3,5.3,49.6-8.7,49.6-8.7,0,0,47.7-39.4,1.1-80.3,0,0-16.9-11.4-45.1-20.5,0,0-27.4-10.5-4.9-29.2,15.9-13.3,48.9,12.9,48.9,12.9Z"/>
    <rect class="st1" x="926.7" y="500.8" width="111.3" height="32.9"/>
    <rect class="st2" x="926.7" y="429.5" width="93.3" height="32.9"/>
  </g>
  <path class="st6" d="M809,235.1s20.9,64.3,2.1,105.6c0,0,33.4-32.3,101.6-33.6-11.9-4-40.4-19.2-78.2-4.3-.3-8.1.4-50.5-25.5-67.8Z"/>
  <path class="st3" d="M820.4,333.5s31.5-24.9,93.1-26.9c0,0-40.3-20.8-78.2-4,0,0,.5-31.2-12-51.8,0,0,9.7,45.1-2.9,82.7Z"/>
  <path class="st2" d="M905.5,55.5s-.5,51.8-52.8,62.4c0,0,54.7,10.1,52.8,59.5,0,0,8.2-62.4,57.1-58.6,0,0-50.9-7.7-57.1-63.4Z"/>
  <path class="st4" d="M995.5,150.5s-.3,32.2-32.8,38.8c0,0,34,6.3,32.8,37,0,0,5.1-38.8,35.5-36.4,0,0-31.6-4.8-35.5-39.4Z"/>
  <path class="st6" d="M924,218.8s-.2,20.9-21.2,25.1c0,0,22,4.1,21.2,24,0,0,3.3-25.1,23-23.6,0,0-20.5-3.1-23-25.5Z"/>
  <g>
    <path class="st5" d="M288.5,428.4h-39.7v-64.2h6.3v57.9h33.4v6.3Z"/>
    <path class="st5" d="M304.2,428.3v-64.2h6.3v64.2h-6.3Z"/>
    <path class="st5" d="M396,364.1v64.2h-6.3v-48.9l-23,47.4h-3.6l-24.2-47.1v48.6h-6.3v-64.2h5.4l26.8,52.1,25.3-52.1h5.9Z"/>
    <path class="st5" d="M462.4,383.2v1.4c0,10.5-8.6,19.1-19.2,19.1h-18.9v24.7h-6.3v-64.2h25.2c10.6,0,19.2,8.5,19.2,19.1ZM456.1,384.6v-1.4c0-7-5.8-12.7-12.8-12.7h-18.9v26.9h18.9c7.1,0,12.8-5.7,12.8-12.7Z"/>
    <path class="st5" d="M480.3,428.3v-64.2h6.3v64.2h-6.3Z"/>
    <path class="st5" d="M515,370.4v23.9h26.7v6.3h-26.7v21.3h31.1v6.3h-37.4v-64.2h38.2v6.3h-31.9Z"/>
    <path class="st5" d="M568.9,422h29.7v6.3h-39.5v-1.9l31.5-56h-28v-6.3h37.8v2l-31.4,56Z"/>
    <path class="st5" d="M658,407.2h-30l-9.6,21.1h-7l29.3-64.2h4.4l29.7,64.2h-7l-9.7-21.1ZM655.1,400.9l-12.2-26.4-12,26.4h24.2Z"/>
    <path class="st5" d="M44.4,488v1.4c0,10.5-8.6,19.1-19.2,19.1H6.3v24.7H0v-64.2h25.2c10.6,0,19.2,8.6,19.2,19.1ZM38,489.4v-1.4c0-7-5.8-12.7-12.8-12.7H6.3v26.9h18.9c7.1,0,12.8-5.7,12.8-12.7Z"/>
    <path class="st5" d="M101.4,533.1l-18.3-24.7h-14.5v24.7h-6.3v-64.2h26.5c10.6,0,19.2,8.6,19.2,19.1v1.4c0,9.8-7.4,17.8-16.9,18.9l18.4,24.8h-8.1ZM68.6,502.1h20.2c7.1,0,12.8-5.7,12.8-12.7v-1.4c0-7-5.8-12.7-12.8-12.7h-20.2v26.9Z"/>
    <path class="st5" d="M192.5,500.9c0,18.6-15.1,33.7-33.7,33.7-18.6,0-33.7-15.1-33.7-33.7s15.1-33.7,33.7-33.7,33.7,15.1,33.7,33.7ZM186.2,500.9c0-15.1-12.3-27.4-27.4-27.4s-27.4,12.3-27.4,27.4,12.3,27.4,27.4,27.4,27.4-12.3,27.4-27.4Z"/>
    <path class="st5" d="M217.8,475.4v25.5h26.5v6.3h-26.5v25.9h-6.3v-64.1h40.9v6.3h-34.5Z"/>
    <path class="st5" d="M274.6,475.2v23.9h26.7v6.3h-26.7v21.3h31.1v6.3h-37.4v-64.2h38.2v6.3h-31.9Z"/>
    <path class="st5" d="M358.9,523.5c-2.3,5-6.9,8.7-12.6,10.2-2.1.5-4.2.8-6.3.8-.1,0-.2,0-.3,0-8.3,0-15.6-4.3-20.7-12l-1.4-2.2,5.6-3,1.2,1.8c2.8,4.1,7.6,9,15.3,9s.2,0,.3,0c1.6,0,3.2-.2,4.9-.7,3.9-1,7-3.4,8.5-6.7,1.3-2.8,1.3-5.8,0-8.5-2.2-4.9-7.8-7.5-13.6-10.3-4.8-2.3-9.8-4.7-13.2-8.6-4.4-5.1-5-11.8-1.6-17.6,2.4-4.1,7.7-8.6,15.3-8.7,2.9,0,5.7.5,7.9,1.5,1.2.5,2.2,1.1,3.1,1.8,3.8,2.8,5.8,7.2,5.9,7.4l.7,1.6-6.1,2.6-.7-1.7c0,0-2.5-5.9-8.1-6.6-1-.1-1.9-.2-2.6-.2-5,0-8.4,2.9-10,5.6-2,3.4-1.6,7.1,1,10.1,2.5,2.9,6.7,4.9,11.2,7,6.6,3.1,13.4,6.4,16.6,13.4,2,4.5,2,9.4,0,13.9Z"/>
    <path class="st5" d="M379.1,533.1v-64.2h6.3v64.2h-6.3Z"/>
    <path class="st5" d="M471.9,500.9c0,18.6-15.1,33.7-33.7,33.7-18.6,0-33.7-15.1-33.7-33.7s15.1-33.7,33.7-33.7,33.7,15.1,33.7,33.7ZM465.5,500.9c0-15.1-12.3-27.4-27.4-27.4s-27.4,12.3-27.4,27.4,12.3,27.4,27.4,27.4,27.4-12.3,27.4-27.4Z"/>
    <path class="st5" d="M539.7,468.9v64.2h-4.3l-38.3-51.9v51.9h-6.3v-64.2h5l37.5,50.2v-50.2h6.3Z"/>
    <path class="st5" d="M602.6,512h-30l-9.6,21.1h-7l29.3-64.2h4.4l29.7,64.2h-7l-9.7-21.1ZM599.7,505.7l-12.2-26.4-12,26.4h24.2Z"/>
    <path class="st5" d="M675.3,533.1h-39.7v-64.2h6.3v57.9h33.4v6.3Z"/>
  </g>
  <rect class="st0" x="701.7" y="327.5" width="7.1" height="243.4"/>
</svg>