<?xml version="1.0" encoding="UTF-8" standalone="no"?>
<!DOCTYPE svg PUBLIC "-//W3C//DTD SVG 1.1//EN" "http://www.w3.org/Graphics/SVG/1.1/DTD/svg11.dtd">
<svg width="100%" height="100%" viewBox="0 0 68 55" version="1.1" xmlns="http://www.w3.org/2000/svg" xmlns:xlink="http://www.w3.org/1999/xlink" xml:space="preserve" xmlns:serif="http://www.serif.com/" style="fill-rule:evenodd;clip-rule:evenodd;stroke-linejoin:round;stroke-miterlimit:2;">
    <g transform="matrix(1,0,0,1,-179.3,-65.4)">
        <path d="M213.2,113.3C212.4,113.1 211.4,112.8 211.5,112.3L212.4,107.9L228,111L240.4,113.4C241.2,112.7 241.2,111.4 240.4,110.7L212.6,105.6L215.4,93.3L228.2,95.6L244.5,98.7C245.1,98.8 245.6,99.6 245.5,100.3L242.6,117C242.4,118.3 241.2,119 240,118.7L213,113.4L213.2,113.3ZM222.4,103.8L223.2,99.1L217.4,98L216.3,102.7L222.4,103.8Z" style="fill:rgb(39,39,39);fill-rule:nonzero;"/>
        <path d="M245.2,95.1L237.5,95.1L234.6,94.8L224.3,92.9L224.3,71.6L244.5,71.6C245.8,71.6 246.7,72.5 246.9,73.8L246.9,93C246.9,93.9 246.5,95.2 245.2,95.2L245.2,95.1ZM241.6,91.1C244.3,86.8 244.4,80 241.2,76.4C240.8,76.1 239.6,76.6 239.6,77.2C242.6,81.2 242.6,86.7 239.4,90.4C239.8,91 241.1,91.4 241.6,91.1ZM238.1,79.3C237.9,78.9 237.2,78.5 236.9,78.6C236.6,78.7 236.1,79.1 235.9,79.4C238,81.8 238,85.3 236.5,87.8C236.3,88.1 237.2,88.7 237.5,88.7C238.9,88.5 240.7,83.4 238.2,79.3L238.1,79.3ZM232.8,86.6L234,86.9C235.5,85.2 235.5,82.5 233.8,80.8C233.4,80.6 232.4,81.3 232.6,81.7C234,84 232.1,86.4 232.8,86.6Z" style="fill:rgb(39,39,39);fill-rule:nonzero;"/>
        <path d="M209.8,110.9C209.5,112.3 210.1,114.3 211.4,114.6L221.9,116.7C222.1,117.7 221.9,118.8 221.2,119.5L182.5,119.5C180.9,119.5 179.3,118.4 179.3,116.7L179.3,68.6C179.3,66.7 180.8,65.4 182.6,65.4L219.2,65.4C220.9,65.4 222.5,66.6 222.5,68.4L222.5,92.7L216,91.9C215.3,91.9 213.9,92.1 213.7,93L209.9,111L209.8,110.9ZM204.8,92.2C205.8,92 206.6,91.4 206.6,90.5L206.6,71C206.6,70.3 206,69.6 205.2,69.6L185.4,69.6C184.6,69.6 184,70.2 184,71L184,90.7C184,91.4 185,92.2 185.6,92.2L204.8,92.2ZM217.7,75.5C218.3,75.5 218.9,74.9 218.9,74.4C218.9,73.9 218.2,73.4 217.7,73.4L212.5,73.4C212,73.4 211.4,74 211.4,74.4C211.4,74.8 212,75.4 212.4,75.5L217.7,75.5ZM217.8,80.7C218.3,80.7 218.9,80.2 219,79.8C219.1,79.4 218.6,78.5 218.2,78.5L212.3,78.5C211.8,78.5 211.4,79.6 211.6,80C211.8,80.4 212.4,80.7 212.8,80.7L217.8,80.7ZM218,86.3C218.5,86.3 219.1,85.4 219,85C218.9,84.6 218.4,84 218,84L212,84C211.6,84 211.3,85.3 211.5,85.7C211.7,86.1 212.4,86.4 212.7,86.4L217.9,86.4L218,86.3ZM189.2,100.7L189.2,96.6L184.2,96.6C184,98.1 184,99.1 184.2,100.6L189.2,100.6L189.2,100.7ZM197.4,100.7L197.2,96.6L192.2,96.6L192.2,100.7L197.4,100.7ZM205.7,100.7C205.8,99.1 205.8,97.9 205.5,96.5L200.3,96.5L200.3,100.7L205.7,100.7ZM189.2,107.1L189.2,103.1L184.2,103.1L184.2,107.1L189.2,107.1ZM197.4,107.1L197.4,103L192.2,103L192.2,107L197.4,107L197.4,107.1ZM205.7,107L205.7,103.8C205.7,103.5 205.1,103 204.8,103L200.3,103L200.3,107.1L205.7,106.9L205.7,107ZM189.2,113.8L189.2,109.7L184.1,109.7L184.1,112.7C184.1,113.1 184.7,113.8 185.1,113.8L189.2,113.8ZM197.5,113.9L197.5,109.7L192.3,109.7L192.3,113.8L197.5,113.8L197.5,113.9ZM205.8,113.8L205.8,109.7L200.3,109.7L200.3,113.9L205.8,113.8Z" style="fill:rgb(39,39,39);fill-rule:nonzero;"/>
        <path d="M204.5,90.5L186,90.5C185.4,88.1 186,86.1 188.4,85.3L193.7,83.4C190.3,81.6 189.2,77.8 191.5,74.9C193.8,72 197,72.5 198.9,74.7C200.1,76.1 200.6,77.9 200.1,79.6C199.6,81.3 198.6,82.6 196.7,83.4C198.8,84.4 201.2,84.7 203.3,85.8C204.8,86.7 204.8,89 204.5,90.6L204.5,90.5Z" style="fill:rgb(39,39,39);fill-rule:nonzero;"/>
    </g>
</svg>
