<?xml version="1.0" encoding="UTF-8" standalone="no"?>
<!DOCTYPE svg PUBLIC "-//W3C//DTD SVG 1.1//EN" "http://www.w3.org/Graphics/SVG/1.1/DTD/svg11.dtd">
<svg width="100%" height="100%" viewBox="0 0 44 42" version="1.1" xmlns="http://www.w3.org/2000/svg" xmlns:xlink="http://www.w3.org/1999/xlink" xml:space="preserve" xmlns:serif="http://www.serif.com/" style="fill-rule:evenodd;clip-rule:evenodd;stroke-linejoin:round;stroke-miterlimit:2;">
    <g transform="matrix(1,0,0,1,-83.926494,-480.9)">
        <path d="M120.8,492.5L120.8,496.1L121.9,496.1L121.9,481.7C121.9,481.4 122.5,480.9 122.8,480.9L126.4,480.9C127.1,480.9 127.2,481.9 127.2,482.5L127.2,520.1C127.4,520.4 127.9,520.6 127.8,521C127.7,521.4 127.8,522.1 127.3,522.1L121.9,522.1C121.3,522.1 121.2,520.8 121.5,520.5C122,520.2 122,519.7 121.7,519.3L90.1,519.3C89.7,519.4 90.1,520.5 90.3,520.6C90.5,520.9 90.4,521.5 90.3,521.8C90.2,522.1 89.7,522.2 89.4,522.2L84.7,522.2C84.4,522.2 84.2,522 84,521.9C83.8,521.8 84,520.7 84.7,520.3L84.7,482C84.7,481.6 85,481 85.3,481L89.2,481C89.4,481 89.8,481.4 89.8,481.6L89.8,496.1L91.4,496.1L91.4,486.5C91.4,485.6 91.2,484.5 92.3,484.5L104.3,484.5C104.7,484.5 105.1,485.1 105.1,485.5L105.1,496.1L106.4,496.1L106.4,485.6C106.4,485.2 106.8,484.5 107.2,484.5L119.5,484.5C120.4,484.5 120.4,486 120.4,487.1L120.4,492.4L120.8,492.5ZM88.2,520.3L88.2,482.7L86.8,482.7L86.8,520.3C87.3,520.4 87.7,520.4 88.2,520.3ZM125.4,520.3L125.4,482.7L123.8,482.7L123.8,520.3C124.3,520.3 124.8,520.4 125.4,520.3ZM100,490.9L98.9,490C97.9,489.2 97.7,490.7 96.4,491C95.1,491.3 95.4,490.6 95.4,490.2L95.4,486.4L93.5,486.4L93.5,496.1L103.6,496.1L103.6,486.4L101.4,486.4L101.4,490.3C101.4,490.8 100.5,491.1 100.1,490.8L100,490.9ZM99.6,488.5L99.6,486.4L97.2,486.4L97.4,488.5C98.2,487.8 99,487.8 99.7,488.5L99.6,488.5ZM115.4,490.8L113.8,489.7C113.2,490.2 112.5,490.9 111.7,490.9C110.9,490.9 110.7,490 110.7,489.4L110.7,486.4L108.5,486.4L108.5,496.1L118.7,496.1L118.7,486.4L116.7,486.4C116.8,487.9 116.9,490.2 116.4,490.6C115.9,491 115.7,490.9 115.4,490.6L115.4,490.8ZM115,488.5L115,486.4L112.5,486.4L112.5,488.6C112.8,488.6 113,488.5 113.2,488.3C113.8,487.8 114.5,487.9 115,488.5ZM90,499.8L119,499.8C120.1,499.8 121,499.6 122.1,499.9L122.1,497.7L90,497.7L90,499.8ZM106.7,514.3L106.7,504C106.7,503.6 107.4,503.2 107.8,503.2L119.4,503.2C120.1,503.2 120.8,503.5 120.8,504.3L120.8,513.5L120.7,514.3C121.2,514.3 121.6,514.4 122,514.3L122,501.5L90.1,501.5L90.1,514.3L91.7,514.3C91.4,514 91.7,513.8 91.7,513.5L91.7,505.5C91.7,504.9 91.5,504.1 92,503.5C92.5,502.9 93.2,503.1 93.8,503.1L104.6,503.1C104.9,503.1 105.3,503.5 105.6,503.7L105.6,514.2C106.1,514.2 106.5,514.3 106.9,514.2L106.7,514.3ZM97.1,505.4C97.4,505.9 97.1,506.5 97.3,507.2C98,506.5 98.9,506.5 99.7,507.2C100,506.8 99.7,506.4 99.7,505.9L99.7,504.9L97.3,504.9C97.2,504.9 97.1,505 97,505C96.9,505.1 96.9,505.3 97,505.3L97.1,505.4ZM118.9,514.4C118.9,514.2 118.8,514 118.8,513.7L118.8,505.1L117.2,505.2L116.8,505.2C116.6,505.2 116.8,505.5 116.8,505.6L116.8,508.4C116.8,508.8 116.4,509.7 115.9,509.6C115.1,509.6 114.4,508.8 113.8,508.3L112,509.5C111.6,509.7 111.3,509.5 111,509.3C110.5,508.9 110.6,507.9 110.6,507L110.6,505.2C110.7,505.2 110.8,505.2 110.8,505.1C110.8,505 110.7,504.9 110.6,504.9L108.4,504.9C108.3,504.9 108.2,504.9 108.2,505.2L108.2,514.5L118.5,514.5C118.6,514.5 118.7,514.4 118.7,514.3L118.9,514.4ZM115.1,505L112.3,505L112.3,507.5C112.9,507.3 113.3,506.8 113.8,506.9L115.1,507.5L115.1,505ZM100.2,509.6L98.5,508.4L97.2,509.3C96.9,509.5 96.6,509.7 96.3,509.7C96,509.7 95.7,509.4 95.5,509.1L95.5,505.2C94.8,505.4 94.2,505.5 93.5,505.2L93.5,514.5L103.5,514.5L103.5,505.2L101.5,505.4L101.5,509.2C101.4,509.7 100.5,509.9 100.2,509.6ZM121.9,517.7C122,517.1 121.9,516.7 121.9,516.3L90.1,516.3L90.1,517.7L121.9,517.7Z" style="fill:rgb(39,39,39);fill-rule:nonzero;"/>
        <path d="M105.6,499.8L90,499.8L90,497.7L122.1,497.7L122.1,499.9C121.1,499.6 120.1,499.9 119,499.9L105.6,499.9L105.6,499.8ZM121.9,497.9L98.2,497.9C98,498 97.8,498.1 97.6,497.9L96,497.9C95.7,497.9 95.4,498.1 95.1,497.9L90.1,497.9L90.1,499.6L121.9,499.6L121.9,497.9Z" style="fill:rgb(39,39,39);fill-rule:nonzero;"/>
        <path d="M110.5,505.1C109.9,505.3 109.3,505.1 108.6,505.2L108.6,514.3L119,514.3C119,514.3 119,514.5 118.8,514.5L108.5,514.5L108.5,505.2C108.5,505 108.5,504.9 108.7,504.9C109.3,504.9 110,505 110.6,505.1L110.5,505.1Z" style="fill:rgb(39,39,39);fill-rule:nonzero;"/>
        <path d="M112.7,505C113.4,505.1 114.1,505.1 114.8,505L115.2,505L115.2,507.5L113.9,506.9C113.4,506.9 113,507.3 112.4,507.5L112.4,505L112.7,505ZM115,507.3L115,505.3L112.6,505.3L112.6,507.3C113.2,506.9 113.5,506.7 113.9,506.7C114.3,506.7 114.5,506.9 115,507.3Z" style="fill:rgb(39,39,39);fill-rule:nonzero;"/>
        <path d="M99.7,505L99.4,505C98.7,505.2 98,505.2 97.4,505C97.2,505 97.1,505.2 97.1,505.3C96.9,505.3 96.9,505.1 97.1,505C97.3,504.9 97.2,504.9 97.4,504.9L99.8,504.9L99.7,505Z" style="fill:rgb(39,39,39);fill-rule:nonzero;"/>
        <path d="M110.8,505.3C110.8,505.3 110.6,505.1 110.5,505.1L108.9,505.1C108.7,505.1 108.6,505.1 108.6,504.9L110.8,504.9L111,505.1C111,505.1 111,505.2 110.9,505.2L110.8,505.3Z" style="fill:rgb(39,39,39);fill-rule:nonzero;"/>
        <path d="M114.7,505C114.2,505.2 113.1,505.3 112.6,505L114.7,505Z" style="fill:rgb(39,39,39);fill-rule:nonzero;"/>
        <path d="M120.5,497.9C120.5,497.9 120.5,498.1 120.3,498.1L98.4,498.1C98.3,498.1 98.2,498.1 98.2,497.9L120.5,497.9Z" style="fill:rgb(39,39,39);fill-rule:nonzero;"/>
        <path d="M95.1,497.9C95.1,498 94.9,498.1 94.8,498.1L91.8,498.1C91.6,498.1 91.5,498.1 91.5,497.9L95.1,497.9Z" style="fill:rgb(39,39,39);fill-rule:nonzero;"/>
        <path d="M97.6,497.9C97.1,498.1 96.4,498.1 96,497.9L97.6,497.9Z" style="fill:rgb(39,39,39);fill-rule:nonzero;"/>
        <path d="M99.5,505.1C99,505.3 97.9,505.3 97.5,505.1L99.5,505.1Z" style="fill:rgb(39,39,39);fill-rule:nonzero;"/>
    </g>
</svg>
