<?xml version="1.0" encoding="UTF-8" standalone="no"?>
<!DOCTYPE svg PUBLIC "-//W3C//DTD SVG 1.1//EN" "http://www.w3.org/Graphics/SVG/1.1/DTD/svg11.dtd">
<svg width="100%" height="100%" viewBox="0 0 43 42" version="1.1" xmlns="http://www.w3.org/2000/svg" xmlns:xlink="http://www.w3.org/1999/xlink" xml:space="preserve" xmlns:serif="http://www.serif.com/" style="fill-rule:evenodd;clip-rule:evenodd;stroke-linejoin:round;stroke-miterlimit:2;">
    <g transform="matrix(1,0,0,1,-85,-554.374232)">
        <g>
            <path d="M100.7,575.5L100.1,575.3C99.9,575.2 99.6,575.1 99.3,574.8C99,574.8 99,575 99.3,575C99.4,575.6 99.8,576 100.3,576.3L103.9,578.9C103.9,579.3 103.6,579.6 103.4,579.7C103.2,579.8 102.7,579.7 102.4,579.6L99.9,577.8C99.2,577.3 98.5,576.8 98,576L96.8,577.6L101.3,582C102.6,580.2 105,579.7 106.9,580.7C108.8,581.7 108.1,581.5 108.3,582.2C108.5,582.9 108.1,582.8 107.9,583C107.1,583.9 107.5,585.6 106.7,585.9C105.9,586.2 106.1,585.9 105.9,585.7C105.5,585.3 106.1,584.5 105.8,584.4C105.1,584.2 104.1,584.9 103.5,584.6C102.9,584.3 102.9,583 102.5,583.1C102.1,583.2 101.5,584.4 100.9,583.8L95.6,578.6L92.6,579.7C90,580.6 87.3,582.6 86.9,585.4L86.9,590.4C86.9,590.5 86.7,590.6 86.8,590.7C86.9,590.8 87,590.8 87.1,590.8L94.1,590.8C96.1,590.8 95.9,588.7 98.1,586.9C100.3,585.1 99.2,586.4 99.9,586.1C98.6,585.6 97.6,584.9 96.4,584.2C95.2,583.5 95.3,583.7 95,583.2C94.7,582.7 95,582.6 95.2,582.4C95.8,581.7 97.2,582.9 97.9,583.3L100.7,584.9C101,585.1 101.4,585.2 101.6,585.5L102.4,585.8C103.8,585.7 105.1,585.8 106.2,586.4C106.8,586.9 107,587.7 106.7,588.6C107.7,588.8 108.6,589.3 109.4,589.9L116,591.5L117.9,592C118,592.3 118.2,592.7 118.1,593.1C118,593.5 117.7,593.5 117.5,593.5L114.8,592.8L112.2,592.2L109.1,591.3C108.8,591.1 106.4,590 106.2,590C106,590 106.1,590 106.1,590.1C106.1,590.8 106.1,591.4 105.8,592.1C105.8,592.8 105.5,593.6 104.9,594.2C103.9,595.1 102.6,595.4 101.3,595.5L99.3,595.5C99.1,595.6 98.9,595.5 98.8,595.5C98.7,595.5 98.8,595.2 98.8,595.1C98.8,594.9 99.2,594.9 99.3,594.9C101.6,593.4 103.3,594.5 104,592.8L102.6,593C102.3,593 102.1,592.7 102.1,592.4C102.1,592.1 102.3,591.8 102.6,591.7L104.5,591.3L104.7,590.1C103.3,589.8 102.3,590.9 101.8,590.1C101.3,589.3 101.4,589.2 101.8,589C102.2,588.8 102.7,588.6 103,588.6L104,588.4L105,588.4C105,588.4 105.2,588.2 105.1,588.1C105,587.5 103.2,587.3 101.7,587.6C99.5,588 98.6,588.1 97.3,590.5C96.8,591.5 96,592.6 95,592.6L85.7,592.6C85.4,592.6 85,592.3 85,591.9L85,586.1C85.1,584 86.3,582.3 87.8,580.9C89.2,579.6 90.9,578.8 92.6,578.2L94.8,577.4C96.6,576.8 96.3,574.7 98.3,574.3L97.3,572.8L96.8,571.6C95.6,571.6 94.6,570.8 94.1,569.7C93.6,568.6 93.7,566.9 94.8,565.8C93.6,562.7 94,559.2 96.5,556.8C99,554.4 100,554.5 102.1,554.4C104.2,554.3 107.4,554.4 109.4,556.4C111.4,558.4 109.7,557.1 110.1,557.1C111,557.1 111.8,557.6 112.4,558.3C113.5,559.5 113.7,561 113.8,562.5C113.9,564 113.5,564.6 113.2,565.8C113.6,566.4 114,567.1 114.1,567.9C114.4,569.9 113,571.6 110.9,571.7C110.6,572.8 110.1,573.6 109.4,574.5L109.4,576.1C109.3,577.1 109,577.8 108.3,578.5L106.7,580.1C106.5,580.3 106.2,580.1 106.1,580C105.2,578.7 107.8,578.2 107.8,575.7C106.9,576.4 105.8,576.7 104.7,576.8C103.6,576.9 101.5,576.6 100.8,576L100.7,575.5ZM107.5,559.6C108.2,559.5 108.9,559.6 109.4,560C110.1,560.4 110.5,561.2 110.6,562L111.1,565.4C112.7,563.9 112.4,560.6 111.1,559.2C109.8,557.8 110.4,558.5 110.1,558.5L108.4,558.5C108.1,556 104.9,555.5 102.6,555.7C100.3,555.9 98.2,556.9 96.8,558.8C95.4,560.7 95.6,562.1 95.8,563.2C96,564.3 95.8,564.6 96.5,565.3L97,562.2C97,561.6 97,561 97.4,560.5C97.9,559.8 99.5,559.5 100.6,559.7L102.6,560.1L105.4,560.1L107.6,559.6L107.5,559.6ZM109.7,569C109.7,568.2 109.8,567.4 109.7,566.7L109.3,564C109.1,562.6 108.9,561.1 107.7,561.3L105.4,561.7L103.7,561.7C103.7,561.8 102.4,561.7 102.4,561.7L99.8,561.3L98.5,561.3C98.5,561.4 98,566.4 98,566.4L98,569.2C98.2,572 100.2,574.4 102.9,574.8C105.6,575.2 103.8,575 104.1,574.9C107.5,574.5 109.4,572.5 109.7,569.1L109.7,569ZM96.4,569.9C96.7,569.5 96.4,569.2 96.4,568.9L96.4,566.5C95.7,566.8 95.4,567.4 95.4,568.1C95.4,568.8 95.6,569.6 96.4,569.9ZM112.5,567.9C112.5,567.2 112.1,566.7 111.4,566.5L111.2,569.7C112,569.6 112.5,568.9 112.4,567.9L112.5,567.9ZM106.2,582.3C105.5,581.5 104.4,581.5 103.6,582.1C103.8,582.4 104,582.8 104.3,583.1C105.4,582.9 106.7,582.9 106.2,582.3Z" style="fill:rgb(39,39,39);fill-rule:nonzero;"/>
            <path d="M119.6,592.1C120.5,592.9 121.7,592.6 122,593.2C122.3,593.8 121.3,596.7 119.5,596.3L111.9,594.5L107.5,593.4C107.1,593.3 106.9,593.1 106.7,592.7C106.5,592.3 106.6,591.8 107,591.8C107.8,591.8 108.6,592.2 109.5,592.4L116.4,594L119.4,594.6C119.7,594.6 120.1,594.3 120,594C119.3,593.7 118.5,593.2 118.1,592.5C117.7,591.6 117.7,590.6 118.3,589.9C117.9,588.7 118.6,587.6 119.6,587.2C120,587 120.3,586.7 120.6,586.4C121.1,585.8 121.9,585.7 122.6,585.7L124.6,578.2L125.3,575.5L122.4,575.1C122.2,575.3 121.9,575.6 121.5,575.6L120.4,575.6C120.4,575.5 116,574.8 116,574.8C115.3,574.3 115.1,573.6 115.4,572.8C115.4,572.1 115.8,571.4 116.5,571.2C117.2,571 117.9,571.2 118.5,571.3L120.1,571.6C120.8,571.7 121.7,571.6 122.3,572.2C122.9,572.8 122.7,573.4 122.7,574.1C122.9,573.9 123.2,573.7 123.5,573.8L126.1,574.3C126.8,574.4 126.8,575.4 126.7,576.1L124.2,586.2C125.6,586.8 126.4,588.1 126,589.5L125.3,590.4L125.3,591.7C125.4,592.5 125.3,593.4 124.6,593.8C123.9,594.2 123.9,593.8 123.7,593.8C123.5,593.8 123.2,593.3 123.4,593C123.8,592.4 124,592 123.9,591.3C123.8,590.6 123.9,590.4 123.3,590.1L120.7,588.9C120.3,588.7 120,588.7 119.8,589.1C119.6,589.5 119.7,589.8 120.2,590L123.3,591.1C123.5,591.3 123.3,591.7 123.3,591.9C123.3,592.1 122.7,592.3 122.3,592.2L119.9,591.5C119.7,591.5 119.5,591.3 119.3,591.5C119.1,591.7 119.1,591.9 119.3,592.1L119.6,592.1ZM121.4,573.3L118.7,572.8L117.2,572.6C116.9,572.6 116.8,573.4 117,573.4L120.6,574C120.8,574 121.1,574.1 121.2,574C121.3,573.9 121.4,573.6 121.3,573.3L121.4,573.3ZM124.1,583.1C123.9,583.1 123.7,583.1 123.7,583.2L123.7,583.5C123.7,583.4 124,583.3 124.1,583.2C124.2,583.1 124.4,583.2 124.5,583.4C124.6,583.4 124.7,583.2 124.7,583.1C124.7,583 124.5,582.9 124.5,582.8L125.2,581.7C125.3,581.5 125.4,581.4 125.4,581.2L125.8,579.5C125.8,579.4 125.7,579.1 125.8,579C125.9,578.9 125.8,578.9 126.1,578.8L126.7,576.3C126.8,575.9 127.1,575.5 126.8,574.9C126.8,575 126.8,575.1 126.6,575.2C126.6,574.8 126.6,574.4 126.3,574.2C126,574 125.9,574.2 125.9,574.4C125.8,574.1 125.6,574 125.3,574L124,574C123.5,573.9 123.1,574 123,574.6C123.4,574.9 123.9,575 124.3,574.6C124.9,575 125.4,575.2 126.2,575.1C125.7,575.6 125.4,576.3 125.4,577.1C125.8,577.5 124.9,577.6 125.4,578.4C125.3,578.4 125.1,578.2 125.1,578.2C124.9,578.4 124.8,578.6 124.9,578.7L125.1,579.1L124.8,579.1L124.8,579.5C124.5,579.6 124.6,579.8 124.5,580L124.1,581.2C124.1,581.3 124.4,581.3 124.5,581.2C124.3,581.5 123.9,581.7 124.1,582C124.3,582.3 124.4,582.8 124,582.9L124.1,583.1ZM124.5,591C124.1,591.5 124.2,591.9 124.5,592.2C124.3,592.2 124.2,592.4 124.2,592.5C124.2,592.6 124.2,592.7 124.3,592.8L124.9,593.5C124.9,592.8 125.2,592.7 125.5,592.4C125.5,592 125.4,591.4 125.5,591C125.4,590.9 125.1,591 125,591C125,590.7 125.3,590.6 125.3,590.4C125.4,589.9 125.5,589.6 125.7,589.1L125.7,588.7C125.7,588.6 126,588.6 126.1,588.4C125.7,588.3 125.6,587.6 125.4,587.4C125.1,587.1 124.4,587.1 124.2,586.7C124.7,586.5 124.2,586.1 124,586.5C123.8,585.8 124.6,585.5 124.2,584.5C124.4,584.5 124.6,584.5 124.6,584.3C124.6,584 124.2,583.5 124.1,583.5C123.9,583.5 123.7,583.6 123.6,583.7C123.1,584 123.2,584.2 123.2,584.6C123.2,585 122.7,585.4 122.9,585.8C123.1,586.2 123.2,585.8 123.2,585.8C123.2,585.8 123.2,585.9 123.1,586C123,586.1 122.8,586 122.7,586C122.6,586 122.6,586.3 122.5,586.5C122.3,586.3 122,586.1 121.8,586.1C121.5,586.1 121.4,586.3 121.2,586.5L120.8,586.5C120.7,586.5 120.5,586.5 120.6,586.7C120.6,586.7 120.8,586.8 120.7,586.9C120.6,587 120.6,586.9 120.4,587C120.5,587.2 120.8,587.5 121,587.4L121.9,586.9L123,586.9C123.2,587.1 123.5,587.5 123.9,587.1C123.9,587.3 123.9,587.6 124,587.6L124.5,587.6C125,588 125,588.6 124.9,589.2L124.5,589.2C124.4,589.2 124.5,589.4 124.5,589.5C124.3,589.5 124.1,589.7 124.2,590C123.9,590.3 124,590.7 124.3,591L124.5,591ZM124.6,589C125,587.8 124.2,587.8 123.2,587.4C122.2,587 122.1,587.2 121.7,587.6L124.6,589ZM119.2,592.2L119.2,591.4C119.7,591 120.6,591.4 121.4,591.7C121.4,591.3 121.6,591.3 122,591L121.2,591C121.2,590.7 121.5,590.6 121.5,590.5C121.2,590.5 120.9,590.5 120.9,590.6C120.9,590.7 121,590.8 120.9,591C120.6,590.5 120.2,590.1 119.7,589.8C119.9,588.7 120.6,588.6 120.5,588.2C120.4,587.8 120.4,587.9 120.2,587.7C120,587.5 120.2,587.4 120.2,587.4L119.9,587.4C119.6,587.4 119.9,587.9 119.7,587.9C119.5,587.9 119.5,587.8 119.4,587.7C119,587.9 118.8,588.8 118.9,588.8L119.1,588.8L119.1,591.1C118.8,591.1 118.3,591.5 118.5,591.8C119.4,592 118.8,592.8 119.5,593L119.3,593.2L119.9,593.5C120.2,593.2 120.6,593.2 121,593.4C121.1,593.4 121.3,593 121.2,592.9L119.5,592.1L119.2,592.2ZM124,589.6C124.2,589.6 124.3,589.4 124.1,589.2C123.9,589 124,589 123.8,589.1C123.5,589.2 123.2,589.1 123.1,588.7C123,588.3 122.4,588.4 122.1,588.2C121.8,588 121.6,587.9 121.3,588.2C121.5,588.4 121.7,588.5 122,588.6C121.9,588.9 122.6,589.4 122.6,589.4C122.8,589.4 122.8,589.2 122.9,589C122.9,589 123.1,589.6 123.3,589.2C123.1,589.6 123.3,589.7 123.5,589.7C123.9,590 124,589.7 124.2,589.5L124,589.6ZM122.9,591.7C123.1,591.7 123.2,591.9 123.3,591.8C123.4,591.8 123.4,591.5 123.4,591.5C123.4,591.4 123.1,591.1 123.1,591.5C123.1,591.3 123.2,591.3 123.1,591.1C122.9,591.4 122.5,591.4 122.2,591.3C122.2,591.5 122.1,591.7 122.2,591.9C122.3,592.1 123,592.2 123,592.1C123,592 122.9,591.9 123,591.7L122.9,591.7ZM107.3,593.1C107.5,593.1 107.5,592.8 107.5,592.6C107.5,592.4 107.1,592.3 107.1,592.5C107.1,592.7 107.2,592.9 107.3,593.1ZM107.7,592.6C107.6,592.7 107.7,592.8 107.7,592.9C107.7,593 107.9,592.9 108,592.9C108.1,592.9 108,592.7 108,592.6C108,592.5 107.8,592.4 107.6,592.6L107.7,592.6ZM111.1,593.8C111.3,593.9 111.5,593.4 111.3,593.4C110.9,593.3 110.5,593.2 110.1,592.9C109.9,592.9 109.7,593 109.6,592.9L109.6,592.5C109.6,592.4 109.3,592.5 109.3,592.5L109.3,592.7L109.1,593C109.1,593 109.1,593.2 109.2,593.1L109.4,593.1L109.4,593.5L110.3,593.7C110.3,593.4 110.5,593.3 110.7,593.3C110.9,593.3 111,593.5 111.2,593.6L111.1,593.8ZM121.2,593.6C121.2,593.8 121.4,594 121.5,593.9C121.7,593.8 121.9,593.9 121.9,593.7L121.9,593.3C121.9,593.5 121.6,593.6 121.3,593.6L121.2,593.6ZM113.6,593.7C113.4,593.4 112.6,593.3 112.5,593.6C112.4,593.9 112.5,594.3 112.8,594.5C113.1,594.7 113.3,594.9 113.6,594.7C113.3,594.4 113.6,594 113.6,593.8L113.6,593.7ZM120.7,593.7C120.6,593.9 120.7,594 120.9,593.9C121.1,593.8 121,593.9 121.1,593.8L121.1,593.6L120.8,593.6L120.7,593.7ZM117.9,594.8C117.9,594.1 117.1,595.2 117.2,594.4C117,594.4 116.9,594.4 116.6,594.5C116.4,594.2 116.1,594 115.5,594.1C115.7,594.3 115.5,594.7 115.5,594.9C115.7,595.2 116.3,595.4 116.6,595.2C116.6,595.2 116.8,595.4 117,595.4C117.2,595.4 117.3,595.1 117.4,595.1C117.7,595.3 118.1,595.8 118.7,595.5C118.6,595.1 118.3,594.8 117.9,594.7L117.9,594.8ZM119.6,596C119.9,595.6 120.3,595.6 120.8,595.6C121.3,595.6 121.1,594.7 120.9,594.5C120.7,594.3 120.3,594.5 120.1,594.8C119.8,595.1 119.3,594.9 118.9,594.8C118.8,595.2 118.7,595.6 118.9,595.9C119.1,596.2 119.4,596.2 119.6,596.1L119.6,596Z" style="fill:rgb(39,39,39);fill-rule:nonzero;"/>
            <path d="M109.1,587.7C109.1,588 108.8,588.1 108.7,588.2C108.5,588.3 108.2,588.2 108,588.2C107.6,588.1 107.4,587.8 107.5,587.4L109.8,579.4L111.6,573.1C111.9,571.9 113.5,571.6 114.7,572.1C114.7,572.3 114.8,572.9 114.6,573.1C114.2,573.4 113.6,573.4 113.1,573.6L112.6,575.4L109.1,587.8L109.1,587.7Z" style="fill:rgb(39,39,39);fill-rule:nonzero;"/>
            <path d="M93.3,590.2L91.2,584.6L90.5,583.2L90.5,582.6C90.5,582.5 91.3,582.2 91.7,582.3C92.1,582.4 92.2,582.7 92.3,583L94.6,589.7C94.8,590.2 93.5,590.7 93.3,590.2Z" style="fill:rgb(39,39,39);fill-rule:nonzero;"/>
            <path d="M121.4,582.5C121.9,582.5 122.2,582.9 122.1,583.3C122,583.7 121.8,584.2 121.4,584.1L116.5,583.1C116.2,583.1 116.4,581.8 116.7,581.9L121.4,582.6L121.4,582.5Z" style="fill:rgb(39,39,39);fill-rule:nonzero;"/>
            <path d="M123.1,579C122.6,579.4 122.1,579 121.6,579L118.9,578.5C118.5,578.5 118.2,578.5 118,578.1C117.8,577.7 117.8,577.4 118,577.1C118.2,576.8 118.6,576.8 119,576.9L123,577.7C123.4,577.7 123.3,578.7 123,578.9L123.1,579Z" style="fill:rgb(39,39,39);fill-rule:nonzero;"/>
            <path d="M122.5,580.2C122.6,580.2 122.8,581.3 122.5,581.6C122.2,581.9 122.2,581.6 121.9,581.6L118.2,580.9C117.7,580.9 117.4,580.5 117.5,580.1C117.6,579.7 117.9,579.2 118.5,579.4L122.7,580.3L122.5,580.2Z" style="fill:rgb(39,39,39);fill-rule:nonzero;"/>
            <path d="M115.9,587.3C115.9,587.5 115.9,587.8 115.8,587.9C115.7,588 115.4,588.1 115.1,588.1L111.3,587.2C110.9,587.2 110.9,586.3 111.1,586C111.3,585.7 111.4,585.8 111.6,585.8L114.9,586.5C115.4,586.5 115.7,586.7 115.8,587.3L115.9,587.3Z" style="fill:rgb(39,39,39);fill-rule:nonzero;"/>
            <path d="M115.3,583.2L114.1,584C113.6,584.3 112.9,584.2 112.5,583.7L111.8,582.6C111.6,582.2 111.8,581.8 112.2,581.7C112.8,581.4 113.4,582.7 113.8,582.5L115,581.8C115.5,581.8 115.8,582 115.8,582.4C115.8,582.8 115.7,583 115.3,583.3L115.3,583.2Z" style="fill:rgb(39,39,39);fill-rule:nonzero;"/>
            <path d="M116.8,577.3C117.3,577.9 116,578.9 114.9,579.4C113.8,579.9 113.7,579.3 113.4,578.8C113.1,578.3 112.7,577.9 113.2,577.2C113.7,576.5 114.5,577.7 114.7,577.7C114.9,577.7 115.1,577.7 115.2,577.5L116,576.9C116.3,576.7 116.7,576.9 116.9,577.2L116.8,577.3Z" style="fill:rgb(39,39,39);fill-rule:nonzero;"/>
            <path d="M119.5,586.3L116.9,585.8C116.5,585.8 116.2,585.5 116.2,585.1C116.2,584.7 116.4,584.3 116.8,584.3L119.6,584.8C120.1,584.8 120.5,585.1 120.4,585.6C120.3,586.1 120,586.4 119.5,586.3Z" style="fill:rgb(39,39,39);fill-rule:nonzero;"/>
            <path d="M109,591.1L106.1,589.8C106.2,590.6 106.1,591.3 105.7,591.9C105.7,591.2 106.1,590.5 105.9,589.6L108.7,590.7L109,590.7L109,591.1Z" style="fill:rgb(39,39,39);fill-rule:nonzero;"/>
            <path d="M106.1,586.3C104.3,585.3 102.1,586.3 101.5,585.4C101.8,585.4 102,585.6 102.3,585.6L104.7,585.6C105.3,585.6 105.7,586 106.1,586.3Z" style="fill:rgb(39,39,39);fill-rule:nonzero;"/>
            <path d="M105,588.1L105,588.4C105,588.5 104.7,588.4 104.7,588.4C104.1,588.3 103.6,588.5 103.1,588.5C103.7,588.1 104.4,588.2 105.1,588.2L105,588.1Z" style="fill:rgb(39,39,39);fill-rule:nonzero;"/>
            <path d="M100.7,575.5C100.4,575.6 100.3,575.3 100.1,575.3C100.4,575.2 100.5,575.4 100.7,575.5Z" style="fill:rgb(39,39,39);fill-rule:nonzero;"/>
            <path d="M124.1,583.1C124.5,582.9 124.4,582.4 124.2,582.2C124,582 124.4,581.7 124.6,581.4C124.5,581.5 124.1,581.4 124.2,581.4L124.6,580.2C124.6,580 124.6,579.8 124.9,579.7C124.8,579.6 124.7,579.3 124.9,579.3L125.2,579.3L125,578.9C125,578.8 125,578.5 125.2,578.4C125.2,578.4 125.4,578.7 125.5,578.6C124.9,577.9 125.8,577.7 125.5,577.3C125.5,576.5 125.9,575.9 126.3,575.3C125.6,575.4 125,575.2 124.4,574.8C124,575.2 123.5,575.1 123.1,574.8C123.3,574.3 123.6,574.1 124.1,574.1L125.4,574.1C125.7,574.2 125.9,574.3 126,574.6C126,574.5 126.3,574.3 126.4,574.4C126.7,574.7 126.6,575.1 126.7,575.4C126.7,575.3 126.8,575.2 126.9,575.1C127.2,575.7 126.9,576.1 126.8,576.5L126.2,579C126,579 125.9,579.1 125.9,579.2L125.9,579.7L125.5,581.4C125.5,581.6 125.4,581.7 125.3,581.9L124.6,583C124.6,583.1 124.7,583.3 124.8,583.3C124.9,583.3 124.8,583.5 124.6,583.6C124.6,583.4 124.3,583.3 124.2,583.4C124,583.4 123.8,583.5 123.8,583.7L123.8,583.4C123.8,583.4 124,583.4 124.2,583.3L124.1,583.1Z" style="fill:rgb(39,39,39);fill-rule:nonzero;"/>
            <path d="M124.5,591C124.2,590.7 124.1,590.3 124.4,590C124.4,589.7 124.5,589.6 124.7,589.5L124.7,589.2C124.7,589.2 125,589.1 125.1,589.2C125.2,588.7 125.2,588 124.7,587.7L124.2,587.7C124.1,587.6 124,587.3 124.1,587.1C123.7,587.4 123.4,587.1 123.2,587.1L122.1,587.1C122.1,587 121.2,587.4 121.2,587.4C121,587.5 120.7,587.2 120.6,587C120.8,587 120.8,587 120.9,586.9C121,586.8 120.9,586.8 120.8,586.7C120.8,586.6 120.9,586.4 121,586.5C121.1,586.6 121.3,586.6 121.4,586.5C121.6,586.3 121.7,586.1 122,586.1C122.3,586.1 122.4,586.3 122.7,586.5C122.7,586.3 122.7,586.1 122.9,586C123.1,585.9 123.2,586 123.3,586C123.4,586 123.4,585.8 123.4,585.8L123.1,585.8C122.9,585.4 123.3,584.9 123.4,584.6C123.5,584.3 123.4,583.9 123.8,583.7C124.2,583.5 124.1,583.5 124.3,583.5C124.5,583.5 124.8,584 124.8,584.3C124.8,584.6 124.6,584.5 124.4,584.5C124.8,585.6 124,585.8 124.2,586.5C124.5,586.1 124.9,586.5 124.4,586.7C124.6,587.1 125.3,587.1 125.6,587.4C125.9,587.7 125.8,588.2 126.3,588.4C126.1,588.6 126,588.7 125.9,588.7C125.8,588.7 125.9,589 125.9,589.1C125.7,589.5 125.6,589.9 125.5,590.4C125.4,590.9 125.1,590.7 125.2,591C125.3,591 125.6,590.8 125.7,591C125.5,591.4 125.7,592 125.7,592.4C125.4,592.7 125,592.8 125.1,593.5L124.5,592.8C124.5,592.8 124.4,592.6 124.4,592.5C124.4,592.4 124.5,592.3 124.7,592.2C124.4,591.8 124.3,591.4 124.7,591L124.5,591Z" style="fill:rgb(39,39,39);fill-rule:nonzero;"/>
            <path d="M119.2,592.2L120.9,593C120.9,593 120.9,593.5 120.7,593.5C120.3,593.3 119.9,593.3 119.6,593.6L119,593.3C119,593.3 119,593.1 119.2,593.1C118.5,592.9 119.2,592.1 118.2,591.9C118,591.6 118.5,591.3 118.8,591.2L118.8,588.9L118.6,588.9C118.6,588.9 118.8,588 119.1,587.8C119.1,587.8 119.3,588 119.4,588C119.7,588 119.4,587.6 119.6,587.5C119.8,587.4 119.8,587.5 119.9,587.5C120,587.5 119.9,587.8 119.9,587.8C120.1,588 120.1,588.2 120.2,588.3C120.3,588.7 119.7,588.8 119.4,589.9C119.9,590.2 120.3,590.6 120.6,591.1C120.7,590.9 120.6,590.8 120.6,590.7C120.6,590.6 120.9,590.5 121.2,590.6C121.2,590.6 121,590.8 120.9,591L121.7,591C121.3,591.3 121.2,591.4 121.1,591.8C120.4,591.4 119.5,591.1 118.9,591.5L118.9,592.3L119.2,592.2Z" style="fill:rgb(39,39,39);fill-rule:nonzero;"/>
            <path d="M117.9,594.8C118.2,595 118.6,595.2 118.7,595.6C118.2,595.9 117.7,595.4 117.4,595.2C117.4,595.2 117.1,595.4 117,595.5C116.9,595.5 116.7,595.4 116.6,595.3C116.3,595.5 115.7,595.3 115.5,595C115.5,594.8 115.7,594.4 115.5,594.2C116,594.2 116.4,594.2 116.6,594.6C116.8,594.5 117,594.5 117.2,594.5C117.1,595.3 117.9,594.2 117.9,594.9L117.9,594.8Z" style="fill:rgb(39,39,39);fill-rule:nonzero;"/>
            <path d="M119.6,596C119.4,596 119,596 118.9,595.8C118.8,595.5 118.9,595.1 118.9,594.7C119.3,594.8 119.8,595 120.1,594.7C120.4,594.4 120.7,594.1 120.9,594.4C121.1,594.7 121.1,595.5 120.8,595.5C120.3,595.5 119.9,595.5 119.6,595.9L119.6,596Z" style="fill:rgb(39,39,39);fill-rule:nonzero;"/>
            <path d="M124,589.6C123.9,589.8 123.7,590 123.3,589.8C123.2,589.8 122.9,589.7 123.1,589.3C122.9,589.7 122.7,589.3 122.7,589.1C122.7,589.3 122.7,589.4 122.4,589.5C122.1,589.6 121.7,589.1 121.8,588.7C121.6,588.6 121.4,588.5 121.1,588.3C121.5,588 121.6,588.2 121.9,588.3C122.2,588.4 122.7,588.3 122.9,588.8C123.1,589.3 123.3,589.3 123.6,589.2C123.9,589.1 123.9,589.2 123.9,589.3C124.1,589.4 124,589.6 123.8,589.7L124,589.6Z" style="fill:rgb(39,39,39);fill-rule:nonzero;"/>
            <path d="M111.1,593.8C110.9,593.7 110.8,593.5 110.6,593.5C110.4,593.5 110.3,593.5 110.2,593.9L109.3,593.7C109.3,593.5 109.4,593.4 109.3,593.2L109.1,593.2C109,593.4 109,593.2 109,593.2L109,592.9C109.1,592.9 109.2,592.7 109.2,592.7L109.5,592.7C109.5,592.7 109.6,592.9 109.5,593.1L110,593.1C110.4,593.4 110.7,593.4 111.2,593.6C111.7,593.8 111.2,594.1 111,594L111.1,593.8Z" style="fill:rgb(39,39,39);fill-rule:nonzero;"/>
            <path d="M113.6,593.7C113.6,593.9 113.3,594.3 113.6,594.6C113.2,594.8 113,594.6 112.8,594.4C112.6,594.2 112.3,593.9 112.5,593.5C112.7,593.1 113.4,593.3 113.6,593.6L113.6,593.7Z" style="fill:rgb(39,39,39);fill-rule:nonzero;"/>
            <path d="M122.9,591.7C122.9,591.9 123,592 122.9,592.1C122.9,592.1 122.1,592 122.1,591.9L122.1,591.3C122.4,591.4 122.8,591.4 123,591.1C123.2,591.3 123.2,591.3 123,591.5C123,591 123.4,591.3 123.3,591.5C123.2,591.7 123.3,591.8 123.2,591.8C123.1,591.8 123,591.8 122.8,591.7L122.9,591.7Z" style="fill:rgb(39,39,39);fill-rule:nonzero;"/>
            <path d="M107.3,593.1C107.2,592.9 107.1,592.7 107.1,592.5C107.1,592.4 107.5,592.5 107.5,592.6C107.5,592.7 107.5,593.1 107.3,593.1Z" style="fill:rgb(39,39,39);fill-rule:nonzero;"/>
            <path d="M121.2,593.6C121.5,593.6 121.7,593.6 121.8,593.3C121.8,593.5 121.9,593.6 121.8,593.7C121.8,593.7 121.5,593.7 121.4,593.9C121.4,593.9 121.1,593.9 121.1,593.6L121.2,593.6Z" style="fill:rgb(39,39,39);fill-rule:nonzero;"/>
            <path d="M107.7,592.6C107.9,592.4 108,592.6 108.1,592.6C108.2,592.6 108.1,592.8 108.1,592.9C108.1,593 107.8,592.9 107.8,592.9C107.8,592.9 107.6,592.7 107.8,592.6L107.7,592.6Z" style="fill:rgb(39,39,39);fill-rule:nonzero;"/>
            <path d="M120.7,593.7L121,593.7C121.1,593.7 121.1,593.7 121,593.9C120.9,594.1 120.9,594 120.8,594C120.7,594 120.5,594 120.6,593.8L120.7,593.7Z" style="fill:rgb(39,39,39);fill-rule:nonzero;"/>
        </g>
        <path d="M106.3,571.8C104.7,572.8 100.9,572.6 100.9,571.3C100.9,570 101,570.5 101.4,570.6L103.4,570.6C104.4,570.8 105.3,570.6 106.2,570.3C107.1,570 106.7,570.8 106.6,571C106.5,571.2 106.5,571.6 106.2,571.7L106.3,571.8Z" style="fill:rgb(39,39,39);fill-rule:nonzero;"/>
        <path d="M102.7,566.3C100.7,564.8 99.7,566.7 99,566.2C98.3,565.7 98.6,565.8 98.7,565.6C99.1,564.6 100,564.3 101,564.3C102,564.3 102.8,564.4 103.3,565.3C103.3,565.6 103,566.1 102.7,566.3Z" style="fill:rgb(39,39,39);fill-rule:nonzero;"/>
        <path d="M106.7,565.7C106.3,565.7 105.4,566.5 104.9,565.7C104.4,564.9 104.9,565 105.2,564.7C106.5,563.6 108.6,564.6 108.8,565.4C109,566.2 108.8,566.1 108.5,566.2C108,566.2 107.4,565.8 106.7,565.8L106.7,565.7Z" style="fill:rgb(39,39,39);fill-rule:nonzero;"/>
        <path d="M101.3,568C100.7,568.3 100.2,568 100,567.6C99.8,567.2 100,566.6 100.7,566.4C101.4,566.2 101.5,566.5 101.6,566.9C101.7,567.3 101.7,567.8 101.2,568L101.3,568Z" style="fill:rgb(39,39,39);fill-rule:nonzero;"/>
        <path d="M107.3,567.8C106.9,568.1 106.2,568 106,567.6C105.8,567.2 106,566.5 106.4,566.3C106.8,566.1 107.3,566.3 107.5,566.7C107.7,567.1 107.6,567.5 107.3,567.8Z" style="fill:rgb(39,39,39);fill-rule:nonzero;"/>
    </g>
</svg>
