<?xml version="1.0" encoding="UTF-8" standalone="no"?>
<!DOCTYPE svg PUBLIC "-//W3C//DTD SVG 1.1//EN" "http://www.w3.org/Graphics/SVG/1.1/DTD/svg11.dtd">
<svg width="100%" height="100%" viewBox="0 0 70 63" version="1.1" xmlns="http://www.w3.org/2000/svg" xmlns:xlink="http://www.w3.org/1999/xlink" xml:space="preserve" xmlns:serif="http://www.serif.com/" style="fill-rule:evenodd;clip-rule:evenodd;stroke-linejoin:round;stroke-miterlimit:2;">
    <g transform="matrix(1,0,0,1,-180.2,-195.944444)">
        <path d="M232.2,258.4C231,258.5 230.1,258.4 229.1,257.8C220.7,253.5 214.9,245.8 213.4,236.4C211.9,227 212.5,227.5 212.7,223C219.7,222.7 226.1,220.6 231.5,216.6L235.5,219.2C239.8,222 244.8,223.1 250.1,223.1C250.1,228 250,232.6 249.1,237.4C247.3,246.9 241.3,254.6 232.3,258.4L232.2,258.4ZM230,245.3L236.5,238L242,231.7L238.9,228.7L229.9,238.2L225,233.1L221.8,236.6L230.1,245.2L230,245.3Z" style="fill:rgb(39,39,39);fill-rule:nonzero;"/>
        <path d="M185.4,251.8L218.1,251.8L221.3,255.6L182.5,255.6C181.2,255.6 180.5,254.7 180.2,253.5L180.2,206.6C180.2,205.1 180.9,203.7 182.6,203.7L190.7,203.7L190.7,207.9L185.7,207.9C185,207.9 184.4,208.5 184.4,209.3L184.4,250.4C184.4,250.9 184.8,251.5 185.4,251.8Z" style="fill:rgb(39,39,39);fill-rule:nonzero;"/>
        <path d="M193.9,210.1C193.2,210.1 192.7,209.5 192.7,209L192.7,203.2C192.7,202.6 193.3,202 193.8,202L198.9,202C198.6,199.8 199.5,198.3 200.9,197.1C202.3,195.9 204.2,195.7 206,196.2C207.8,196.7 210,199.2 209.7,201.9L216,201.9L216,210L193.9,210L193.9,210.1ZM205.7,201.6C206.6,200.7 205.9,199.4 205.3,199.1C204.7,198.8 203.4,198.8 202.9,199.4C202.4,200 202.3,201.4 203,201.8C203.7,202.2 205.2,202.1 205.7,201.6Z" style="fill:rgb(39,39,39);fill-rule:nonzero;"/>
        <path d="M224.9,218.3L224.9,209.4C224.7,208.5 224.1,207.8 223.3,207.8L217.8,207.8L217.8,203.6L225.9,203.6C227.6,203.6 228.8,205.1 228.8,206.7L228.8,215.6L225,218.3L224.9,218.3Z" style="fill:rgb(39,39,39);fill-rule:nonzero;"/>
        <path d="M217.5,220.1L200,220.1C199.6,220.1 199.1,219.4 199,219.1C198.9,218.8 199.4,217.7 199.8,217.7L218.7,217.7C219,218.1 219.1,218.9 219,219.3C218.9,219.7 218.2,220.2 217.6,220.2L217.5,220.1Z" style="fill:rgb(39,39,39);fill-rule:nonzero;"/>
        <path d="M190.9,221.7L187.7,218.1C187.7,217.4 188.7,216.2 189.3,216.4C190.2,216.8 190.8,217.5 191.5,218.2L195.4,214.3C195.8,213.9 196.7,214.3 197,214.6C197.3,214.9 197.5,215.9 197.1,216.3L192.2,221.5C192,221.7 191.2,222 191,221.8L190.9,221.7Z" style="fill:rgb(39,39,39);fill-rule:nonzero;"/>
        <path d="M190.9,231.7L188.1,228.5C187.6,227.9 188.9,226.3 189.6,226.8L191.6,228.3L195.3,224.5C195.7,224.1 196.7,224.5 197,225C197.3,225.6 197.2,226.4 196.6,227L192.2,231.7C192,232 191,231.9 190.8,231.7L190.9,231.7Z" style="fill:rgb(39,39,39);fill-rule:nonzero;"/>
        <path d="M187.8,238.7C187.6,238.2 188.6,237 189.2,236.8L191.6,238.8L195.4,235C195.7,234.7 196.8,235.3 197,235.6C197.2,235.9 197.1,236.8 196.7,237.3L191.6,242.7L187.7,238.6L187.8,238.7Z" style="fill:rgb(39,39,39);fill-rule:nonzero;"/>
        <path d="M210.4,239.8L200.2,239.8C199.6,239.8 199,239.4 198.8,238.9C198.6,238.4 199.2,237.5 199.9,237.5L210.2,237.5C210.5,238.1 210.5,239 210.2,239.9L210.4,239.8Z" style="fill:rgb(39,39,39);fill-rule:nonzero;"/>
        <path d="M209.8,230L200,230C199.5,230 198.9,229.5 198.9,229.1C198.9,228.7 199.2,227.7 199.6,227.7L209.8,227.7C210.5,227.7 210.5,229.9 209.8,229.9L209.8,230Z" style="fill:rgb(39,39,39);fill-rule:nonzero;"/>
    </g>
</svg>
