<?xml version="1.0" encoding="UTF-8" standalone="no"?>
<!DOCTYPE svg PUBLIC "-//W3C//DTD SVG 1.1//EN" "http://www.w3.org/Graphics/SVG/1.1/DTD/svg11.dtd">
<svg width="100%" height="100%" viewBox="0 0 44 42" version="1.1" xmlns="http://www.w3.org/2000/svg" xmlns:xlink="http://www.w3.org/1999/xlink" xml:space="preserve" xmlns:serif="http://www.serif.com/" style="fill-rule:evenodd;clip-rule:evenodd;stroke-linejoin:round;stroke-miterlimit:2;">
    <g transform="matrix(1,0,0,1,-84.5,-634.966243)">
        <g>
            <path d="M121.9,655.6C121.3,655.8 120.7,655.6 120.2,655.6L120.2,647.1L86.3,647.1L86.3,667.5C86.6,668 87.1,668.2 87.7,668.2L105.7,668.2C106.1,668.4 106.1,669.1 106.1,669.4C106.1,669.7 106,670 105.6,670L87.2,670C85.6,670 84.5,668.4 84.5,667L84.5,641.3C84.5,639.8 85.6,638.3 87.1,638.3L91.4,638.3C91.5,638.9 91.4,639.4 91.4,639.9L87.8,639.9C87.1,639.9 86.5,640.4 86.5,641.1L86.5,645.5L120.3,645.5L120.3,641.4C120.3,641.1 120,640.4 119.7,640.2C118.6,639.5 117.4,639.7 116.1,639.7L116.1,638.1L119,638.1C121,638.3 122,640 122,642L122,655.5L121.9,655.6Z" style="fill:rgb(39,39,39);fill-rule:nonzero;"/>
            <path d="M94.2,664.8L89.8,664.8C89.5,664.8 89.1,664.2 89.1,663.9L89.1,659.2C89.1,658.9 89.4,658.7 89.6,658.4L94.9,658.4C95.3,658.4 95.6,658.8 95.6,659.2L95.6,663.7C95.6,664.5 95,664.9 94.2,664.9L94.2,664.8ZM93.8,663L93.8,660.2L90.8,660.2L90.8,663L93.8,663Z" style="fill:rgb(39,39,39);fill-rule:nonzero;"/>
            <path d="M106,655.7L100.7,655.7C100.4,655.7 99.9,655.4 99.9,655.1L99.9,650.2C99.9,649.6 100.5,649.4 101,649.4L104.7,649.4C105.3,649.4 106.5,649.4 106.5,650.2L106.5,655C106.5,655.2 106.3,655.7 106,655.7ZM104.8,654L104.8,651.1L101.5,651.1L101.5,654.1L104.7,654.1L104.8,654Z" style="fill:rgb(39,39,39);fill-rule:nonzero;"/>
            <path d="M116.1,655.6L110.7,655.6C110.5,655.6 110,655.2 110,654.9L110,650.2C110,649.4 111.1,649.4 111.6,649.4L113.1,649.4L116.1,649.5C116.8,649.5 116.8,650.6 116.8,651.2L116.8,654C116.8,654.5 116.8,655.6 116.1,655.6ZM115.1,654L115.1,651L111.8,651L111.8,654L115.1,654Z" style="fill:rgb(39,39,39);fill-rule:nonzero;"/>
            <path d="M95.6,654.6C95.6,655.2 95.3,655.7 94.7,655.7L89.9,655.7C89.6,655.7 89.1,655.2 89.1,655L89.1,650.8C89.1,650.3 89.3,649.5 89.9,649.5L92.1,649.5C92.7,649.4 93.2,649.5 93.9,649.4C94.6,649.3 94.7,649.5 95,649.6C95.6,649.7 95.7,650.3 95.7,650.8L95.7,654.6L95.6,654.6ZM93.8,654.1L93.8,651.1L90.8,651.1L90.8,654.1L93.8,654.1Z" style="fill:rgb(39,39,39);fill-rule:nonzero;"/>
            <path d="M94.3,643.1C93.1,643.3 91.9,642.2 91.9,641.1L91.9,637.5C91.9,636.2 92.9,635.2 94.1,635C95.3,634.8 96.8,635.5 96.9,636.8L96.9,641.7C96.5,642.7 95.6,643.4 94.3,643.2L94.3,643.1ZM95.1,641L95.1,637.1C95.1,636.7 94.3,636.7 94.1,636.8C93.9,636.9 93.6,637.2 93.6,637.6L93.6,640.6C93.6,641 93.9,641.4 94.2,641.5C94.5,641.6 95.1,641.4 95.1,641Z" style="fill:rgb(39,39,39);fill-rule:nonzero;"/>
            <path d="M115,641.2C115,642.3 114.1,643 112.8,643.2C111.5,643.4 110,642.7 110,641.2L110,637.8C110,636.8 110.2,635.9 111,635.4C111.8,634.9 112.7,634.8 113.8,635.3C114.9,635.8 115.1,636.2 115.1,636.9L115.1,641.2L115,641.2ZM113.3,640.5L113.3,637.8C113.3,637.2 113.3,636.7 112.6,636.7C111.9,636.7 111.8,637 111.8,637.5L111.8,640.7C111.8,641.2 112.4,641.5 112.7,641.4C113.3,641.2 113.4,641 113.4,640.4L113.3,640.5Z" style="fill:rgb(39,39,39);fill-rule:nonzero;"/>
            <path d="M106.6,660.8L105,662.5L103.9,663.5C103.7,663.7 103.4,663.9 103.2,663.9C102.5,663.9 102.3,663 101.6,663C101.7,663.7 101.9,664.3 101.4,664.7C100.9,665.1 100.5,664.9 100.2,664.8C99.9,664.7 99.9,664.4 99.9,664.1L99.9,659.3C99.9,658.8 100.3,658.4 100.8,658.4L105,658.4C105.4,658.4 105.6,659.1 105.6,659.3C105.6,659.5 105.1,660.1 104.7,660.1L101.8,660.1L101.8,661C101.8,661 103.1,661.8 103.3,661.8C103.6,661.8 103.9,661.6 104.2,661.3L105.6,660C105.8,659.8 106.4,659.5 106.6,659.8C106.7,660 106.9,660.5 106.6,660.8Z" style="fill:rgb(39,39,39);fill-rule:nonzero;"/>
            <path d="M109.2,639.9L97.7,639.9C97.4,639.4 97.4,638.8 97.5,638.3L109.1,638.3C109.3,638.8 109.3,639.3 109.1,639.9L109.2,639.9Z" style="fill:rgb(39,39,39);fill-rule:nonzero;"/>
        </g>
        <g>
            <path d="M127.5,668.1C126.4,673.5 121.7,676.6 116.2,676.3C111.9,676.1 108,673.5 106.6,669.5C105.7,666.8 105.9,664 107.4,661.5C109.1,658.7 112,657 115.3,656.6L118.5,656.6C120.7,656.8 122.7,657.8 124.3,659.2C126.8,661.5 128.1,664.6 127.4,668L127.5,668.1ZM120.9,673.7L121.9,673.2C124.3,672 125.7,669.6 125.9,666.8C126.1,664.4 124.9,662.1 123.1,660.5C118.8,656.6 111.2,657.9 108.7,663C108.1,664.3 107.9,665.4 108,666.9C108.2,671.3 112.4,674.5 116.4,674.6L117.5,674.6C118.7,674.6 119.8,674.3 120.9,673.7Z" style="fill:rgb(39,39,39);fill-rule:nonzero;"/>
            <path d="M121.7,667.5L116.7,667.5C116.4,667.5 115.8,667.1 115.8,666.8L115.8,660.3C115.8,660 116.2,659.6 116.5,659.6C116.8,659.6 117.4,659.8 117.5,660.2L117.5,666L121.2,666C121.8,666 122.1,666.2 122.3,666.6C122.5,667 122.3,667.6 121.7,667.6L121.7,667.5Z" style="fill:rgb(39,39,39);fill-rule:nonzero;"/>
        </g>
    </g>
</svg>
