<?xml version="1.0" encoding="UTF-8" standalone="no"?>
<!DOCTYPE svg PUBLIC "-//W3C//DTD SVG 1.1//EN" "http://www.w3.org/Graphics/SVG/1.1/DTD/svg11.dtd">
<svg width="100%" height="100%" viewBox="0 0 72 63" version="1.1" xmlns="http://www.w3.org/2000/svg" xmlns:xlink="http://www.w3.org/1999/xlink" xml:space="preserve" xmlns:serif="http://www.serif.com/" style="fill-rule:evenodd;clip-rule:evenodd;stroke-linejoin:round;stroke-miterlimit:2;">
    <g transform="matrix(1,0,0,1,-30.9,-196.7)">
        <path d="M69.8,251L40.6,251L40.6,223.8L50.5,217.6L67.2,207.3L82,216.9C76.5,220.4 70.6,222.2 64.1,222.8L64.1,234.2C64.6,240.3 66.1,246 69.7,251.1L69.8,251ZM49.8,227.2L49.8,238.5L59.8,238.5L59.8,227.2L49.8,227.2Z" style="fill:rgb(39,39,39);fill-rule:nonzero;"/>
        <path d="M102.5,219.1C102.2,220.4 101.5,221.6 100.9,222.8L94.8,221.1C91.3,219.9 88.3,218.2 85.2,216.1L67.6,204.3L35,224.6L30.9,219.1L67.2,196.7L83.2,206.9L83.4,203L92.6,203L92.6,213.2L102.6,219.1L102.5,219.1Z" style="fill:rgb(39,39,39);fill-rule:nonzero;"/>
        <path d="M98.2,246.7C95.1,252.5 90.4,256.7 84.3,259C75.4,255.9 69,248.4 67,239.1C66,234.3 65.9,229.5 66.5,224.5C71.8,224.2 76.7,222.5 81.3,220.2L84.1,218.8L90.5,222.2C94.1,223.7 97.7,224.2 101.7,224.6L101.7,234.7C101.7,238.9 100.3,242.8 98.3,246.7L98.2,246.7ZM84.4,254C90.5,250.8 94.6,245.4 96.3,238.8C97.2,235.1 97.3,231.3 97.2,227.4C92.3,226.8 88.1,225.5 84,222.9C79.8,225.2 75.6,226.9 70.6,227.5L70.6,234.3C71.7,242.7 76.3,250.8 84.5,254L84.4,254Z" style="fill:rgb(39,39,39);fill-rule:nonzero;"/>
        <path d="M91.8,246.4L85.7,246.4L85.7,240.2L82.4,240.2L82.4,246.5L76.4,246.5L76.4,238.1L74.7,238.1C74.4,238.1 73.8,237.9 73.8,237.6C73.8,237.3 74,236.9 74.2,236.7L84,229.2L88.5,232.4L88.8,230.8L91.9,230.8L91.9,235.3L94.8,236.8C94.9,237 94.9,237.9 94.8,238.2L91.8,238.2L91.8,246.6L91.8,246.4Z" style="fill:rgb(39,39,39);fill-rule:nonzero;"/>
    </g>
</svg>
