<?xml version="1.0" encoding="UTF-8" standalone="no"?>
<!DOCTYPE svg PUBLIC "-//W3C//DTD SVG 1.1//EN" "http://www.w3.org/Graphics/SVG/1.1/DTD/svg11.dtd">
<svg width="100%" height="100%" viewBox="0 0 75 56" version="1.1" xmlns="http://www.w3.org/2000/svg" xmlns:xlink="http://www.w3.org/1999/xlink" xml:space="preserve" xmlns:serif="http://www.serif.com/" style="fill-rule:evenodd;clip-rule:evenodd;stroke-linejoin:round;stroke-miterlimit:2;">
    <g transform="matrix(1,0,0,1,-34.2,-64.149665)">
        <path d="M58.4,108.1L40.7,111.4L40.7,102.9L58.7,102.5C60.3,101.4 60.2,98.8 59,97.3L55.6,93.1L59,94L72.9,98.4L67.1,101.9C68.2,104 68,106.4 66.4,107.9C63.5,110.5 60.3,107.9 58.5,108.2L58.4,108.1Z" style="fill:rgb(39,39,39);fill-rule:nonzero;"/>
        <path d="M39,111.2C39,112.3 39.7,113 40.6,113L44.6,113L44.6,120L34.2,120L34.2,94.1L42.8,94.1L42.8,100.3C41,100.3 39.2,101.4 39.2,103.1L39.2,111.3L39,111.2Z" style="fill:rgb(39,39,39);fill-rule:nonzero;"/>
        <path d="M100.2,86.2C98.2,81.6 90.3,84 86.1,89.1C85.6,89.8 84.9,90.1 84,89.8L56.7,80.8L44,76.8L47.3,66.4C47.9,64.5 49.8,63.7 51.6,64.4L57.4,66.3L108.6,83.8C107.1,87.9 105.6,91.6 103.8,95.6C102.8,95.3 101.8,94.8 100.9,94.1C101.1,91.3 101.1,88.6 100,86.1L100.2,86.2Z" style="fill:rgb(39,39,39);fill-rule:nonzero;"/>
        <path d="M94.5,102.7C92.3,103.2 90.4,102.6 88.3,101.9L65.9,94.3L46.7,88C43.9,87.1 45.4,82.9 46.8,79.7L83.8,91.8C84.6,92.1 85.3,91.8 86,91.3C85.2,93.9 86,96.5 87.2,98.7C89.3,102.2 93.4,103.2 96.8,101.2C96.1,101.9 95.3,102.3 94.4,102.8L94.5,102.7Z" style="fill:rgb(39,39,39);fill-rule:nonzero;"/>
        <path d="M97,98.9C94.9,101.3 91.4,101 89.6,98.5C87.8,96 87.7,92.8 88.9,90.1C89.8,87.9 91.6,86.4 93.9,86.1C96.2,85.8 97.5,87 98.4,88.7C100.1,92 99.6,96 97.1,98.9L97,98.9ZM92.5,93.6C93.3,92 93.2,89.8 92.1,88.5C91,87.2 90.5,88.7 90.2,89.3C89.6,91 89.1,92.9 90.3,94.4C91.5,95.9 92.1,94.4 92.5,93.6Z" style="fill:rgb(39,39,39);fill-rule:nonzero;"/>
    </g>
</svg>
