<?xml version="1.0" encoding="UTF-8" standalone="no"?>
<!DOCTYPE svg PUBLIC "-//W3C//DTD SVG 1.1//EN" "http://www.w3.org/Graphics/SVG/1.1/DTD/svg11.dtd">
<svg width="100%" height="100%" viewBox="0 0 48 39" version="1.1" xmlns="http://www.w3.org/2000/svg" xmlns:xlink="http://www.w3.org/1999/xlink" xml:space="preserve" xmlns:serif="http://www.serif.com/" style="fill-rule:evenodd;clip-rule:evenodd;stroke-linejoin:round;stroke-miterlimit:2;">
    <g transform="matrix(1,0,0,1,-82.280385,-401.341589)">
        <path d="M98.3,429C98.5,429.4 98.5,429.9 98.3,430.4L95,430.4C94.4,430.4 94.2,430 94.2,429.5L94.2,419.2L86.4,419.2C85.9,419.2 85.7,418.1 86.1,417.9C86.8,417.5 87.6,417.8 88.3,417.7C89,417.6 89.3,417.7 89.8,417.7C90.7,417.7 91.5,417.5 92.4,417.7C93.3,417.9 93.6,417.8 94.2,417.7L94.2,413.6C94.2,413.3 94.7,412.8 95,412.8L115.8,412.8C116.3,412.8 116.9,413.3 116.9,413.7L116.9,429.1L119.1,429.2C119.4,429.4 119.3,430.2 119,430.6L106.2,430.6C106.2,430.1 106.1,429.7 106.2,429.2L115.4,429.2L115.4,414.4L95.9,414.4L95.9,428.8C95.9,429.1 96.1,429.2 96.3,429.2L98.3,429.2L98.3,429Z" style="fill:rgb(39,39,39);fill-rule:nonzero;"/>
        <path d="M121.9,408C120.5,408 119,407.8 117.6,407.7C116.3,407.9 115.2,406.4 117,406.3L118.5,406.5C119.2,406.5 119.5,406.5 119.2,406.4C117.7,405.5 116.1,404.6 114.3,404C112.5,403.4 111.1,402.9 109.3,402.9L106.3,402.9C102,403.2 98,404.9 94.9,407.8C91.8,410.7 93.8,408.8 93.3,409.4C92.1,410.9 91.1,412.3 90.3,414C89.5,415.7 89.5,414.1 89.3,414C89.1,413.9 88.9,413.3 89.1,412.9C90.3,410.4 92,408.2 94.1,406.3C97.1,403.7 101.4,401.7 105.4,401.4C109.4,401.1 115.4,401.9 120,405.1C120,404.4 119.5,404 119.4,403.4C119.3,402.8 119.6,402.8 119.9,402.7C121,402.3 122.1,405.7 122.5,407.3C122.9,408.9 122.4,407.7 122.3,407.8C122.2,407.9 122,407.8 121.9,407.8L121.9,408Z" style="fill:rgb(39,39,39);fill-rule:nonzero;"/>
        <path d="M120.3,433.4C120,434.7 119.4,436 118.6,437C117.8,438 117.9,437 117.8,437C117.7,437 117.7,436.6 117.7,436.3C112,440.7 102.6,441 96.7,437.2C90.8,433.4 93.7,435.1 92.6,433.9C91.4,432.5 90.3,431 89.8,429.2C89.7,428.9 89.7,428.7 89.8,428.4C89.9,428.1 90.3,428.2 90.6,428.2C91.2,428.2 91.2,428.7 91.4,429.2C94.1,434.4 98.8,437.6 104.6,438.1L108.3,438.1C110.5,437.9 112.6,437.3 114.6,436.3L117.1,434.8L116,434.8C115.7,434.6 115.6,434 115.7,433.8C115.9,433.4 116.3,433.4 116.7,433.4C117.9,433.4 118.9,433.1 120.2,433.4L120.3,433.4Z" style="fill:rgb(39,39,39);fill-rule:nonzero;"/>
        <path d="M119.2,424.6L119.2,418.8L120.8,418.8L120.8,423.6L127.5,423.6L124.9,420.1L121.5,420.1C121.2,420 121.1,419.7 121.1,419.5C121.1,419.3 121.1,418.8 121.5,418.8L123.8,418.8L123.1,417.8L118.2,417.8C118,417.8 117.8,417.7 117.8,417.6C117.6,417.5 117.6,416.6 117.8,416.5C118,416.4 118.1,416.2 118.3,416.2L122.7,416.2C123.3,416.2 124.1,416.2 124.5,416.8L129.6,423.8L129.6,428.8C129.6,429.6 129.2,430.3 128.4,430.4L127,430.6C126.9,430.1 126.9,429.6 127,429.1C127.3,428.9 127.6,428.9 128,428.7L128,425.1L119.8,425.1C119.6,425.1 119.3,424.7 119.1,424.5L119.2,424.6Z" style="fill:rgb(39,39,39);fill-rule:nonzero;"/>
        <path d="M126.7,430.1C126.6,432.2 124.7,433.5 122.7,433.2C120.7,432.9 119.2,430.9 119.8,428.9C120.3,427 121.9,426 123.8,426.2C125.7,426.4 126.9,428 126.8,430L126.7,430.1ZM125,429.6C125,429 124.7,428.5 124.4,428.3C124.1,428.1 123.5,427.9 122.9,427.9C121.8,427.9 121.1,429.1 121.3,430.2C121.5,431.3 122.5,431.9 123.6,431.6C124.7,431.3 125.1,430.6 125,429.5L125,429.6Z" style="fill:rgb(39,39,39);fill-rule:nonzero;"/>
        <path d="M105.9,430.5C105.7,432.1 104.3,433.1 102.9,433.3C100.7,433.5 98.9,432 99,429.8C99.1,427.6 100.4,426.4 102.2,426.3C104,426.2 106,427.6 106,429.6L106,430.5L105.9,430.5ZM104.1,430.6C104.4,429.9 104.3,428.9 103.9,428.4C103.5,427.9 102.8,427.9 102.1,427.9C101.4,427.9 100.9,428.4 100.6,429C100.3,429.6 100.5,430.3 100.8,431C101.1,431.7 101.8,431.9 102.4,431.8C103,431.7 103.7,431.5 104,430.8L104.1,430.6Z" style="fill:rgb(39,39,39);fill-rule:nonzero;"/>
        <path d="M93.9,422.2L82.8,422.2C82.5,422 82.2,421.5 82.3,421.2C82.4,420.8 82.8,420.7 83.2,420.7L93.8,420.7L93.8,422.2L93.9,422.2Z" style="fill:rgb(39,39,39);fill-rule:nonzero;"/>
        <path d="M93.1,425.6L86.5,425.6C86,425.6 85.8,425.5 85.6,425.1C85.4,424.7 85.6,424.2 86.1,424.2L92.9,424.2C93.4,424.2 93.5,425.3 93.1,425.6Z" style="fill:rgb(39,39,39);fill-rule:nonzero;"/>
        <path d="M119.2,406.4C119.2,406.4 119.4,406.4 119.5,406.7C117.9,406.9 116,405.9 116.2,407C116.4,408.1 116.4,407.5 116.8,407.6L118.2,407.8C119.3,407.9 120.8,407.8 122,408.1C121.8,408.3 121.4,408.1 121.2,408.1C120.5,408.1 119.9,408.1 119.2,408C118,407.9 116.4,408 116.1,407.3C115.8,406.6 116.1,406.5 116.4,406.4C117.2,406.1 118.5,406.7 119.3,406.4L119.2,406.4Z" style="fill:rgb(39,39,39);fill-rule:nonzero;"/>
    </g>
</svg>
