<?xml version="1.0" encoding="UTF-8" standalone="no"?>
<!DOCTYPE svg PUBLIC "-//W3C//DTD SVG 1.1//EN" "http://www.w3.org/Graphics/SVG/1.1/DTD/svg11.dtd">
<svg width="100%" height="100%" viewBox="0 0 64 65" version="1.1" xmlns="http://www.w3.org/2000/svg" xmlns:xlink="http://www.w3.org/1999/xlink" xml:space="preserve" xmlns:serif="http://www.serif.com/" style="fill-rule:evenodd;clip-rule:evenodd;stroke-linejoin:round;stroke-miterlimit:2;">
    <g transform="matrix(1,0,0,1,-328,-194.5)">
        <path d="M330.1,225.2L330.1,221.4C330.3,219.7 331.7,218.8 333.3,218.9L333.5,216L339.7,216L340,218L342,218.2L342,213.9L346.2,213.9L346.2,218L347.5,218L347.5,212.6C347.7,211.1 349.5,210.7 350.6,211C351.7,211.3 352.6,212.2 352.7,213.7L352.7,218.3C354.6,218.6 356,219.8 356,221.8L356,254.8C356,257 354.3,259 352.1,259L334.6,259C332.5,259 330.5,257.5 330.5,255.3L330.5,236.6C328.7,236.2 328,234.9 328,233.3L328,225.4L330.1,225.1L330.1,225.2ZM350.9,226C351.6,226 351.8,224.3 351.6,223.8C351.4,223.3 350.7,222.5 349.9,222.5L338,222.5C337,222.5 336.2,223.2 336.1,224C336,224.8 336.2,226.1 337.2,226.1L350.9,226.1L350.9,226ZM351.4,230.9C351.7,230.7 352.3,230.1 352.2,229.9L351.3,229.2L336.5,229.2C336.3,229.5 336,230.1 336.2,230.3L337,230.9L351.4,230.9ZM351.6,235.7C351.9,235.4 352.4,234.7 352.2,234.5L351.4,234L337,234C336.7,234 335.9,234.8 336.2,235L337.1,235.7L351.6,235.7ZM346.2,240.5C346.2,239.6 345.4,238.8 344.5,238.8C343.6,238.8 342.8,239.6 342.8,240.5C342.8,241.4 343.6,242.2 344.5,242.2C345.4,242.2 346.2,241.4 346.2,240.5ZM339.7,240.5C339.7,239.6 339,238.8 338,238.8C337,238.8 336.3,239.5 336.3,240.5C336.3,241.5 337,242.2 338,242.2C339,242.2 339.7,241.5 339.7,240.5Z" style="fill:rgb(39,39,39);fill-rule:nonzero;"/>
        <path d="M338.9,214.3L334.9,214.3L334.9,195.7C334.9,195 336.1,194.5 336.6,194.5C337.1,194.5 338.3,194.7 338.8,195.4L338.8,214.3L338.9,214.3Z" style="fill:rgb(39,39,39);fill-rule:nonzero;"/>
        <path d="M383.7,254.2L380.4,251.8L375.9,253.6L375.2,257.1L369.9,257.1L369.2,253.5L365.1,251.9L362,254.1C360.4,252.8 359.3,251.7 358.1,250.1L360.6,247C357.1,242.3 356.8,236 360.4,231L357.7,227.3L361.3,223.9C362.2,223.1 363.2,225 364.9,225.8L369.2,224.1L369.9,220.6L375.4,220.6L376,224.2L380.4,225.9L383.9,223.7L387.6,227.5L384.9,230.9C386.1,232.7 386.7,234 387.4,235.8L391.2,236.3L391.2,241.6L387.4,242.4L385,247.2L387.6,250.4C386.4,251.9 385.3,252.8 383.7,254.2ZM380.8,239C380.8,234.5 377.1,230.8 372.6,230.8C368.1,230.8 364.4,234.5 364.4,239C364.4,243.5 368.1,247.2 372.6,247.2C377.1,247.2 380.8,243.5 380.8,239Z" style="fill:rgb(39,39,39);fill-rule:nonzero;"/>
    </g>
</svg>
