<?xml version="1.0" encoding="UTF-8" standalone="no"?>
<!DOCTYPE svg PUBLIC "-//W3C//DTD SVG 1.1//EN" "http://www.w3.org/Graphics/SVG/1.1/DTD/svg11.dtd">
<svg width="100%" height="100%" viewBox="0 0 72 76" version="1.1" xmlns="http://www.w3.org/2000/svg" xmlns:xlink="http://www.w3.org/1999/xlink" xml:space="preserve" xmlns:serif="http://www.serif.com/" style="fill-rule:evenodd;clip-rule:evenodd;stroke-linejoin:round;stroke-miterlimit:2;">
    <g transform="matrix(1,0,0,1,-317.412728,-57)">
        <path d="M345.9,82.1L344.4,99.1C346.6,103.5 349.4,107.4 351.4,111.9L356.7,127C357.1,128.2 356.6,129.8 355.9,130.6C355.2,131.4 354,132 352.7,132C350.7,132.1 348.9,131.2 348.3,129.2L343.7,115.4C343.3,114.1 342,112.9 341.1,111.8L330,99.1L333.4,83.1C331.7,84 330.4,85.1 329.3,86.4L326.6,98.3C325.2,99.3 323,99.4 321.5,98.6C320,97.8 320,96.4 320.3,95.2L322.9,84.3C323.2,83.2 323.9,82.2 324.8,81.5L333.9,74.4C336.3,72.5 339,72.3 341.9,73.2C344.1,73.9 345.8,74.9 346.8,77L351,85.5C351.5,86.6 352.3,87.8 353.4,88.2L361.7,91C360.9,92.4 358.5,92 356.8,93.6L365.8,93.4L365.8,97.9C365.9,97.9 358.9,97.9 358.9,97.9C358,97.9 357,97.2 357,96.3L357,94.1C356.4,94.8 355.7,95.4 355,95.2L347.6,93C347.3,92.1 347,91.2 347,90.2L346.6,84.6L346.2,82.1L345.9,82.1Z" style="fill:rgb(39,39,39);fill-rule:nonzero;"/>
        <path d="M325.4,128.7C323.9,130.5 321.2,131.2 319.2,129.8C317.2,128.5 316.8,125.4 318.4,123.5L326.5,113.4C327.2,112.5 327.8,111.5 328.1,110.4L330.2,102.3L337,109.8C337.6,110.5 337.9,111.2 337.4,112C336.8,113.4 336.4,115.1 335.4,116.3L325.5,128.6L325.4,128.7Z" style="fill:rgb(39,39,39);fill-rule:nonzero;"/>
        <path d="M353,66.1L349,66.4C349.4,68.8 348.4,70.8 346.3,71.8C343.5,73.1 340,72.2 338.1,69.8C336.6,68 336.7,65.7 337,63.5C336.3,63.1 335.7,62.4 335.5,61.8C335.3,61.2 335.7,59.8 336.5,59.6L348.4,57C348.8,57 349.8,57.2 350.1,57.4C351.1,58 351,60.6 350.2,62.2C349.4,63.8 349,62.8 348.6,62.8L342.9,63.2L345.7,63.8C348.1,64.3 350.7,63.9 352.9,66.1L353,66.1Z" style="fill:rgb(39,39,39);fill-rule:nonzero;"/>
        <path d="M372.3,98.2C371,100.1 368.6,99.9 366.4,98.8L366.4,95C366.2,94.1 366.4,92.9 367.3,92.4C368.2,91.9 369.9,91.8 370.7,92.2C371.1,92.7 371.7,93.2 372.3,93.1L382.9,90.9L388.8,89.9L377.8,95C377.3,95.2 377,96.4 377.4,96.6L388.4,101.8L372.3,98.2ZM370.2,93.6L370.2,98.6C371.7,98.1 371.6,94.5 370.2,93.6Z" style="fill:rgb(39,39,39);fill-rule:nonzero;"/>
    </g>
</svg>
