<?xml version="1.0" encoding="UTF-8" standalone="no"?>
<!DOCTYPE svg PUBLIC "-//W3C//DTD SVG 1.1//EN" "http://www.w3.org/Graphics/SVG/1.1/DTD/svg11.dtd">
<svg width="100%" height="100%" viewBox="0 0 1212 576" version="1.1" xmlns="http://www.w3.org/2000/svg" xmlns:xlink="http://www.w3.org/1999/xlink" xml:space="preserve" xmlns:serif="http://www.serif.com/" style="fill-rule:evenodd;clip-rule:evenodd;stroke-linejoin:round;stroke-miterlimit:2;">
    <g id="Capa_1">
        <g>
            <path d="M65.4,117C65.4,117 226.6,24.4 440.7,114.9L440.7,341.3C440.7,341.3 435.2,388.6 413.9,416.8C392.6,444.9 319.2,498.4 253,527.9L112,446.3C112,446.3 65.3,416.1 65.3,350.3L65.3,117L65.4,117Z" style="fill:rgb(236,236,236);fill-rule:nonzero;"/>
            <path d="M76.4,124.5C76.4,124.5 215.7,30.5 429.7,121.1L431.1,348.2C431.1,348.2 426,395.8 403.7,418.2C378.8,443.2 320,481.3 253.8,510.8L144.4,455.2C144.4,455.2 76.5,423.6 76.5,357.8L76.5,124.5L76.4,124.5Z" style="fill:rgb(22,38,64);fill-rule:nonzero;"/>
            <path d="M81.2,207.5C81.2,207.5 196.1,85 422.4,121.1L423.8,348.2C423.8,348.2 418.7,395.8 396.4,418.2C371.5,443.2 320.3,470.8 253.1,504L158.8,458C158.8,458 85.4,423.7 81.3,359.9C77.1,294.2 81.3,207.6 81.3,207.6L81.2,207.5Z" style="fill:rgb(236,236,236);fill-rule:nonzero;"/>
            <path d="M88.7,213C88.7,213 181.3,103.9 416.9,125L416.9,347.5C416.9,347.5 409.4,399.1 372.7,429.1C345.4,451.5 320.8,459.1 253.7,492.2L165.5,452.4C165.5,452.4 93.3,419.6 89.1,355.8C84.9,290.1 88.6,213 88.6,213L88.7,213Z" style="fill:rgb(226,6,19);fill-rule:nonzero;"/>
            <path d="M168.3,243.4L161.9,243.4L110.2,345.2L134,345.2L164.4,283.8L193.7,345.2L216.9,345.2L168.3,243.4Z" style="fill:rgb(245,245,245);fill-rule:nonzero;"/>
            <path d="M376.3,271.1L386.8,254.1C386.8,254.1 366.8,236.1 345.7,243.4C324.6,250.7 319.1,262.7 323.9,281.8C324.8,286.6 331.7,296.8 349.7,300.9C373.9,306.4 372,324.1 361,326.8C345.1,330.7 329.9,315.5 329.9,315.5L315.4,329.3C315.4,329.3 328.6,343.4 346.8,346.6C365,349.8 376.6,341.4 376.6,341.4C376.6,341.4 405.2,317.8 377.3,293.2C377.3,293.2 367.2,286.4 350.3,280.9C350.3,280.9 333.9,274.6 347.3,263.4C356.8,255.4 376.6,271.1 376.6,271.1L376.3,271.1Z" style="fill:rgb(245,245,245);fill-rule:nonzero;"/>
            <rect x="231.3" y="243.4" width="67.5" height="19.7" style="fill:rgb(245,245,245);"/>
            <rect x="231.3" y="325.4" width="67.5" height="19.7" style="fill:rgb(245,245,245);"/>
            <rect x="231.3" y="282.6" width="56" height="19.7" style="fill:rgb(245,245,245);"/>
            <g>
                <path d="M498.7,263.3C484.3,263.3 477.2,256.8 477.2,243.7C477.2,230.6 484.4,224.5 498.7,224.5L533.2,224.5L533.2,241.7L498.7,241.7C495.8,241.7 494.4,242.4 494.4,243.7C494.4,245 495.8,246 498.7,246L511.6,246C526,246 533.1,252.4 533.1,265.2C533.1,278 525.9,284.8 511.6,284.8L477.1,284.8L477.1,267.6L511.6,267.6C514.5,267.6 515.9,266.8 515.9,265.3C515.9,263.8 514.5,263.3 511.6,263.3L498.7,263.3Z" style="fill:rgb(22,38,64);fill-rule:nonzero;"/>
                <path d="M593.7,224.4L593.7,241.7L559.2,241.7L559.2,246L585.1,246L585.1,263.2L559.2,263.2L559.2,267.5L593.7,267.5L593.7,284.7L542,284.7L542,224.4L593.7,224.4Z" style="fill:rgb(22,38,64);fill-rule:nonzero;"/>
                <path d="M642.3,263.3L632.6,263.3L632.6,246.1L661.6,246.1C662.4,248.9 662.8,251.7 662.8,254.7C662.8,263 659.9,270.1 654,276C648.1,281.9 641,284.8 632.7,284.8C624.4,284.8 617.3,281.9 611.4,276C605.5,270.1 602.6,263 602.6,254.7C602.6,246.4 605.5,239.3 611.4,233.4C617.3,227.5 624.4,224.6 632.7,224.6C641,224.6 648.1,227.5 654,233.4C654.5,233.9 655.1,234.5 655.6,235.1L640.2,244.2C638,242.6 635.5,241.8 632.7,241.8C629.9,241.8 626.1,243.1 623.6,245.6C621.1,248.1 619.8,251.2 619.8,254.7C619.8,258.2 621.1,261.3 623.6,263.8C626.1,266.3 629.2,267.6 632.7,267.6C636.2,267.6 639.3,266.3 641.8,263.8C642,263.6 642.1,263.5 642.3,263.3Z" style="fill:rgb(22,38,64);fill-rule:nonzero;"/>
                <path d="M671.4,254.7L671.4,224.5L688.6,224.5L688.6,254.7C688.6,263.3 691.5,267.6 697.2,267.6C702.9,267.6 705.8,263.3 705.8,254.7L705.8,224.5L723,224.5L723,254.7C723,274.8 714.4,284.9 697.1,284.9C679.8,284.9 671.2,274.8 671.2,254.7L671.4,254.7Z" style="fill:rgb(22,38,64);fill-rule:nonzero;"/>
                <path d="M749.1,267.6L749.1,284.8L731.9,284.8L731.9,224.5L766.4,224.5C780.8,224.5 787.9,231.7 787.9,246C787.9,260.3 782.2,267.5 770.7,267.5L787.9,284.7L766.4,284.7L749.2,267.5L749.1,267.6ZM749.1,241.8L749.1,250.4L766.3,250.4C769.2,250.4 770.6,249 770.6,246.1C770.6,243.2 769.2,241.8 766.3,241.8L749.1,241.8Z" style="fill:rgb(22,38,64);fill-rule:nonzero;"/>
                <rect x="796.7" y="224.5" width="17.2" height="60.3" style="fill:rgb(22,38,64);"/>
                <path d="M822.6,285L822.6,224.6L852.8,224.6C870,224.6 878.7,234.7 878.7,254.8C878.7,274.9 870.1,285 852.8,285L822.6,285ZM839.8,241.8L839.8,267.7L852.7,267.7C858.4,267.7 861.3,263.4 861.3,254.8C861.3,246.2 858.4,241.9 852.7,241.9L839.8,241.9L839.8,241.8Z" style="fill:rgb(22,38,64);fill-rule:nonzero;"/>
                <path d="M900.2,276.3L897.2,284.9L880,284.9L901.5,224.6L918.7,224.6L940.2,284.9L923,284.9L919.9,276.3L900.1,276.3L900.2,276.3ZM916,259L910.2,241.8L904.5,259L916,259Z" style="fill:rgb(22,38,64);fill-rule:nonzero;"/>
                <path d="M949,285L949,224.6L979.2,224.6C996.4,224.6 1005.1,234.7 1005.1,254.8C1005.1,274.9 996.5,285 979.2,285L949,285ZM966.3,241.8L966.3,267.7L979.2,267.7C984.9,267.7 987.8,263.4 987.8,254.8C987.8,246.2 984.9,241.9 979.2,241.9L966.3,241.9L966.3,241.8Z" style="fill:rgb(22,38,64);fill-rule:nonzero;"/>
                <path d="M494.4,350.4L494.4,367.6L477.2,367.6L477.2,307.3L511.7,307.3C526.1,307.3 533.2,314.5 533.2,328.8C533.2,343.1 526,350.3 511.7,350.3L494.5,350.3L494.4,350.4ZM494.4,324.5L494.4,333.1L511.6,333.1C514.5,333.1 515.9,331.7 515.9,328.8C515.9,325.9 514.5,324.5 511.6,324.5L494.4,324.5Z" style="fill:rgb(22,38,64);fill-rule:nonzero;"/>
                <path d="M559.2,350.4L559.2,367.6L542,367.6L542,307.3L576.5,307.3C590.9,307.3 598,314.5 598,328.8C598,343.1 592.3,350.3 580.8,350.3L598,367.5L576.5,367.5L559.3,350.3L559.2,350.4ZM559.2,324.5L559.2,333.1L576.4,333.1C579.3,333.1 580.7,331.7 580.7,328.8C580.7,325.9 579.3,324.5 576.4,324.5L559.2,324.5Z" style="fill:rgb(22,38,64);fill-rule:nonzero;"/>
                <rect x="606.7" y="307.3" width="17.2" height="60.3" style="fill:rgb(22,38,64);"/>
                <path d="M654.2,367.6L632.7,307.3L649.9,307.3L662.8,341.8L675.7,307.3L692.9,307.3L671.4,367.6L654.2,367.6Z" style="fill:rgb(22,38,64);fill-rule:nonzero;"/>
                <path d="M701,359L698,367.6L680.8,367.6L702.3,307.3L719.5,307.3L741,367.6L723.8,367.6L720.7,359L700.9,359L701,359ZM716.8,341.8L711,324.6L705.3,341.8L716.8,341.8Z" style="fill:rgb(22,38,64);fill-rule:nonzero;"/>
                <path d="M749.8,367.7L749.8,307.3L780,307.3C797.2,307.3 805.9,317.4 805.9,337.5C805.9,357.6 797.3,367.7 780,367.7L749.8,367.7ZM767.1,324.5L767.1,350.4L780,350.4C785.7,350.4 788.6,346.1 788.6,337.5C788.6,328.9 785.7,324.6 780,324.6L767.1,324.6L767.1,324.5Z" style="fill:rgb(22,38,64);fill-rule:nonzero;"/>
                <path d="M827.5,359L824.5,367.6L807.3,367.6L828.8,307.3L846,307.3L867.5,367.6L850.3,367.6L847.2,359L827.4,359L827.5,359ZM843.2,341.8L837.4,324.6L831.7,341.8L843.2,341.8Z" style="fill:rgb(22,38,64);fill-rule:nonzero;"/>
            </g>
        </g>
    </g>
</svg>
