<?xml version="1.0" encoding="UTF-8"?>
<svg id="Capa_2" data-name="Capa 2" xmlns="http://www.w3.org/2000/svg" viewBox="0 0 1509.56 554.99">
  <defs>
    <style>
      .cls-1 {
        fill: #e52d22;
      }

      .cls-2 {
        font-family: Arial-BoldMT, Arial;
        font-size: 62.75px;
        font-weight: 700;
      }

      .cls-2, .cls-3 {
        fill: #162640;
      }

      .cls-4 {
        fill: #182742;
      }

      .cls-5 {
        letter-spacing: .19em;
      }

      .cls-6 {
        letter-spacing: .19em;
      }

      .cls-7 {
        letter-spacing: 0em;
      }

      .cls-8 {
        letter-spacing: -.07em;
      }

      .cls-9 {
        letter-spacing: -.02em;
      }

      .cls-10 {
        letter-spacing: -.04em;
      }

      .cls-11 {
        fill: #81868e;
        font-family: SklowRegular, Sklow;
        font-size: 154.19px;
      }
    </style>
  </defs>
  <g id="Capa_1-2" data-name="Capa 1">
    <g>
      <text class="cls-11" transform="translate(0 279.03)"><tspan class="cls-5" x="0" y="0">GR</tspan><tspan class="cls-6" x="272.61" y="0">U</tspan><tspan class="cls-5" x="404.29" y="0">PO</tspan></text>
      <rect class="cls-1" x="693.78" width="13.19" height="450.49"/>
      <polygon class="cls-3" points="904.25 84 886.81 84 745.06 363.02 810.21 363.02 893.66 194.86 974.01 363.02 1037.53 363.02 904.25 84"/>
      <path class="cls-3" d="M1474.12,159.98l28.65-46.71s-54.81-49.2-112.73-29.27c-57.92,19.93-72.87,52.94-59.79,105.25,2.49,13.08,21.34,41.2,70.69,52.32,66.33,14.95,61.15,63.5,30.83,71-43.44,10.74-85.32-30.91-85.32-30.91l-39.86,37.76s36.12,38.61,85.95,47.33,81.59-14.32,81.59-14.32c0,0,78.47-64.77,1.87-132.03,0,0-27.79-18.66-74.11-33.63,0,0-44.97-17.22-8.1-47.96,26.16-21.8,80.34,21.18,80.34,21.18Z"/>
      <rect class="cls-3" x="1077" y="84" width="184.97" height="54.11"/>
      <rect class="cls-4" x="1077" y="308.91" width="182.87" height="54.11"/>
      <rect class="cls-3" x="1077" y="191.59" width="153.44" height="54.11"/>
      <text class="cls-2" transform="translate(20.79 531.37)"><tspan x="0" y="0">ADMINISTRACIÓN ESTR</tspan><tspan class="cls-8" x="735.6" y="0">A</tspan><tspan x="776.27" y="0">TÉGIC</tspan><tspan class="cls-10" x="968.02" y="0">A</tspan><tspan class="cls-7" x="1011.01" y="0" xml:space="preserve"> DE SE</tspan><tspan class="cls-9" x="1216.76" y="0">R</tspan><tspan class="cls-7" x="1260.95" y="0">VICIOS</tspan></text>
    </g>
  </g>
</svg>